<?xml version="1.0" encoding="UTF-8"?>
<svg xmlns="http://www.w3.org/2000/svg"
     xmlns:xlink="http://www.w3.org/1999/xlink"
     xmlns:gadfly="http://www.gadflyjl.org/ns"
     version="1.2"
     width="130mm" height="200mm" viewBox="0 0 130 200"
     stroke="none"
     fill="#000000"
     stroke-width="0.3"
     font-size="3.88"
>
<defs>
  <marker id="arrow" markerWidth="15" markerHeight="7" refX="5" refY="3.5" orient="auto" markerUnits="strokeWidth">
    <path d="M0,0 L15,3.5 L0,7 z" stroke="context-stroke" fill="context-stroke"/>
  </marker>
</defs>
<g class="plotroot xscalable yscalable" id="img-15adc0dd-1">
  <g font-size="3.88" font-family="'PT Sans','Helvetica Neue','Helvetica',sans-serif" fill="#564A55" stroke="#000000" stroke-opacity="0.000" id="img-15adc0dd-2">
    <g transform="translate(61.16,188.39)">
      <g class="primitive">
        <text text-anchor="middle" dy="0.6em">Year</text>
      </g>
    </g>
  </g>
  <g class="guide xlabels" font-size="2.82" font-family="'PT Sans Caption','Helvetica Neue','Helvetica',sans-serif" fill="#6C606B" id="img-15adc0dd-3">
    <g transform="translate(28.35,181.72)">
      <g class="primitive">
        <text text-anchor="middle" dy="0.6em">Jan 1, 2000</text>
      </g>
    </g>
    <g transform="translate(42.93,181.72)">
      <g class="primitive">
        <text text-anchor="middle" dy="0.6em">2004</text>
      </g>
    </g>
    <g transform="translate(57.51,181.72)">
      <g class="primitive">
        <text text-anchor="middle" dy="0.6em">2008</text>
      </g>
    </g>
    <g transform="translate(72.09,181.72)">
      <g class="primitive">
        <text text-anchor="middle" dy="0.6em">2012</text>
      </g>
    </g>
    <g transform="translate(86.66,181.72)">
      <g class="primitive">
        <text text-anchor="middle" dy="0.6em">2016</text>
      </g>
    </g>
    <g transform="translate(101.24,181.72)">
      <g class="primitive">
        <text text-anchor="middle" dy="0.6em">2020</text>
      </g>
    </g>
  </g>
  <g class="guide colorkey" id="img-15adc0dd-4">
    <g fill="#4C404B" font-size="2.82" font-family="'PT Sans','Helvetica Neue','Helvetica',sans-serif" id="img-15adc0dd-5">
      <g transform="translate(107.06,141.04)" id="img-15adc0dd-6" class="color_Nl">
        <g class="primitive">
          <text dy="0.35em">d/dt Nl</text>
        </g>
      </g>
      <g transform="translate(107.06,144.67)" id="img-15adc0dd-7" class="color_MWW">
        <g class="primitive">
          <text dy="0.35em">d/dt Adj. MWW</text>
        </g>
      </g>
      <g transform="translate(107.06,148.3)" id="img-15adc0dd-8" class="color_i">
        <g class="primitive">
          <text dy="0.35em">i(t)</text>
        </g>
      </g>
    </g>
    <g fill-opacity="1" id="img-15adc0dd-9">
      <g transform="translate(105.15,141.04)" id="img-15adc0dd-10" class="color_Nl" stroke="#FFFFFF" fill="#00BFFF">
        <path d="M-0.91,-0.91 L0.91,-0.91 0.91,0.91 -0.91,0.91  z" class="primitive"/>
      </g>
      <g transform="translate(105.15,144.67)" id="img-15adc0dd-11" class="color_MWW" stroke="#FFFFFF" fill="#D4CA3A">
        <path d="M-0.91,-0.91 L0.91,-0.91 0.91,0.91 -0.91,0.91  z" class="primitive"/>
      </g>
      <g transform="translate(105.15,148.3)" id="img-15adc0dd-12" class="color_i" stroke="#FFFFFF" fill="#FF6DAE">
        <path d="M-0.91,-0.91 L0.91,-0.91 0.91,0.91 -0.91,0.91  z" class="primitive"/>
      </g>
    </g>
    <g fill="#362A35" font-size="3.88" font-family="'PT Sans','Helvetica Neue','Helvetica',sans-serif" stroke="#000000" stroke-opacity="0.000" id="img-15adc0dd-13">
      <g transform="translate(104.25,137.22)" id="img-15adc0dd-14">
        <g class="primitive">
          <text dy="-0em">Metric</text>
        </g>
      </g>
    </g>
  </g>
  <g clip-path="url(#img-15adc0dd-15)">
    <g id="img-15adc0dd-16">
      <g pointer-events="visible" stroke-width="0.3" fill="#000000" fill-opacity="0.000" stroke="#000000" stroke-opacity="0.000" class="guide background" id="img-15adc0dd-17">
        <g transform="translate(61.16,142.86)" id="img-15adc0dd-18">
          <path d="M-42.09,-37.86 L42.09,-37.86 42.09,37.86 -42.09,37.86  z" class="primitive"/>
        </g>
      </g>
      <g class="guide xgridlines yfixed" stroke-dasharray="0.5,0.5" stroke-width="0.2" stroke="#D0D0E0" id="img-15adc0dd-19">
        <g transform="translate(28.35,142.86)" id="img-15adc0dd-20">
          <path fill="none" d="M0,-37.86 L0,37.86 " class="primitive"/>
        </g>
        <g transform="translate(42.93,142.86)" id="img-15adc0dd-21">
          <path fill="none" d="M0,-37.86 L0,37.86 " class="primitive"/>
        </g>
        <g transform="translate(57.51,142.86)" id="img-15adc0dd-22">
          <path fill="none" d="M0,-37.86 L0,37.86 " class="primitive"/>
        </g>
        <g transform="translate(72.09,142.86)" id="img-15adc0dd-23">
          <path fill="none" d="M0,-37.86 L0,37.86 " class="primitive"/>
        </g>
        <g transform="translate(86.66,142.86)" id="img-15adc0dd-24">
          <path fill="none" d="M0,-37.86 L0,37.86 " class="primitive"/>
        </g>
        <g transform="translate(101.24,142.86)" id="img-15adc0dd-25">
          <path fill="none" d="M0,-37.86 L0,37.86 " class="primitive"/>
        </g>
      </g>
      <g class="guide ygridlines xfixed" stroke-dasharray="0.5,0.5" stroke-width="0.2" stroke="#D0D0E0" id="img-15adc0dd-26">
        <g transform="translate(61.16,178.71)" id="img-15adc0dd-27">
          <path fill="none" d="M-42.09,0 L42.09,0 " class="primitive"/>
        </g>
        <g transform="translate(61.16,166.76)" id="img-15adc0dd-28">
          <path fill="none" d="M-42.09,0 L42.09,0 " class="primitive"/>
        </g>
        <g transform="translate(61.16,154.81)" id="img-15adc0dd-29">
          <path fill="none" d="M-42.09,0 L42.09,0 " class="primitive"/>
        </g>
        <g transform="translate(61.16,142.86)" id="img-15adc0dd-30">
          <path fill="none" d="M-42.09,0 L42.09,0 " class="primitive"/>
        </g>
        <g transform="translate(61.16,130.9)" id="img-15adc0dd-31">
          <path fill="none" d="M-42.09,0 L42.09,0 " class="primitive"/>
        </g>
        <g transform="translate(61.16,118.95)" id="img-15adc0dd-32">
          <path fill="none" d="M-42.09,0 L42.09,0 " class="primitive"/>
        </g>
        <g transform="translate(61.16,107)" id="img-15adc0dd-33">
          <path fill="none" d="M-42.09,0 L42.09,0 " class="primitive"/>
        </g>
      </g>
      <g class="plotpanel" id="img-15adc0dd-34">
        <metadata>
          <boundingbox value="19.07166666666666mm 105.0mm 84.175mm 75.715mm"/>
          <unitbox value="1997-06-15 15.836645053336122 8436 days -31.673290106672248"/>
        </metadata>
        <g stroke-width="0.3" fill="#000000" fill-opacity="0.000" class="geometry" id="img-15adc0dd-35">
          <g transform="translate(36.55,140.15)" id="img-15adc0dd-36" class="color_Nl" stroke="#00BFFF" stroke-dasharray="none">
            <path fill="none" d="M-73.79,3.98 L-73.79,3.98 -73.79,3.98 -72.89,5.21 -72.89,5.21 -72.89,5.21 -71.99,4.94 -71.99,4.94 -71.99,4.94 -71.07,5 -71.07,5 -71.07,5 -70.15,4.07 -70.15,4.07 -70.15,4.07 -69.25,2.23 -69.25,2.23 -69.25,2.23 -68.34,-2.25 -68.34,-2.25 -68.34,-2.25 -67.43,-5.65 -67.43,-5.65 -67.43,-5.65 -66.51,-8.19 -66.51,-8.19 -66.51,-8.19 -65.6,-9.48 -65.6,-9.48 -65.6,-9.48 -64.69,-6.12 -64.69,-6.12 -64.69,-6.12 -63.77,-5.11 -63.77,-5.11 -63.77,-5.11 -62.86,-4.1 -62.86,-4.1 -62.86,-4.1 -61.96,-1.27 -61.96,-1.27 -61.96,-1.27 -61.05,-1.43 -61.05,-1.43 -61.05,-1.43 -60.13,-1.98 -60.13,-1.98 -60.13,-1.98 -59.21,-2.04 -59.21,-2.04 -59.21,-2.04 -58.32,-2.69 -58.32,-2.69 -58.32,-2.69 -57.41,-3.5 -57.41,-3.5 -57.41,-3.5 -56.49,-2.75 -56.49,-2.75 -56.49,-2.75 -55.57,-2.72 -55.57,-2.72 -55.57,-2.72 -54.67,-3.75 -54.67,-3.75 -54.67,-3.75 -53.77,-3.59 -53.77,-3.59 -53.77,-3.59 -52.85,-3.85 -52.85,-3.85 -52.85,-3.85 -51.93,-3.5 -51.93,-3.5 -51.93,-3.5 -51.02,-2.54 -51.02,-2.54 -51.02,-2.54 -50.11,-2.3 -50.11,-2.3 -50.11,-2.3 -49.2,-2.39 -49.2,-2.39 -49.2,-2.39 -48.28,-3.03 -48.28,-3.03 -48.28,-3.03 -47.38,-2.67 -47.38,-2.67 -47.38,-2.67 -46.47,-1.98 -46.47,-1.98 -46.47,-1.98 -45.55,-1.06 -45.55,-1.06 -45.55,-1.06 -44.64,-1.95 -44.64,-1.95 -44.64,-1.95 -43.74,-0.94 -43.74,-0.94 -43.74,-0.94 -42.83,0.23 -42.83,0.23 -42.83,0.23 -41.91,1.52 -41.91,1.52 -41.91,1.52 -40.99,5.38 -40.99,5.38 -40.99,5.38 -40.1,5.25 -40.1,5.25 -40.1,5.25 -39.19,4.83 -39.19,4.83 -39.19,4.83 -38.27,4.09 -38.27,4.09 -38.27,4.09 -37.35,2.35 -37.35,2.35 -37.35,2.35 -36.44,1.34 -36.44,1.34 -36.44,1.34 -35.54,0.49 -35.54,0.49 -35.54,0.49 -34.62,0.36 -34.62,0.36 -34.62,0.36 -33.7,-0 -33.7,-0 -33.7,-0 -32.8,-0.42 -32.8,-0.42 -32.8,-0.42 -31.89,-1.06 -31.89,-1.06 -31.89,-1.06 -30.98,-1.95 -30.98,-1.95 -30.98,-1.95 -30.06,-2.69 -30.06,-2.69 -30.06,-2.69 -29.16,-2.54 -29.16,-2.54 -29.16,-2.54 -28.25,-2.48 -28.25,-2.48 -28.25,-2.48 -27.33,-3.8 -27.33,-3.8 -27.33,-3.8 -26.42,-2.88 -26.42,-2.88 -26.42,-2.88 -25.52,-1.25 -25.52,-1.25 -25.52,-1.25 -24.61,-0.56 -24.61,-0.56 -24.61,-0.56 -23.69,1.23 -23.69,1.23 -23.69,1.23 -22.77,1.38 -22.77,1.38 -22.77,1.38 -21.87,-0.46 -21.87,-0.46 -21.87,-0.46 -20.96,-1.66 -20.96,-1.66 -20.96,-1.66 -20.04,-2.29 -20.04,-2.29 -20.04,-2.29 -19.12,-2.91 -19.12,-2.91 -19.12,-2.91 -18.22,-3.08 -18.22,-3.08 -18.22,-3.08 -17.32,-2.42 -17.32,-2.42 -17.32,-2.42 -16.4,-2.27 -16.4,-2.27 -16.4,-2.27 -15.48,-1.54 -15.48,-1.54 -15.48,-1.54 -14.58,-0.84 -14.58,-0.84 -14.58,-0.84 -13.67,-0.27 -13.67,-0.27 -13.67,-0.27 -12.76,-0.57 -12.76,-0.57 -12.76,-0.57 -11.84,-1.24 -11.84,-1.24 -11.84,-1.24 -10.94,-0.85 -10.94,-0.85 -10.94,-0.85 -10.03,-0.93 -10.03,-0.93 -10.03,-0.93 -9.11,-0.87 -9.11,-0.87 -9.11,-0.87 -8.2,-3.9 -8.2,-3.9 -8.2,-3.9 -7.29,-3.99 -7.29,-3.99 -7.29,-3.99 -6.38,-2.88 -6.38,-2.88 -6.38,-2.88 -5.46,-2.75 -5.46,-2.75 -5.46,-2.75 -4.54,0.78 -4.54,0.78 -4.54,0.78 -3.65,2.46 -3.65,2.46 -3.65,2.46 -2.74,2.67 -2.74,2.67 -2.74,2.67 -1.82,4.65 -1.82,4.65 -1.82,4.65 -0.9,5.52 -0.9,5.52 -0.9,5.52 -0,3.98 -0,3.98 -0,3.98 0.9,2.56 0.9,2.56 0.9,2.56 1.82,1.96 1.82,1.96 1.82,1.96 2.74,0.36 2.74,0.36 2.74,0.36 3.64,0.44 3.64,0.44 3.64,0.44 4.55,1.42 4.55,1.42 4.55,1.42 5.46,-0.13 5.46,-0.13 5.46,-0.13 6.38,0.89 6.38,0.89 6.38,0.89 7.29,0.55 7.29,0.55 7.29,0.55 8.2,-0.76 8.2,-0.76 8.2,-0.76 9.12,-0.33 9.12,-0.33 9.12,-0.33 10.03,-0.64 10.03,-0.64 10.03,-0.64 10.93,-1.8 10.93,-1.8 10.93,-1.8 11.84,-2 11.84,-2 11.84,-2 12.76,-1.68 12.76,-1.68 12.76,-1.68 13.68,-2.43 13.68,-2.43 13.68,-2.43 14.57,-1.58 14.57,-1.58 14.57,-1.58 15.48,-1.09 15.48,-1.09 15.48,-1.09 16.4,-2.33 16.4,-2.33 16.4,-2.33 17.32,-1.76 17.32,-1.76 17.32,-1.76 18.22,-0.25 18.22,-0.25 18.22,-0.25 19.12,0.4 19.12,0.4 19.12,0.4 20.04,1.62 20.04,1.62 20.04,1.62 20.96,2.59 20.96,2.59 20.96,2.59 21.87,2.59 21.87,2.59 21.87,2.59 22.78,3.81 22.78,3.81 22.78,3.81 23.69,6.28 23.69,6.28 23.69,6.28 24.61,10.41 24.61,10.41 24.61,10.41 25.51,11.92 25.51,11.92 25.51,11.92 26.42,12.36 26.42,12.36 26.42,12.36 27.34,12.2 27.34,12.2 27.34,12.2 28.25,7.63 28.25,7.63 28.25,7.63 29.15,4.55 29.15,4.55 29.15,4.55 30.06,2.82 30.06,2.82 30.06,2.82 30.98,1.35 30.98,1.35 30.98,1.35 31.9,1.27 31.9,1.27 31.9,1.27 32.79,2.19 32.79,2.19 32.79,2.19 33.7,1.78 33.7,1.78 33.7,1.78 34.62,0.06 34.62,0.06 34.62,0.06 35.54,-1.4 35.54,-1.4 35.54,-1.4 36.45,-1.8 36.45,-1.8 36.45,-1.8 37.35,-1.83 37.35,-1.83 37.35,-1.83 38.27,-1.82 38.27,-1.82 38.27,-1.82 39.19,0.19 39.19,0.19 39.19,0.19 40.09,-0.1 40.09,-0.1 40.09,-0.1 41,-0.3 41,-0.3 41,-0.3 41.91,1.21 41.91,1.21 41.91,1.21 42.83,-0.6 42.83,-0.6 42.83,-0.6 43.73,-0.74 43.73,-0.74 43.73,-0.74 44.64,-0.99 44.64,-0.99 44.64,-0.99 45.56,-2.62 45.56,-2.62 45.56,-2.62 46.47,-1.89 46.47,-1.89 46.47,-1.89 47.37,-1.88 47.37,-1.88 47.37,-1.88 48.28,-1.17 48.28,-1.17 48.28,-1.17 49.2,-0.74 49.2,-0.74 49.2,-0.74 50.12,-1.86 50.12,-1.86 50.12,-1.86 51.02,-1.19 51.02,-1.19 51.02,-1.19 51.93,-1.71 51.93,-1.71 51.93,-1.71 52.85,-1.05 52.85,-1.05 52.85,-1.05 53.77,0.13 53.77,0.13 53.77,0.13 54.67,-0.56 54.67,-0.56 54.67,-0.56 55.57,-0.58 55.57,-0.58 55.57,-0.58 56.49,-0.13 56.49,-0.13 56.49,-0.13 57.41,-1.13 57.41,-1.13 57.41,-1.13 58.31,-1.01 58.31,-1.01 58.31,-1.01 59.22,-0.52 59.22,-0.52 59.22,-0.52 60.13,-1.62 60.13,-1.62 60.13,-1.62 61.05,-0.08 61.05,-0.08 61.05,-0.08 61.95,0.69 61.95,0.69 61.95,0.69 62.86,-0.32 62.86,-0.32 62.86,-0.32 63.78,-0.33 63.78,-0.33 63.78,-0.33 64.69,1.37 64.69,1.37 64.69,1.37 65.6,32.17 65.6,32.17 65.6,32.17 66.51,20.4 66.51,20.4 66.51,20.4 67.43,15.91 67.43,15.91 67.43,15.91 68.35,13.73 68.35,13.73 68.35,13.73 69.24,-21.44 69.24,-21.44 69.24,-21.44 70.15,-8.85 70.15,-8.85 70.15,-8.85 71.07,-5.89 71.07,-5.89 71.07,-5.89 71.99,-8.97 71.99,-8.97 71.99,-8.97 72.89,-7.93 72.89,-7.93 72.89,-7.93 73.79,-5.76 73.79,-5.76 73.79,-5.76 " class="primitive"/>
          </g>
          <g transform="translate(36.55,141.95)" id="img-15adc0dd-37" class="color_MWW" stroke="#D4CA3A" stroke-dasharray="none">
            <path fill="none" d="M-73.79,2.43 L-73.79,2.43 -73.79,2.43 -72.89,-1.4 -72.89,-1.4 -72.89,-1.4 -71.99,-0.64 -71.99,-0.64 -71.99,-0.64 -71.07,0.14 -71.07,0.14 -71.07,0.14 -70.15,-1.39 -70.15,-1.39 -70.15,-1.39 -69.25,0.91 -69.25,0.91 -69.25,0.91 -68.34,-2.17 -68.34,-2.17 -68.34,-2.17 -67.43,1.67 -67.43,1.67 -67.43,1.67 -66.51,2.42 -66.51,2.42 -66.51,2.42 -65.6,2.43 -65.6,2.43 -65.6,2.43 -64.69,2.42 -64.69,2.42 -64.69,2.42 -63.77,-2.16 -63.77,-2.16 -63.77,-2.16 -62.86,0.14 -62.86,0.14 -62.86,0.14 -61.96,-7.52 -61.96,-7.52 -61.96,-7.52 -61.05,-4.44 -61.05,-4.44 -61.05,-4.44 -60.13,-2.12 -60.13,-2.12 -60.13,-2.12 -59.21,-4.42 -59.21,-4.42 -59.21,-4.42 -58.32,-2.79 -58.32,-2.79 -58.32,-2.79 -57.41,-5.07 -57.41,-5.07 -57.41,-5.07 -56.49,-7.31 -56.49,-7.31 -56.49,-7.31 -55.57,-4.31 -55.57,-4.31 -55.57,-4.31 -54.67,0.91 -54.67,0.91 -54.67,0.91 -53.77,-0.55 -53.77,-0.55 -53.77,-0.55 -52.85,3.07 -52.85,3.07 -52.85,3.07 -51.93,0.18 -51.93,0.18 -51.93,0.18 -51.02,3.09 -51.02,3.09 -51.02,3.09 -50.11,4.53 -50.11,4.53 -50.11,4.53 -49.2,3.82 -49.2,3.82 -49.2,3.82 -48.28,5.27 -48.28,5.27 -48.28,5.27 -47.38,3.11 -47.38,3.11 -47.38,3.11 -46.47,3.11 -46.47,3.11 -46.47,3.11 -45.55,2.38 -45.55,2.38 -45.55,2.38 -44.64,3.87 -44.64,3.87 -44.64,3.87 -43.74,3.13 -43.74,3.13 -43.74,3.13 -42.83,7.59 -42.83,7.59 -42.83,7.59 -41.91,8.33 -41.91,8.33 -41.91,8.33 -40.99,3.15 -40.99,3.15 -40.99,3.15 -40.1,6.15 -40.1,6.15 -40.1,6.15 -39.19,1.67 -39.19,1.67 -39.19,1.67 -38.27,0.14 -38.27,0.14 -38.27,0.14 -37.35,1.66 -37.35,1.66 -37.35,1.66 -36.44,0.14 -36.44,0.14 -36.44,0.14 -35.54,-0.63 -35.54,-0.63 -35.54,-0.63 -34.62,1.67 -34.62,1.67 -34.62,1.67 -33.7,0.91 -33.7,0.91 -33.7,0.91 -32.8,-2.15 -32.8,-2.15 -32.8,-2.15 -31.89,-2.9 -31.89,-2.9 -31.89,-2.9 -30.98,-4.46 -30.98,-4.46 -30.98,-4.46 -30.06,0.15 -30.06,0.15 -30.06,0.15 -29.16,0.91 -29.16,0.91 -29.16,0.91 -28.25,4.65 -28.25,4.65 -28.25,4.65 -27.33,4.65 -27.33,4.65 -27.33,4.65 -26.42,3.17 -26.42,3.17 -26.42,3.17 -25.52,3.17 -25.52,3.17 -25.52,3.17 -24.61,-1.38 -24.61,-1.38 -24.61,-1.38 -23.69,1.67 -23.69,1.67 -23.69,1.67 -22.77,1.67 -22.77,1.67 -22.77,1.67 -21.87,2.43 -21.87,2.43 -21.87,2.43 -20.96,3.17 -20.96,3.17 -20.96,3.17 -20.04,0.91 -20.04,0.91 -20.04,0.91 -19.12,0.14 -19.12,0.14 -19.12,0.14 -18.22,-0.63 -18.22,-0.63 -18.22,-0.63 -17.32,0.91 -17.32,0.91 -17.32,0.91 -16.4,0.14 -16.4,0.14 -16.4,0.14 -15.48,-3.68 -15.48,-3.68 -15.48,-3.68 -14.58,-2.9 -14.58,-2.9 -14.58,-2.9 -13.67,-4.42 -13.67,-4.42 -13.67,-4.42 -12.76,-9.75 -12.76,-9.75 -12.76,-9.75 -11.84,-2.84 -11.84,-2.84 -11.84,-2.84 -10.94,-6.59 -10.94,-6.59 -10.94,-6.59 -10.03,-5.8 -10.03,-5.8 -10.03,-5.8 -9.11,-4.2 -9.11,-4.2 -9.11,-4.2 -8.2,-6.47 -8.2,-6.47 -8.2,-6.47 -7.29,-2.73 -7.29,-2.73 -7.29,-2.73 -6.38,-2.72 -6.38,-2.72 -6.38,-2.72 -5.46,1.62 -5.46,1.62 -5.46,1.62 -4.54,1.62 -4.54,1.62 -4.54,1.62 -3.65,-0.53 -3.65,-0.53 -3.65,-0.53 -2.74,-1.24 -2.74,-1.24 -2.74,-1.24 -1.82,-3.39 -1.82,-3.39 -1.82,-3.39 -0.9,-4.84 -0.9,-4.84 -0.9,-4.84 -0,-1.23 -0,-1.23 -0,-1.23 0.9,1.61 0.9,1.61 0.9,1.61 1.82,3.72 1.82,3.72 1.82,3.72 2.74,5.11 2.74,5.11 2.74,5.11 3.64,1.61 3.64,1.61 3.64,1.61 4.55,0.91 4.55,0.91 4.55,0.91 5.46,0.19 5.46,0.19 5.46,0.19 6.38,-0.52 6.38,-0.52 6.38,-0.52 7.29,-1.22 7.29,-1.22 7.29,-1.22 8.2,2.32 8.2,2.32 8.2,2.32 9.12,0.91 9.12,0.91 9.12,0.91 10.03,1.61 10.03,1.61 10.03,1.61 10.93,5.81 10.93,5.81 10.93,5.81 11.84,3.76 11.84,3.76 11.84,3.76 12.76,4.45 12.76,4.45 12.76,4.45 13.68,3.75 13.68,3.75 13.68,3.75 14.57,4.48 14.57,4.48 14.57,4.48 15.48,-1.26 15.48,-1.26 15.48,-1.26 16.4,-2.69 16.4,-2.69 16.4,-2.69 17.32,-1.97 17.32,-1.97 17.32,-1.97 18.22,-3.45 18.22,-3.45 18.22,-3.45 19.12,-0.53 19.12,-0.53 19.12,-0.53 20.04,4.45 20.04,4.45 20.04,4.45 20.96,1.62 20.96,1.62 20.96,1.62 21.87,0.91 21.87,0.91 21.87,0.91 22.78,4.46 22.78,4.46 22.78,4.46 23.69,-4.85 23.69,-4.85 23.69,-4.85 24.61,-6.23 24.61,-6.23 24.61,-6.23 25.51,-6.23 25.51,-6.23 25.51,-6.23 26.42,-9.21 26.42,-9.21 26.42,-9.21 27.34,-1.91 27.34,-1.91 27.34,-1.91 28.25,1.6 28.25,1.6 28.25,1.6 29.15,2.98 29.15,2.98 29.15,2.98 30.06,2.98 30.06,2.98 30.06,2.98 30.98,2.99 30.98,2.99 30.98,2.99 31.9,5.08 31.9,5.08 31.9,5.08 32.79,5.1 32.79,5.1 32.79,5.1 33.7,5.1 33.7,5.1 33.7,5.1 34.62,5.11 34.62,5.11 34.62,5.11 35.54,3.03 35.54,3.03 35.54,3.03 36.45,0.19 36.45,0.19 36.45,0.19 37.35,3.04 37.35,3.04 37.35,3.04 38.27,2.33 38.27,2.33 38.27,2.33 39.19,3.76 39.19,3.76 39.19,3.76 40.09,2.32 40.09,2.32 40.09,2.32 41,0.19 41,0.19 41,0.19 41.91,0.19 41.91,0.19 41.91,0.19 42.83,-1.98 42.83,-1.98 42.83,-1.98 43.73,4.47 43.73,4.47 43.73,4.47 44.64,-0.53 44.64,-0.53 44.64,-0.53 45.56,-0.53 45.56,-0.53 45.56,-0.53 46.47,-3.38 46.47,-3.38 46.47,-3.38 47.37,-5.61 47.37,-5.61 47.37,-5.61 48.28,-1.94 48.28,-1.94 48.28,-1.94 49.2,-5.5 49.2,-5.5 49.2,-5.5 50.12,-2.6 50.12,-2.6 50.12,-2.6 51.02,-3.33 51.02,-3.33 51.02,-3.33 51.93,-4.02 51.93,-4.02 51.93,-4.02 52.85,-1.87 52.85,-1.87 52.85,-1.87 53.77,-3.24 53.77,-3.24 53.77,-3.24 54.67,-5.33 54.67,-5.33 54.67,-5.33 55.57,-2.54 55.57,-2.54 55.57,-2.54 56.49,3.65 56.49,3.65 56.49,3.65 57.41,1.58 57.41,1.58 57.41,1.58 58.31,2.93 58.31,2.93 58.31,2.93 59.22,-0.45 59.22,-0.45 59.22,-0.45 60.13,-6.02 60.13,-6.02 60.13,-6.02 61.05,-1.82 61.05,-1.82 61.05,-1.82 61.95,-3.86 61.95,-3.86 61.95,-3.86 62.86,-3.15 62.86,-3.15 62.86,-3.15 63.78,-3.81 63.78,-3.81 63.78,-3.81 64.69,-7.85 64.69,-7.85 64.69,-7.85 65.6,-22.47 65.6,-22.47 65.6,-22.47 66.51,-15.03 66.51,-15.03 66.51,-15.03 67.43,-8.34 67.43,-8.34 67.43,-8.34 68.35,-2.34 68.35,-2.34 68.35,-2.34 69.24,14.29 69.24,14.29 69.24,14.29 70.15,11.49 70.15,11.49 70.15,11.49 71.07,9.81 71.07,9.81 71.07,9.81 71.99,7.96 71.99,7.96 71.99,7.96 72.89,9.28 72.89,9.28 72.89,9.28 73.79,4.81 73.79,4.81 73.79,4.81 " class="primitive"/>
          </g>
          <g transform="translate(36.55,139.56)" id="img-15adc0dd-38" class="color_i" stroke="#FF6DAE" stroke-dasharray="none">
            <path fill="none" d="M-73.79,-11.63 L-73.79,-11.63 -73.79,-11.63 -72.89,-17.2 -72.89,-17.2 -72.89,-17.2 -71.99,-9.79 -71.99,-9.79 -71.99,-9.79 -71.07,-9.25 -71.07,-9.25 -71.07,-9.25 -70.15,-8.56 -70.15,-8.56 -70.15,-8.56 -69.25,-9.73 -69.25,-9.73 -69.25,-9.73 -68.34,-9.41 -68.34,-9.41 -68.34,-9.41 -67.43,-7.86 -67.43,-7.86 -67.43,-7.86 -66.51,-9.58 -66.51,-9.58 -66.51,-9.58 -65.6,-9.54 -65.6,-9.54 -65.6,-9.54 -64.69,-11.68 -64.69,-11.68 -64.69,-11.68 -63.77,-11.85 -63.77,-11.85 -63.77,-11.85 -62.86,-8.24 -62.86,-8.24 -62.86,-8.24 -61.96,-8.04 -61.96,-8.04 -61.96,-8.04 -61.05,-6.93 -61.05,-6.93 -61.05,-6.93 -60.13,-6.87 -60.13,-6.87 -60.13,-6.87 -59.21,-7.94 -59.21,-7.94 -59.21,-7.94 -58.32,-8.32 -58.32,-8.32 -58.32,-8.32 -57.41,-4.56 -57.41,-4.56 -57.41,-4.56 -56.49,-2.98 -56.49,-2.98 -56.49,-2.98 -55.57,-3.13 -55.57,-3.13 -55.57,-3.13 -54.67,-2.66 -54.67,-2.66 -54.67,-2.66 -53.77,-2.46 -53.77,-2.46 -53.77,-2.46 -52.85,-4.28 -52.85,-4.28 -52.85,-4.28 -51.93,-3.1 -51.93,-3.1 -51.93,-3.1 -51.02,-3.75 -51.02,-3.75 -51.02,-3.75 -50.11,-3.97 -50.11,-3.97 -50.11,-3.97 -49.2,-4.22 -49.2,-4.22 -49.2,-4.22 -48.28,-4.78 -48.28,-4.78 -48.28,-4.78 -47.38,-7.08 -47.38,-7.08 -47.38,-7.08 -46.47,-5.95 -46.47,-5.95 -46.47,-5.95 -45.55,-6.04 -45.55,-6.04 -45.55,-6.04 -44.64,-5.97 -44.64,-5.97 -44.64,-5.97 -43.74,-6.71 -43.74,-6.71 -43.74,-6.71 -42.83,-5.51 -42.83,-5.51 -42.83,-5.51 -41.91,-2.07 -41.91,-2.07 -41.91,-2.07 -40.99,-3.5 -40.99,-3.5 -40.99,-3.5 -40.1,-4.3 -40.1,-4.3 -40.1,-4.3 -39.19,-3.24 -39.19,-3.24 -39.19,-3.24 -38.27,-1.38 -38.27,-1.38 -38.27,-1.38 -37.35,-0.16 -37.35,-0.16 -37.35,-0.16 -36.44,-0.29 -36.44,-0.29 -36.44,-0.29 -35.54,0.66 -35.54,0.66 -35.54,0.66 -34.62,1.11 -34.62,1.11 -34.62,1.11 -33.7,1.5 -33.7,1.5 -33.7,1.5 -32.8,1.24 -32.8,1.24 -32.8,1.24 -31.89,1.28 -31.89,1.28 -31.89,1.28 -30.98,1.53 -30.98,1.53 -30.98,1.53 -30.06,1.7 -30.06,1.7 -30.06,1.7 -29.16,0.02 -29.16,0.02 -29.16,0.02 -28.25,-1.09 -28.25,-1.09 -28.25,-1.09 -27.33,-1.56 -27.33,-1.56 -27.33,-1.56 -26.42,-2.08 -26.42,-2.08 -26.42,-2.08 -25.52,-4.02 -25.52,-4.02 -25.52,-4.02 -24.61,-2.41 -24.61,-2.41 -24.61,-2.41 -23.69,-3.01 -23.69,-3.01 -23.69,-3.01 -22.77,-2.41 -22.77,-2.41 -22.77,-2.41 -21.87,-2.5 -21.87,-2.5 -21.87,-2.5 -20.96,-2.93 -20.96,-2.93 -20.96,-2.93 -20.04,-2.26 -20.04,-2.26 -20.04,-2.26 -19.12,-1.91 -19.12,-1.91 -19.12,-1.91 -18.22,-3.05 -18.22,-3.05 -18.22,-3.05 -17.32,-3.42 -17.32,-3.42 -17.32,-3.42 -16.4,-2.55 -16.4,-2.55 -16.4,-2.55 -15.48,-2.99 -15.48,-2.99 -15.48,-2.99 -14.58,-3.22 -14.58,-3.22 -14.58,-3.22 -13.67,-2.17 -13.67,-2.17 -13.67,-2.17 -12.76,-1.89 -12.76,-1.89 -12.76,-1.89 -11.84,-1.74 -11.84,-1.74 -11.84,-1.74 -10.94,-3.17 -10.94,-3.17 -10.94,-3.17 -10.03,-3 -10.03,-3 -10.03,-3 -9.11,-1.7 -9.11,-1.7 -9.11,-1.7 -8.2,-3.04 -8.2,-3.04 -8.2,-3.04 -7.29,-2.81 -7.29,-2.81 -7.29,-2.81 -6.38,-4.35 -6.38,-4.35 -6.38,-4.35 -5.46,-3.18 -5.46,-3.18 -5.46,-3.18 -4.54,-4.34 -4.54,-4.34 -4.54,-4.34 -3.65,-1.25 -3.65,-1.25 -3.65,-1.25 -2.74,0.47 -2.74,0.47 -2.74,0.47 -1.82,1.79 -1.82,1.79 -1.82,1.79 -0.9,1.12 -0.9,1.12 -0.9,1.12 -0,2.43 -0,2.43 -0,2.43 0.9,2.96 0.9,2.96 0.9,2.96 1.82,3.72 1.82,3.72 1.82,3.72 2.74,3.73 2.74,3.73 2.74,3.73 3.64,4.29 3.64,4.29 3.64,4.29 4.55,3.25 4.55,3.25 4.55,3.25 5.46,4.06 5.46,4.06 5.46,4.06 6.38,3.77 6.38,3.77 6.38,3.77 7.29,4.82 7.29,4.82 7.29,4.82 8.2,5.1 8.2,5.1 8.2,5.1 9.12,2.56 9.12,2.56 9.12,2.56 10.03,2.13 10.03,2.13 10.03,2.13 10.93,1.72 10.93,1.72 10.93,1.72 11.84,-0.16 11.84,-0.16 11.84,-0.16 12.76,0.65 12.76,0.65 12.76,0.65 13.68,-2.59 13.68,-2.59 13.68,-2.59 14.57,-2.1 14.57,-2.1 14.57,-2.1 15.48,-2.35 15.48,-2.35 15.48,-2.35 16.4,-4.38 16.4,-4.38 16.4,-4.38 17.32,-2.17 17.32,-2.17 17.32,-2.17 18.22,-0.37 18.22,-0.37 18.22,-0.37 19.12,-1.36 19.12,-1.36 19.12,-1.36 20.04,-1.01 20.04,-1.01 20.04,-1.01 20.96,1.66 20.96,1.66 20.96,1.66 21.87,3.83 21.87,3.83 21.87,3.83 22.78,5.93 22.78,5.93 22.78,5.93 23.69,-1.91 23.69,-1.91 23.69,-1.91 24.61,-2.56 24.61,-2.56 24.61,-2.56 25.51,2.8 25.51,2.8 25.51,2.8 26.42,5.65 26.42,5.65 26.42,5.65 27.34,5.71 27.34,5.71 27.34,5.71 28.25,6.08 28.25,6.08 28.25,6.08 29.15,4.36 29.15,4.36 29.15,4.36 30.06,4.01 30.06,4.01 30.06,4.01 30.98,5.77 30.98,5.77 30.98,5.77 31.9,6.49 31.9,6.49 31.9,6.49 32.79,7.78 32.79,7.78 32.79,7.78 33.7,6.97 33.7,6.97 33.7,6.97 34.62,7.43 34.62,7.43 34.62,7.43 35.54,6.95 35.54,6.95 35.54,6.95 36.45,6.07 36.45,6.07 36.45,6.07 37.35,6.88 37.35,6.88 37.35,6.88 38.27,7.83 38.27,7.83 38.27,7.83 39.19,4.55 39.19,4.55 39.19,4.55 40.09,4.86 40.09,4.86 40.09,4.86 41,5.76 41,5.76 41,5.76 41.91,6.49 41.91,6.49 41.91,6.49 42.83,6.18 42.83,6.18 42.83,6.18 43.73,6.51 43.73,6.51 43.73,6.51 44.64,7.34 44.64,7.34 44.64,7.34 45.56,6.45 45.56,6.45 45.56,6.45 46.47,0.44 46.47,0.44 46.47,0.44 47.37,5.69 47.37,5.69 47.37,5.69 48.28,6.73 48.28,6.73 48.28,6.73 49.2,5.14 49.2,5.14 49.2,5.14 50.12,4 50.12,4 50.12,4 51.02,5.61 51.02,5.61 51.02,5.61 51.93,7.37 51.93,7.37 51.93,7.37 52.85,7.91 52.85,7.91 52.85,7.91 53.77,5.45 53.77,5.45 53.77,5.45 54.67,3.52 54.67,3.52 54.67,3.52 55.57,4.75 55.57,4.75 55.57,4.75 56.49,6.99 56.49,6.99 56.49,6.99 57.41,3.5 57.41,3.5 57.41,3.5 58.31,1.72 58.31,1.72 58.31,1.72 59.22,4.03 59.22,4.03 59.22,4.03 60.13,2.96 60.13,2.96 60.13,2.96 61.05,-2.18 61.05,-2.18 61.05,-2.18 61.95,-2.15 61.95,-2.15 61.95,-2.15 62.86,1.71 62.86,1.71 62.86,1.71 63.78,3.73 63.78,3.73 63.78,3.73 64.69,1.53 64.69,1.53 64.69,1.53 65.6,-2.71 65.6,-2.71 65.6,-2.71 66.51,5.93 66.51,5.93 66.51,5.93 67.43,6.79 67.43,6.79 67.43,6.79 68.35,7.39 68.35,7.39 68.35,7.39 69.24,7.4 69.24,7.4 69.24,7.4 70.15,10.22 70.15,10.22 70.15,10.22 71.07,9.17 71.07,9.17 71.07,9.17 71.99,9.57 71.99,9.57 71.99,9.57 72.89,11.67 72.89,11.67 72.89,11.67 73.79,7.65 73.79,7.65 73.79,7.65 " class="primitive"/>
          </g>
        </g>
      </g>
    </g>
  </g>
  <g class="guide ylabels" font-size="2.82" font-family="'PT Sans Caption','Helvetica Neue','Helvetica',sans-serif" fill="#6C606B" id="img-15adc0dd-39">
    <g transform="translate(18.07,178.71)" id="img-15adc0dd-40">
      <g class="primitive">
        <text text-anchor="end" dy="0.35em">-15</text>
      </g>
    </g>
    <g transform="translate(18.07,166.76)" id="img-15adc0dd-41">
      <g class="primitive">
        <text text-anchor="end" dy="0.35em">-10</text>
      </g>
    </g>
    <g transform="translate(18.07,154.81)" id="img-15adc0dd-42">
      <g class="primitive">
        <text text-anchor="end" dy="0.35em">-5</text>
      </g>
    </g>
    <g transform="translate(18.07,142.86)" id="img-15adc0dd-43">
      <g class="primitive">
        <text text-anchor="end" dy="0.35em">0</text>
      </g>
    </g>
    <g transform="translate(18.07,130.9)" id="img-15adc0dd-44">
      <g class="primitive">
        <text text-anchor="end" dy="0.35em">5</text>
      </g>
    </g>
    <g transform="translate(18.07,118.95)" id="img-15adc0dd-45">
      <g class="primitive">
        <text text-anchor="end" dy="0.35em">10</text>
      </g>
    </g>
    <g transform="translate(18.07,107)" id="img-15adc0dd-46">
      <g class="primitive">
        <text text-anchor="end" dy="0.35em">15</text>
      </g>
    </g>
  </g>
  <g font-size="3.88" font-family="'PT Sans','Helvetica Neue','Helvetica',sans-serif" fill="#564A55" stroke="#000000" stroke-opacity="0.000" id="img-15adc0dd-47">
    <g transform="translate(8.81,140.86)" id="img-15adc0dd-48">
      <g class="primitive">
        <text text-anchor="middle" dy="0.35em" transform="rotate(-90,0, 2)">Percent, Percent Change</text>
      </g>
    </g>
  </g>
</g>
<g class="plotroot xscalable yscalable" id="img-15adc0dd-49">
  <g font-size="3.88" font-family="'PT Sans','Helvetica Neue','Helvetica',sans-serif" fill="#564A55" stroke="#000000" stroke-opacity="0.000" id="img-15adc0dd-50">
    <g transform="translate(96.3,88.39)" id="img-15adc0dd-51">
      <g class="primitive">
        <text text-anchor="middle" dy="0.6em">Year</text>
      </g>
    </g>
  </g>
  <g class="guide xlabels" font-size="2.82" font-family="'PT Sans Caption','Helvetica Neue','Helvetica',sans-serif" fill="#6C606B" id="img-15adc0dd-52">
    <g transform="translate(87.85,69.4)" id="img-15adc0dd-53">
      <g class="primitive">
        <text text-anchor="end" dy="0.35em" transform="rotate(-90,0, 0)">Jan 1, 2000</text>
      </g>
    </g>
    <g transform="translate(91.41,69.4)" id="img-15adc0dd-54">
      <g class="primitive">
        <text text-anchor="end" dy="0.35em" transform="rotate(-90,0, 0)">2004</text>
      </g>
    </g>
    <g transform="translate(94.97,69.4)" id="img-15adc0dd-55">
      <g class="primitive">
        <text text-anchor="end" dy="0.35em" transform="rotate(-90,0, 0)">2008</text>
      </g>
    </g>
    <g transform="translate(98.53,69.4)" id="img-15adc0dd-56">
      <g class="primitive">
        <text text-anchor="end" dy="0.35em" transform="rotate(-90,0, 0)">2012</text>
      </g>
    </g>
    <g transform="translate(102.08,69.4)" id="img-15adc0dd-57">
      <g class="primitive">
        <text text-anchor="end" dy="0.35em" transform="rotate(-90,0, 0)">2016</text>
      </g>
    </g>
    <g transform="translate(105.64,69.4)" id="img-15adc0dd-58">
      <g class="primitive">
        <text text-anchor="end" dy="0.35em" transform="rotate(-90,0, 0)">2020</text>
      </g>
    </g>
  </g>
  <g class="guide colorkey" id="img-15adc0dd-59">
    <g fill="#4C404B" font-size="2.82" font-family="'PT Sans','Helvetica Neue','Helvetica',sans-serif" id="img-15adc0dd-60">
      <g transform="translate(112.35,36.7)" id="img-15adc0dd-61" class="color_MWW">
        <g class="primitive">
          <text dy="0.35em">d/dt MWW</text>
        </g>
      </g>
      <g transform="translate(112.35,40.32)" id="img-15adc0dd-62" class="color_i">
        <g class="primitive">
          <text dy="0.35em">i(t)</text>
        </g>
      </g>
    </g>
    <g fill-opacity="1" id="img-15adc0dd-63">
      <g transform="translate(110.44,36.7)" id="img-15adc0dd-64" class="color_MWW" fill="#00BFFF" stroke="#FFFFFF">
        <path d="M-0.91,-0.91 L0.91,-0.91 0.91,0.91 -0.91,0.91  z" class="primitive"/>
      </g>
      <g transform="translate(110.44,40.32)" id="img-15adc0dd-65" class="color_i" fill="#D4CA3A" stroke="#FFFFFF">
        <path d="M-0.91,-0.91 L0.91,-0.91 0.91,0.91 -0.91,0.91  z" class="primitive"/>
      </g>
    </g>
    <g fill="#362A35" font-size="3.88" font-family="'PT Sans','Helvetica Neue','Helvetica',sans-serif" stroke="#000000" stroke-opacity="0.000" id="img-15adc0dd-66">
      <g transform="translate(109.53,32.88)" id="img-15adc0dd-67">
        <g class="primitive">
          <text dy="-0em">Metric</text>
        </g>
      </g>
    </g>
  </g>
  <g clip-path="url(#img-15adc0dd-68)">
    <g id="img-15adc0dd-69">
      <g pointer-events="visible" stroke-width="0.3" fill="#000000" fill-opacity="0.000" stroke="#000000" stroke-opacity="0.000" class="guide background" id="img-15adc0dd-70">
        <g transform="translate(96.3,36.7)" id="img-15adc0dd-71">
          <path d="M-12.23,-31.7 L12.23,-31.7 12.23,31.7 -12.23,31.7  z" class="primitive"/>
        </g>
      </g>
      <g class="guide xgridlines yfixed" stroke-dasharray="0.5,0.5" stroke-width="0.2" stroke="#D0D0E0" id="img-15adc0dd-72">
        <g transform="translate(87.85,36.7)" id="img-15adc0dd-73">
          <path fill="none" d="M0,-31.7 L0,31.7 " class="primitive"/>
        </g>
        <g transform="translate(91.41,36.7)" id="img-15adc0dd-74">
          <path fill="none" d="M0,-31.7 L0,31.7 " class="primitive"/>
        </g>
        <g transform="translate(94.97,36.7)" id="img-15adc0dd-75">
          <path fill="none" d="M0,-31.7 L0,31.7 " class="primitive"/>
        </g>
        <g transform="translate(98.53,36.7)" id="img-15adc0dd-76">
          <path fill="none" d="M0,-31.7 L0,31.7 " class="primitive"/>
        </g>
        <g transform="translate(102.08,36.7)" id="img-15adc0dd-77">
          <path fill="none" d="M0,-31.7 L0,31.7 " class="primitive"/>
        </g>
        <g transform="translate(105.64,36.7)" id="img-15adc0dd-78">
          <path fill="none" d="M0,-31.7 L0,31.7 " class="primitive"/>
        </g>
      </g>
      <g class="guide ygridlines xfixed" stroke-dasharray="0.5,0.5" stroke-width="0.2" stroke="#D0D0E0" id="img-15adc0dd-79">
        <g transform="translate(96.3,66.4)" id="img-15adc0dd-80">
          <path fill="none" d="M-12.23,0 L12.23,0 " class="primitive"/>
        </g>
        <g transform="translate(96.3,56.5)" id="img-15adc0dd-81">
          <path fill="none" d="M-12.23,0 L12.23,0 " class="primitive"/>
        </g>
        <g transform="translate(96.3,46.6)" id="img-15adc0dd-82">
          <path fill="none" d="M-12.23,0 L12.23,0 " class="primitive"/>
        </g>
        <g transform="translate(96.3,36.7)" id="img-15adc0dd-83">
          <path fill="none" d="M-12.23,0 L12.23,0 " class="primitive"/>
        </g>
        <g transform="translate(96.3,26.8)" id="img-15adc0dd-84">
          <path fill="none" d="M-12.23,0 L12.23,0 " class="primitive"/>
        </g>
        <g transform="translate(96.3,16.9)" id="img-15adc0dd-85">
          <path fill="none" d="M-12.23,0 L12.23,0 " class="primitive"/>
        </g>
        <g transform="translate(96.3,7)" id="img-15adc0dd-86">
          <path fill="none" d="M-12.23,0 L12.23,0 " class="primitive"/>
        </g>
      </g>
      <g class="plotpanel" id="img-15adc0dd-87">
        <metadata>
          <boundingbox value="84.07166666666666mm 5.0mm 24.461666666666666mm 63.395mm"/>
          <unitbox value="1995-10-03 16.010186042596178 10043 days -32.020372085192356"/>
        </metadata>
        <g stroke-width="0.3" fill="#000000" fill-opacity="0.000" class="geometry" id="img-15adc0dd-88">
          <g transform="translate(89.85,35.95)" id="img-15adc0dd-89" class="color_MWW" stroke="#00BFFF" stroke-dasharray="none">
            <path fill="none" d="M-18.01,2.01 L-18.01,2.01 -17.79,-1.16 -17.79,-1.16 -17.57,-0.53 -17.57,-0.53 -17.35,0.12 -17.35,0.12 -17.12,-1.15 -17.12,-1.15 -16.9,0.75 -16.9,0.75 -16.68,-1.8 -16.68,-1.8 -16.46,1.38 -16.46,1.38 -16.23,2.01 -16.23,2.01 -16.01,2.01 -16.01,2.01 -15.79,2.01 -15.79,2.01 -15.57,-1.79 -15.57,-1.79 -15.34,0.12 -15.34,0.12 -15.12,-6.23 -15.12,-6.23 -14.9,-3.68 -14.9,-3.68 -14.68,-1.76 -14.68,-1.76 -14.45,-3.66 -14.45,-3.66 -14.24,-2.31 -14.24,-2.31 -14.01,-4.2 -14.01,-4.2 -13.79,-6.06 -13.79,-6.06 -13.57,-3.57 -13.57,-3.57 -13.35,0.75 -13.35,0.75 -13.12,-0.46 -13.12,-0.46 -12.9,2.54 -12.9,2.54 -12.68,0.15 -12.68,0.15 -12.45,2.56 -12.45,2.56 -12.23,3.75 -12.23,3.75 -12.01,3.16 -12.01,3.16 -11.78,4.36 -11.78,4.36 -11.57,2.58 -11.57,2.58 -11.34,2.58 -11.34,2.58 -11.12,1.97 -11.12,1.97 -10.9,3.2 -10.9,3.2 -10.68,2.59 -10.68,2.59 -10.45,6.28 -10.45,6.28 -10.23,6.9 -10.23,6.9 -10.01,2.61 -10.01,2.61 -9.79,5.09 -9.79,5.09 -9.57,1.38 -9.57,1.38 -9.34,0.12 -9.34,0.12 -9.12,1.38 -9.12,1.38 -8.9,0.12 -8.9,0.12 -8.67,-0.52 -8.67,-0.52 -8.45,1.38 -8.45,1.38 -8.23,0.75 -8.23,0.75 -8.01,-1.78 -8.01,-1.78 -7.79,-2.4 -7.79,-2.4 -7.56,-3.69 -7.56,-3.69 -7.34,0.12 -7.34,0.12 -7.12,0.75 -7.12,0.75 -6.9,3.85 -6.9,3.85 -6.67,3.85 -6.67,3.85 -6.45,2.63 -6.45,2.63 -6.23,2.62 -6.23,2.62 -6.01,-1.14 -6.01,-1.14 -5.78,1.38 -5.78,1.38 -5.56,1.38 -5.56,1.38 -5.34,2.01 -5.34,2.01 -5.12,2.62 -5.12,2.62 -4.89,0.75 -4.89,0.75 -4.67,0.12 -4.67,0.12 -4.45,-0.52 -4.45,-0.52 -4.23,0.75 -4.23,0.75 -4,0.12 -4,0.12 -3.78,-3.05 -3.78,-3.05 -3.56,-2.4 -3.56,-2.4 -3.34,-3.66 -3.34,-3.66 -3.11,-8.08 -3.11,-8.08 -2.89,-2.35 -2.89,-2.35 -2.67,-5.46 -2.67,-5.46 -2.45,-4.8 -2.45,-4.8 -2.22,-3.48 -2.22,-3.48 -2,-5.36 -2,-5.36 -1.78,-2.26 -1.78,-2.26 -1.56,-2.25 -1.56,-2.25 -1.33,1.34 -1.33,1.34 -1.11,1.34 -1.11,1.34 -0.89,-0.44 -0.89,-0.44 -0.67,-1.02 -0.67,-1.02 -0.44,-2.81 -0.44,-2.81 -0.22,-4.01 -0.22,-4.01 -0,-1.02 -0,-1.02 0.22,1.34 0.22,1.34 0.44,3.08 0.44,3.08 0.67,4.23 0.67,4.23 0.89,1.33 0.89,1.33 1.11,0.75 1.11,0.75 1.33,0.16 1.33,0.16 1.56,-0.43 1.56,-0.43 1.78,-1.01 1.78,-1.01 2,1.92 2,1.92 2.23,0.75 2.23,0.75 2.45,1.34 2.45,1.34 2.67,4.81 2.67,4.81 2.89,3.11 2.89,3.11 3.11,3.69 3.11,3.69 3.34,3.11 3.34,3.11 3.56,3.71 3.56,3.71 3.78,-1.04 3.78,-1.04 4,-2.23 4,-2.23 4.23,-1.64 4.23,-1.64 4.45,-2.86 4.45,-2.86 4.67,-0.44 4.67,-0.44 4.89,3.69 4.89,3.69 5.12,1.34 5.12,1.34 5.34,0.75 5.34,0.75 5.56,3.7 5.56,3.7 5.78,-4.02 5.78,-4.02 6.01,-5.16 6.01,-5.16 6.23,-5.16 6.23,-5.16 6.45,-7.62 6.45,-7.62 6.67,-1.58 6.67,-1.58 6.9,1.32 6.9,1.32 7.12,2.47 7.12,2.47 7.34,2.47 7.34,2.47 7.56,2.48 7.56,2.48 7.79,4.2 7.79,4.2 8.01,4.22 8.01,4.22 8.23,4.22 8.23,4.22 8.45,4.23 8.45,4.23 8.67,2.51 8.67,2.51 8.9,0.16 8.9,0.16 9.12,2.52 9.12,2.52 9.34,1.93 9.34,1.93 9.57,3.11 9.57,3.11 9.79,1.92 9.79,1.92 10.01,0.16 10.01,0.16 10.23,0.16 10.23,0.16 10.46,-1.64 10.46,-1.64 10.67,3.7 10.67,3.7 10.9,-0.44 10.9,-0.44 11.12,-0.44 11.12,-0.44 11.34,-2.8 11.34,-2.8 11.56,-4.65 11.56,-4.65 11.79,-1.61 11.79,-1.61 12.01,-4.55 12.01,-4.55 12.23,-2.15 12.23,-2.15 12.46,-2.75 12.46,-2.75 12.68,-3.33 12.68,-3.33 12.9,-1.55 12.9,-1.55 13.12,-2.68 13.12,-2.68 13.34,-4.41 13.34,-4.41 13.57,-2.1 13.57,-2.1 13.79,3.02 13.79,3.02 14.01,1.31 14.01,1.31 14.23,2.43 14.23,2.43 14.45,-0.37 14.45,-0.37 14.68,-4.99 14.68,-4.99 14.9,-1.51 14.9,-1.51 15.12,-3.2 15.12,-3.2 15.34,-2.61 15.34,-2.61 15.57,-3.15 15.57,-3.15 15.79,-6.5 15.79,-6.5 16.01,-18.61 16.01,-18.61 16.24,-12.45 16.24,-12.45 16.46,-6.91 16.46,-6.91 16.68,-1.94 16.68,-1.94 16.9,11.83 16.9,11.83 17.12,9.51 17.12,9.51 17.35,8.12 17.35,8.12 17.57,6.59 17.57,6.59 17.79,7.69 17.79,7.69 18.01,3.99 18.01,3.99 " class="primitive"/>
          </g>
          <g transform="translate(89.85,33.97)" id="img-15adc0dd-90" class="color_i" stroke="#D4CA3A" stroke-dasharray="none">
            <path fill="none" d="M-18.01,-9.63 L-18.01,-9.63 -17.79,-14.24 -17.79,-14.24 -17.57,-8.11 -17.57,-8.11 -17.35,-7.66 -17.35,-7.66 -17.12,-7.09 -17.12,-7.09 -16.9,-8.06 -16.9,-8.06 -16.68,-7.79 -16.68,-7.79 -16.46,-6.51 -16.46,-6.51 -16.23,-7.94 -16.23,-7.94 -16.01,-7.9 -16.01,-7.9 -15.79,-9.68 -15.79,-9.68 -15.57,-9.81 -15.57,-9.81 -15.34,-6.82 -15.34,-6.82 -15.12,-6.66 -15.12,-6.66 -14.9,-5.74 -14.9,-5.74 -14.68,-5.69 -14.68,-5.69 -14.45,-6.57 -14.45,-6.57 -14.24,-6.89 -14.24,-6.89 -14.01,-3.78 -14.01,-3.78 -13.79,-2.47 -13.79,-2.47 -13.57,-2.59 -13.57,-2.59 -13.35,-2.2 -13.35,-2.2 -13.12,-2.04 -13.12,-2.04 -12.9,-3.54 -12.9,-3.54 -12.68,-2.57 -12.68,-2.57 -12.45,-3.11 -12.45,-3.11 -12.23,-3.29 -12.23,-3.29 -12.01,-3.5 -12.01,-3.5 -11.78,-3.96 -11.78,-3.96 -11.57,-5.86 -11.57,-5.86 -11.34,-4.93 -11.34,-4.93 -11.12,-5.01 -11.12,-5.01 -10.9,-4.94 -10.9,-4.94 -10.68,-5.56 -10.68,-5.56 -10.45,-4.56 -10.45,-4.56 -10.23,-1.71 -10.23,-1.71 -10.01,-2.9 -10.01,-2.9 -9.79,-3.56 -9.79,-3.56 -9.57,-2.68 -9.57,-2.68 -9.34,-1.14 -9.34,-1.14 -9.12,-0.13 -9.12,-0.13 -8.9,-0.24 -8.9,-0.24 -8.67,0.55 -8.67,0.55 -8.45,0.92 -8.45,0.92 -8.23,1.24 -8.23,1.24 -8.01,1.03 -8.01,1.03 -7.79,1.06 -7.79,1.06 -7.56,1.27 -7.56,1.27 -7.34,1.41 -7.34,1.41 -7.12,0.02 -7.12,0.02 -6.9,-0.91 -6.9,-0.91 -6.67,-1.29 -6.67,-1.29 -6.45,-1.73 -6.45,-1.73 -6.23,-3.33 -6.23,-3.33 -6.01,-2 -6.01,-2 -5.78,-2.49 -5.78,-2.49 -5.56,-1.99 -5.56,-1.99 -5.34,-2.07 -5.34,-2.07 -5.12,-2.42 -5.12,-2.42 -4.89,-1.87 -4.89,-1.87 -4.67,-1.58 -4.67,-1.58 -4.45,-2.52 -4.45,-2.52 -4.23,-2.83 -4.23,-2.83 -4,-2.11 -4,-2.11 -3.78,-2.48 -3.78,-2.48 -3.56,-2.67 -3.56,-2.67 -3.34,-1.79 -3.34,-1.79 -3.11,-1.56 -3.11,-1.56 -2.89,-1.44 -2.89,-1.44 -2.67,-2.63 -2.67,-2.63 -2.45,-2.48 -2.45,-2.48 -2.22,-1.41 -2.22,-1.41 -2,-2.52 -2,-2.52 -1.78,-2.33 -1.78,-2.33 -1.56,-3.6 -1.56,-3.6 -1.33,-2.63 -1.33,-2.63 -1.11,-3.59 -1.11,-3.59 -0.89,-1.04 -0.89,-1.04 -0.67,0.39 -0.67,0.39 -0.44,1.49 -0.44,1.49 -0.22,0.93 -0.22,0.93 -0,2.01 -0,2.01 0.22,2.45 0.22,2.45 0.44,3.08 0.44,3.08 0.67,3.09 0.67,3.09 0.89,3.55 0.89,3.55 1.11,2.69 1.11,2.69 1.33,3.36 1.33,3.36 1.56,3.13 1.56,3.13 1.78,3.99 1.78,3.99 2,4.23 2,4.23 2.23,2.12 2.23,2.12 2.45,1.77 2.45,1.77 2.67,1.42 2.67,1.42 2.89,-0.13 2.89,-0.13 3.11,0.54 3.11,0.54 3.34,-2.15 3.34,-2.15 3.56,-1.74 3.56,-1.74 3.78,-1.95 3.78,-1.95 4,-3.63 4,-3.63 4.23,-1.8 4.23,-1.8 4.45,-0.31 4.45,-0.31 4.67,-1.13 4.67,-1.13 4.89,-0.83 4.89,-0.83 5.12,1.37 5.12,1.37 5.34,3.17 5.34,3.17 5.56,4.91 5.56,4.91 5.78,-1.58 5.78,-1.58 6.01,-2.12 6.01,-2.12 6.23,2.31 6.23,2.31 6.45,4.68 6.45,4.68 6.67,4.73 6.67,4.73 6.9,5.04 6.9,5.04 7.12,3.61 7.12,3.61 7.34,3.32 7.34,3.32 7.56,4.78 7.56,4.78 7.79,5.38 7.79,5.38 8.01,6.45 8.01,6.45 8.23,5.77 8.23,5.77 8.45,6.15 8.45,6.15 8.67,5.75 8.67,5.75 8.9,5.03 8.9,5.03 9.12,5.7 9.12,5.7 9.34,6.48 9.34,6.48 9.57,3.77 9.57,3.77 9.79,4.03 9.79,4.03 10.01,4.77 10.01,4.77 10.23,5.37 10.23,5.37 10.46,5.12 10.46,5.12 10.67,5.39 10.67,5.39 10.9,6.08 10.9,6.08 11.12,5.34 11.12,5.34 11.34,0.36 11.34,0.36 11.56,4.71 11.56,4.71 11.79,5.57 11.79,5.57 12.01,4.26 12.01,4.26 12.23,3.31 12.23,3.31 12.46,4.65 12.46,4.65 12.68,6.11 12.68,6.11 12.9,6.55 12.9,6.55 13.12,4.52 13.12,4.52 13.34,2.92 13.34,2.92 13.57,3.94 13.57,3.94 13.79,5.79 13.79,5.79 14.01,2.9 14.01,2.9 14.23,1.43 14.23,1.43 14.45,3.34 14.45,3.34 14.68,2.45 14.68,2.45 14.9,-1.8 14.9,-1.8 15.12,-1.78 15.12,-1.78 15.34,1.42 15.34,1.42 15.57,3.09 15.57,3.09 15.79,1.27 15.79,1.27 16.01,-2.25 16.01,-2.25 16.24,4.91 16.24,4.91 16.46,5.62 16.46,5.62 16.68,6.12 16.68,6.12 16.9,6.13 16.9,6.13 17.12,8.47 17.12,8.47 17.35,7.59 17.35,7.59 17.57,7.93 17.57,7.93 17.79,9.66 17.79,9.66 18.01,6.33 18.01,6.33 " class="primitive"/>
          </g>
        </g>
      </g>
    </g>
  </g>
  <g class="guide ylabels" font-size="2.82" font-family="'PT Sans Caption','Helvetica Neue','Helvetica',sans-serif" fill="#6C606B" id="img-15adc0dd-91">
    <g transform="translate(83.07,66.4)" id="img-15adc0dd-92">
      <g class="primitive">
        <text text-anchor="end" dy="0.35em">-15</text>
      </g>
    </g>
    <g transform="translate(83.07,56.5)" id="img-15adc0dd-93">
      <g class="primitive">
        <text text-anchor="end" dy="0.35em">-10</text>
      </g>
    </g>
    <g transform="translate(83.07,46.6)" id="img-15adc0dd-94">
      <g class="primitive">
        <text text-anchor="end" dy="0.35em">-5</text>
      </g>
    </g>
    <g transform="translate(83.07,36.7)" id="img-15adc0dd-95">
      <g class="primitive">
        <text text-anchor="end" dy="0.35em">0</text>
      </g>
    </g>
    <g transform="translate(83.07,26.8)" id="img-15adc0dd-96">
      <g class="primitive">
        <text text-anchor="end" dy="0.35em">5</text>
      </g>
    </g>
    <g transform="translate(83.07,16.9)" id="img-15adc0dd-97">
      <g class="primitive">
        <text text-anchor="end" dy="0.35em">10</text>
      </g>
    </g>
    <g transform="translate(83.07,7)" id="img-15adc0dd-98">
      <g class="primitive">
        <text text-anchor="end" dy="0.35em">15</text>
      </g>
    </g>
  </g>
  <g font-size="3.88" font-family="'PT Sans','Helvetica Neue','Helvetica',sans-serif" fill="#564A55" stroke="#000000" stroke-opacity="0.000" id="img-15adc0dd-99">
    <g transform="translate(73.81,34.7)" id="img-15adc0dd-100">
      <g class="primitive">
        <text text-anchor="middle" dy="0.35em" transform="rotate(-90,0, 2)">Percent, Percent Change</text>
      </g>
    </g>
  </g>
</g>
<g class="plotroot xscalable yscalable" id="img-15adc0dd-101">
  <g font-size="3.88" font-family="'PT Sans','Helvetica Neue','Helvetica',sans-serif" fill="#564A55" stroke="#000000" stroke-opacity="0.000" id="img-15adc0dd-102">
    <g transform="translate(33.39,88.39)" id="img-15adc0dd-103">
      <g class="primitive">
        <text text-anchor="middle" dy="0.6em">Year</text>
      </g>
    </g>
  </g>
  <g class="guide xlabels" font-size="2.82" font-family="'PT Sans Caption','Helvetica Neue','Helvetica',sans-serif" fill="#6C606B" id="img-15adc0dd-104">
    <g transform="translate(23.21,69.4)" id="img-15adc0dd-105">
      <g class="primitive">
        <text text-anchor="end" dy="0.35em" transform="rotate(-90,0, 0)">Jan 1, 2000</text>
      </g>
    </g>
    <g transform="translate(27.5,69.4)" id="img-15adc0dd-106">
      <g class="primitive">
        <text text-anchor="end" dy="0.35em" transform="rotate(-90,0, 0)">2004</text>
      </g>
    </g>
    <g transform="translate(31.78,69.4)" id="img-15adc0dd-107">
      <g class="primitive">
        <text text-anchor="end" dy="0.35em" transform="rotate(-90,0, 0)">2008</text>
      </g>
    </g>
    <g transform="translate(36.06,69.4)" id="img-15adc0dd-108">
      <g class="primitive">
        <text text-anchor="end" dy="0.35em" transform="rotate(-90,0, 0)">2012</text>
      </g>
    </g>
    <g transform="translate(40.35,69.4)" id="img-15adc0dd-109">
      <g class="primitive">
        <text text-anchor="end" dy="0.35em" transform="rotate(-90,0, 0)">2016</text>
      </g>
    </g>
    <g transform="translate(44.63,69.4)" id="img-15adc0dd-110">
      <g class="primitive">
        <text text-anchor="end" dy="0.35em" transform="rotate(-90,0, 0)">2020</text>
      </g>
    </g>
  </g>
  <g class="guide colorkey" id="img-15adc0dd-111">
    <g fill="#4C404B" font-size="2.82" font-family="'PT Sans','Helvetica Neue','Helvetica',sans-serif" id="img-15adc0dd-112">
      <g transform="translate(51.52,36.7)" id="img-15adc0dd-113" class="color_Nl">
        <g class="primitive">
          <text dy="0.35em">d/dt Nl</text>
        </g>
      </g>
      <g transform="translate(51.52,40.32)" id="img-15adc0dd-114" class="color_i">
        <g class="primitive">
          <text dy="0.35em">i(t)</text>
        </g>
      </g>
    </g>
    <g fill-opacity="1" id="img-15adc0dd-115">
      <g transform="translate(49.61,36.7)" id="img-15adc0dd-116" class="color_Nl" fill="#00BFFF" stroke="#FFFFFF">
        <path d="M-0.91,-0.91 L0.91,-0.91 0.91,0.91 -0.91,0.91  z" class="primitive"/>
      </g>
      <g transform="translate(49.61,40.32)" id="img-15adc0dd-117" class="color_i" fill="#D4CA3A" stroke="#FFFFFF">
        <path d="M-0.91,-0.91 L0.91,-0.91 0.91,0.91 -0.91,0.91  z" class="primitive"/>
      </g>
    </g>
    <g fill="#362A35" font-size="3.88" font-family="'PT Sans','Helvetica Neue','Helvetica',sans-serif" stroke="#000000" stroke-opacity="0.000" id="img-15adc0dd-118">
      <g transform="translate(48.71,32.88)" id="img-15adc0dd-119">
        <g class="primitive">
          <text dy="-0em">Metric</text>
        </g>
      </g>
    </g>
  </g>
  <g clip-path="url(#img-15adc0dd-120)">
    <g id="img-15adc0dd-121">
      <g pointer-events="visible" stroke-width="0.3" fill="#000000" fill-opacity="0.000" stroke="#000000" stroke-opacity="0.000" class="guide background" id="img-15adc0dd-122">
        <g transform="translate(33.39,36.7)" id="img-15adc0dd-123">
          <path d="M-14.32,-31.7 L14.32,-31.7 14.32,31.7 -14.32,31.7  z" class="primitive"/>
        </g>
      </g>
      <g class="guide xgridlines yfixed" stroke-dasharray="0.5,0.5" stroke-width="0.2" stroke="#D0D0E0" id="img-15adc0dd-124">
        <g transform="translate(23.21,36.7)" id="img-15adc0dd-125">
          <path fill="none" d="M0,-31.7 L0,31.7 " class="primitive"/>
        </g>
        <g transform="translate(27.5,36.7)" id="img-15adc0dd-126">
          <path fill="none" d="M0,-31.7 L0,31.7 " class="primitive"/>
        </g>
        <g transform="translate(31.78,36.7)" id="img-15adc0dd-127">
          <path fill="none" d="M0,-31.7 L0,31.7 " class="primitive"/>
        </g>
        <g transform="translate(36.06,36.7)" id="img-15adc0dd-128">
          <path fill="none" d="M0,-31.7 L0,31.7 " class="primitive"/>
        </g>
        <g transform="translate(40.35,36.7)" id="img-15adc0dd-129">
          <path fill="none" d="M0,-31.7 L0,31.7 " class="primitive"/>
        </g>
        <g transform="translate(44.63,36.7)" id="img-15adc0dd-130">
          <path fill="none" d="M0,-31.7 L0,31.7 " class="primitive"/>
        </g>
      </g>
      <g class="guide ygridlines xfixed" stroke-dasharray="0.5,0.5" stroke-width="0.2" stroke="#D0D0E0" id="img-15adc0dd-131">
        <g transform="translate(33.39,66.4)" id="img-15adc0dd-132">
          <path fill="none" d="M-14.32,0 L14.32,0 " class="primitive"/>
        </g>
        <g transform="translate(33.39,56.5)" id="img-15adc0dd-133">
          <path fill="none" d="M-14.32,0 L14.32,0 " class="primitive"/>
        </g>
        <g transform="translate(33.39,46.6)" id="img-15adc0dd-134">
          <path fill="none" d="M-14.32,0 L14.32,0 " class="primitive"/>
        </g>
        <g transform="translate(33.39,36.7)" id="img-15adc0dd-135">
          <path fill="none" d="M-14.32,0 L14.32,0 " class="primitive"/>
        </g>
        <g transform="translate(33.39,26.8)" id="img-15adc0dd-136">
          <path fill="none" d="M-14.32,0 L14.32,0 " class="primitive"/>
        </g>
        <g transform="translate(33.39,16.9)" id="img-15adc0dd-137">
          <path fill="none" d="M-14.32,0 L14.32,0 " class="primitive"/>
        </g>
        <g transform="translate(33.39,7)" id="img-15adc0dd-138">
          <path fill="none" d="M-14.32,0 L14.32,0 " class="primitive"/>
        </g>
      </g>
      <g class="plotpanel" id="img-15adc0dd-139">
        <metadata>
          <boundingbox value="19.071666666666665mm 5.0mm 28.634999999999998mm 63.395mm"/>
          <unitbox value="1996-02-19 16.010186042596178 9765 days -32.020372085192356"/>
        </metadata>
        <g stroke-width="0.3" fill="#000000" fill-opacity="0.000" class="geometry" id="img-15adc0dd-140">
          <g transform="translate(25.8,34.44)" id="img-15adc0dd-141" class="color_Nl" stroke="#00BFFF" stroke-dasharray="none">
            <path fill="none" d="M-21.87,2.78 L-21.87,2.78 -21.77,3.1 -21.77,3.1 -21.69,4.03 -21.69,4.03 -21.6,5.16 -21.6,5.16 -21.51,4.08 -21.51,4.08 -21.42,3.75 -21.42,3.75 -21.33,4.62 -21.33,4.62 -21.24,4.33 -21.24,4.33 -21.15,3.37 -21.15,3.37 -21.06,4.55 -21.06,4.55 -20.97,4.42 -20.97,4.42 -20.89,3.48 -20.89,3.48 -20.79,3.31 -20.79,3.31 -20.7,3.59 -20.7,3.59 -20.62,3.24 -20.62,3.24 -20.53,2.29 -20.53,2.29 -20.44,3.19 -20.44,3.19 -20.35,0.09 -20.35,0.09 -20.26,-1.16 -20.26,-1.16 -20.17,-1.67 -20.17,-1.67 -20.08,-2.74 -20.08,-2.74 -19.99,-3.38 -19.99,-3.38 -19.9,-4.97 -19.9,-4.97 -19.82,-5.67 -19.82,-5.67 -19.72,-5.81 -19.72,-5.81 -19.63,-7.2 -19.63,-7.2 -19.55,-7.3 -19.55,-7.3 -19.46,-7.24 -19.46,-7.24 -19.37,-8.77 -19.37,-8.77 -19.28,-7.5 -19.28,-7.5 -19.19,-6.01 -19.19,-6.01 -19.1,-4.67 -19.1,-4.67 -19.01,-4.48 -19.01,-4.48 -18.92,-4.73 -18.92,-4.73 -18.83,-3.99 -18.83,-3.99 -18.74,-3.95 -18.74,-3.95 -18.65,-3.69 -18.65,-3.69 -18.56,-2.95 -18.56,-2.95 -18.48,-3.5 -18.48,-3.5 -18.39,-2.68 -18.39,-2.68 -18.3,-1.02 -18.3,-1.02 -18.21,0.54 -18.21,0.54 -18.12,-0.32 -18.12,-0.32 -18.03,-1.38 -18.03,-1.38 -17.94,-1.81 -17.94,-1.81 -17.85,-1.88 -17.85,-1.88 -17.76,-1.54 -17.76,-1.54 -17.67,-1.46 -17.67,-1.46 -17.58,-2.56 -17.58,-2.56 -17.49,-1.32 -17.49,-1.32 -17.41,-1.16 -17.41,-1.16 -17.32,-1.48 -17.32,-1.48 -17.23,-1.74 -17.23,-1.74 -17.14,-3.45 -17.14,-3.45 -17.05,-3.31 -17.05,-3.31 -16.96,-3.14 -16.96,-3.14 -16.87,-2.21 -16.87,-2.21 -16.78,-2.2 -16.78,-2.2 -16.69,-2.27 -16.69,-2.27 -16.6,-2.34 -16.6,-2.34 -16.51,-1.5 -16.51,-1.5 -16.42,-2.81 -16.42,-2.81 -16.34,-2.42 -16.34,-2.42 -16.25,-2.91 -16.25,-2.91 -16.16,-3.81 -16.16,-3.81 -16.07,-2.57 -16.07,-2.57 -15.98,-2.83 -15.98,-2.83 -15.89,-3.22 -15.89,-3.22 -15.8,-2.82 -15.8,-2.82 -15.71,-3.15 -15.71,-3.15 -15.62,-3.17 -15.62,-3.17 -15.53,-3.22 -15.53,-3.22 -15.44,-3.21 -15.44,-3.21 -15.35,-3.03 -15.35,-3.03 -15.26,-2.41 -15.26,-2.41 -15.17,-2.8 -15.17,-2.8 -15.09,-1.01 -15.09,-1.01 -14.99,-2.47 -14.99,-2.47 -14.91,-2.01 -14.91,-2.01 -14.82,-1.64 -14.82,-1.64 -14.72,-2.03 -14.72,-2.03 -14.64,-1.86 -14.64,-1.86 -14.55,-2.27 -14.55,-2.27 -14.46,-1.76 -14.46,-1.76 -14.37,-2.42 -14.37,-2.42 -14.28,-2.16 -14.28,-2.16 -14.19,-2.93 -14.19,-2.93 -14.1,-1.97 -14.1,-1.97 -14.02,-2.61 -14.02,-2.61 -13.92,-2.03 -13.92,-2.03 -13.84,-1.89 -13.84,-1.89 -13.75,-1.82 -13.75,-1.82 -13.65,-1.17 -13.65,-1.17 -13.57,-1.07 -13.57,-1.07 -13.48,-0.83 -13.48,-0.83 -13.39,-0.69 -13.39,-0.69 -13.3,-1.77 -13.3,-1.77 -13.21,-1.61 -13.21,-1.61 -13.12,-1.43 -13.12,-1.43 -13.03,-0.71 -13.03,-0.71 -12.94,-1.21 -12.94,-1.21 -12.85,-0.38 -12.85,-0.38 -12.77,0 -12.77,0 -12.67,0.33 -12.67,0.33 -12.58,0.28 -12.58,0.28 -12.5,0.65 -12.5,0.65 -12.41,1.6 -12.41,1.6 -12.32,1.57 -12.32,1.57 -12.23,4.15 -12.23,4.15 -12.14,4.43 -12.14,4.43 -12.05,4.83 -12.05,4.83 -11.96,3.49 -11.96,3.49 -11.87,5.1 -11.87,5.1 -11.78,4.49 -11.78,4.49 -11.7,4.33 -11.7,4.33 -11.6,4.45 -11.6,4.45 -11.51,3.25 -11.51,3.25 -11.43,3.49 -11.43,3.49 -11.33,3.15 -11.33,3.15 -11.25,3.55 -11.25,3.55 -11.16,2.19 -11.16,2.19 -11.07,2.26 -11.07,2.26 -10.98,1.43 -10.98,1.43 -10.89,1.73 -10.89,1.73 -10.8,0.68 -10.8,0.68 -10.71,0.94 -10.71,0.94 -10.62,0.33 -10.62,0.33 -10.53,-0 -10.53,-0 -10.44,0.93 -10.44,0.93 -10.35,0.87 -10.35,0.87 -10.26,0.4 -10.26,0.4 -10.17,-0.32 -10.17,-0.32 -10.08,0.42 -10.08,0.42 -9.99,-0.3 -9.99,-0.3 -9.91,-0.09 -9.91,-0.09 -9.82,0.51 -9.82,0.51 -9.73,-0.65 -9.73,-0.65 -9.64,-0.87 -9.64,-0.87 -9.55,-0.67 -9.55,-0.67 -9.46,-1.13 -9.46,-1.13 -9.37,-0.8 -9.37,-0.8 -9.28,-1.41 -9.28,-1.41 -9.19,-1.56 -9.19,-1.56 -9.1,-1.85 -9.1,-1.85 -9.01,-2.55 -9.01,-2.55 -8.92,-2.41 -8.92,-2.41 -8.84,-1.7 -8.84,-1.7 -8.75,-2.41 -8.75,-2.41 -8.66,-2.27 -8.66,-2.27 -8.57,-1.6 -8.57,-1.6 -8.48,-1.42 -8.48,-1.42 -8.39,-1.82 -8.39,-1.82 -8.3,-2.89 -8.3,-2.89 -8.21,-3.13 -8.21,-3.13 -8.12,-3.21 -8.12,-3.21 -8.03,-3.05 -8.03,-3.05 -7.94,-2.12 -7.94,-2.12 -7.85,-2.35 -7.85,-2.35 -7.77,-2.65 -7.77,-2.65 -7.68,-2.04 -7.68,-2.04 -7.59,-0.25 -7.59,-0.25 -7.5,-0.79 -7.5,-0.79 -7.41,-1.15 -7.41,-1.15 -7.32,-0.17 -7.32,-0.17 -7.23,-0.06 -7.23,-0.06 -7.14,0.22 -7.14,0.22 -7.05,1.19 -7.05,1.19 -6.96,1.67 -6.96,1.67 -6.87,1.52 -6.87,1.52 -6.78,1.13 -6.78,1.13 -6.7,0.82 -6.7,0.82 -6.6,0.59 -6.6,0.59 -6.52,-0.64 -6.52,-0.64 -6.43,-1.05 -6.43,-1.05 -6.34,-1.12 -6.34,-1.12 -6.25,-1.42 -6.25,-1.42 -6.16,-1.54 -6.16,-1.54 -6.07,-1.69 -6.07,-1.69 -5.98,-1.83 -5.98,-1.83 -5.89,-2.13 -5.89,-2.13 -5.8,-2.76 -5.8,-2.76 -5.71,-1.93 -5.71,-1.93 -5.63,-2.51 -5.63,-2.51 -5.53,-2.69 -5.53,-2.69 -5.45,-2.79 -5.45,-2.79 -5.36,-2.14 -5.36,-2.14 -5.27,-2.23 -5.27,-2.23 -5.18,-2.16 -5.18,-2.16 -5.09,-1.6 -5.09,-1.6 -5,-1.29 -5,-1.29 -4.91,-2.21 -4.91,-2.21 -4.82,-2.11 -4.82,-2.11 -4.73,-1.49 -4.73,-1.49 -4.64,-1.61 -4.64,-1.61 -4.56,-0.7 -4.56,-0.7 -4.46,-0.91 -4.46,-0.91 -4.38,-0.59 -4.38,-0.59 -4.29,-0.55 -4.29,-0.55 -4.2,-0.04 -4.2,-0.04 -4.11,0.16 -4.11,0.16 -4.02,-0.74 -4.02,-0.74 -3.93,-0.51 -3.93,-0.51 -3.84,-0.21 -3.84,-0.21 -3.75,-0.66 -3.75,-0.66 -3.66,-1.23 -3.66,-1.23 -3.57,-0.84 -3.57,-0.84 -3.48,-0.97 -3.48,-0.97 -3.39,-0.38 -3.39,-0.38 -3.31,-0.74 -3.31,-0.74 -3.21,-0.96 -3.21,-0.96 -3.13,-0.89 -3.13,-0.89 -3.04,-1.06 -3.04,-1.06 -2.95,-0.32 -2.95,-0.32 -2.86,-0.73 -2.86,-0.73 -2.77,-0.78 -2.77,-0.78 -2.68,-0.61 -2.68,-0.61 -2.59,-3 -2.59,-3 -2.5,-3.32 -2.5,-3.32 -2.41,-3.33 -2.41,-3.33 -2.32,-4.17 -2.32,-4.17 -2.23,-2.67 -2.23,-2.67 -2.14,-3.03 -2.14,-3.03 -2.05,-2.37 -2.05,-2.37 -1.96,-2.29 -1.96,-2.29 -1.87,-2.46 -1.87,-2.46 -1.78,-2.32 -1.78,-2.32 -1.69,-2.18 -1.69,-2.18 -1.61,-2.29 -1.61,-2.29 -1.51,0.49 -1.51,0.49 -1.42,0.79 -1.42,0.79 -1.34,0.69 -1.34,0.69 -1.25,2.22 -1.25,2.22 -1.16,1.59 -1.16,1.59 -1.07,2.35 -1.07,2.35 -0.98,1.47 -0.98,1.47 -0.89,2.87 -0.89,2.87 -0.8,2.33 -0.8,2.33 -0.71,3.26 -0.71,3.26 -0.62,3.82 -0.62,3.82 -0.53,4.51 -0.53,4.51 -0.44,5.24 -0.44,5.24 -0.35,3.95 -0.35,3.95 -0.27,4.56 -0.27,4.56 -0.18,3.95 -0.18,3.95 -0.09,3.06 -0.09,3.06 -0,2.92 -0,2.92 0.09,3.21 0.09,3.21 0.18,1.58 0.18,1.58 0.27,1.6 0.27,1.6 0.36,1.36 0.36,1.36 0.45,1.85 0.45,1.85 0.54,1.71 0.54,1.71 0.63,-0.25 0.63,-0.25 0.72,0.74 0.72,0.74 0.8,0.43 0.8,0.43 0.89,0.07 0.89,0.07 0.98,0.8 0.98,0.8 1.07,0.26 1.07,0.26 1.16,0.72 1.16,0.72 1.25,1.03 1.25,1.03 1.34,1.81 1.34,1.81 1.43,0.85 1.43,0.85 1.52,-0.5 1.52,-0.5 1.61,-0.62 1.61,-0.62 1.7,0.74 1.7,0.74 1.79,0.73 1.79,0.73 1.87,0.79 1.87,0.79 1.96,0.75 1.96,0.75 2.05,0.37 2.05,0.37 2.14,0.27 2.14,0.27 2.23,-0.74 2.23,-0.74 2.32,-0.66 2.32,-0.66 2.41,-0.44 2.41,-0.44 2.5,-0.25 2.5,-0.25 2.59,-0.33 2.59,-0.33 2.68,-0.19 2.68,-0.19 2.77,-0.28 2.77,-0.28 2.86,-0.38 2.86,-0.38 2.94,-0.89 2.94,-0.89 3.03,-1.42 3.03,-1.42 3.12,-1.67 3.12,-1.67 3.21,-1.36 3.21,-1.36 3.3,-1.25 3.3,-1.25 3.39,-1.8 3.39,-1.8 3.48,-1.88 3.48,-1.88 3.57,-1.73 3.57,-1.73 3.66,-0.94 3.66,-0.94 3.75,-1.45 3.75,-1.45 3.84,-1.84 3.84,-1.84 3.93,-2.08 3.93,-2.08 4.01,-2.09 4.01,-2.09 4.1,-1.26 4.1,-1.26 4.19,-1.21 4.19,-1.21 4.28,-1.43 4.28,-1.43 4.37,-0.78 4.37,-0.78 4.46,-0.79 4.46,-0.79 4.55,-1.1 4.55,-1.1 4.64,-1.58 4.64,-1.58 4.73,-1.96 4.73,-1.96 4.82,-2.21 4.82,-2.21 4.91,-1.72 4.91,-1.72 5,-1.33 5,-1.33 5.08,-1.3 5.08,-1.3 5.17,-0.26 5.17,-0.26 5.26,-0.24 5.26,-0.24 5.35,-0.09 5.35,-0.09 5.44,-0.08 5.44,-0.08 5.53,0.81 5.53,0.81 5.62,0.3 5.62,0.3 5.71,1.4 5.71,1.4 5.8,0.81 5.8,0.81 5.89,1.85 5.89,1.85 5.98,1.78 5.98,1.78 6.07,2.12 6.07,2.12 6.16,2.57 6.16,2.57 6.25,1.51 6.25,1.51 6.34,2.25 6.34,2.25 6.43,2.7 6.43,2.7 6.51,2.76 6.51,2.76 6.61,2.91 6.61,2.91 6.7,3.84 6.7,3.84 6.78,3.81 6.78,3.81 6.88,5.63 6.88,5.63 6.96,6.19 6.96,6.19 7.05,7.97 7.05,7.97 7.15,8.37 7.15,8.37 7.23,9.55 7.23,9.55 7.32,9.68 7.32,9.68 7.41,9.94 7.41,9.94 7.5,10.04 7.5,10.04 7.59,9.92 7.59,9.92 7.68,10.04 7.68,10.04 7.77,10.8 7.77,10.8 7.85,10.97 7.85,10.97 7.95,9.73 7.95,9.73 8.03,9.65 8.03,9.65 8.12,7.43 8.12,7.43 8.22,6.53 8.22,6.53 8.3,5.01 8.3,5.01 8.39,4.17 8.39,4.17 8.48,3.68 8.48,3.68 8.57,3.48 8.57,3.48 8.66,3.28 8.66,3.28 8.75,2.33 8.75,2.33 8.84,1.43 8.84,1.43 8.93,1.27 8.93,1.27 9.02,1.71 9.02,1.71 9.1,0.41 9.1,0.41 9.19,1.1 9.19,1.1 9.29,1.1 9.29,1.1 9.37,0.99 9.37,0.99 9.46,1.85 9.46,1.85 9.55,1.71 9.55,1.71 9.64,1.91 9.64,1.91 9.73,1.77 9.73,1.77 9.82,1.54 9.82,1.54 9.91,1.14 9.91,1.14 10,0.48 10,0.48 10.09,-0.28 10.09,-0.28 10.17,-0.02 10.17,-0.02 10.27,-1.06 10.27,-1.06 10.36,-1.24 10.36,-1.24 10.44,-1.14 10.44,-1.14 10.53,-1.02 10.53,-1.02 10.62,-1.4 10.62,-1.4 10.71,-2.01 10.71,-2.01 10.8,-1.67 10.8,-1.67 10.89,-1.07 10.89,-1.07 10.98,-1.78 10.98,-1.78 11.07,-2.06 11.07,-2.06 11.16,-1.27 11.16,-1.27 11.25,-1.15 11.25,-1.15 11.34,-0.13 11.34,-0.13 11.43,0.16 11.43,0.16 11.51,0.47 11.51,0.47 11.6,-0.17 11.6,-0.17 11.69,-0.08 11.69,-0.08 11.78,0.02 11.78,0.02 11.87,-0.49 11.87,-0.49 11.96,-0.57 11.96,-0.57 12.05,0.36 12.05,0.36 12.14,2.11 12.14,2.11 12.23,0.67 12.23,0.67 12.32,0.26 12.32,0.26 12.41,-0.31 12.41,-0.31 12.5,-0.19 12.5,-0.19 12.58,-0.96 12.58,-0.96 12.67,-0.54 12.67,-0.54 12.76,-0.42 12.76,-0.42 12.85,-0.83 12.85,-0.83 12.94,-0.67 12.94,-0.67 13.03,-0.77 13.03,-0.77 13.12,-0.98 13.12,-0.98 13.21,-3.11 13.21,-3.11 13.3,-1.75 13.3,-1.75 13.39,-1.62 13.39,-1.62 13.48,-1.83 13.48,-1.83 13.57,-1.71 13.57,-1.71 13.65,-1.11 13.65,-1.11 13.74,-1.61 13.74,-1.61 13.83,-1.81 13.83,-1.81 13.92,-1.22 13.92,-1.22 14.01,-1.03 14.01,-1.03 14.1,-1.32 14.1,-1.32 14.19,-0.51 14.19,-0.51 14.28,-0.19 14.28,-0.19 14.37,-0.51 14.37,-0.51 14.46,-1.11 14.46,-1.11 14.55,-1.09 14.55,-1.09 14.64,-1.61 14.64,-1.61 14.73,-1.87 14.73,-1.87 14.82,-1.16 14.82,-1.16 14.9,-0.82 14.9,-0.82 15,-0.95 15,-0.95 15.08,-1.37 15.08,-1.37 15.17,-1.19 15.17,-1.19 15.27,-1.65 15.27,-1.65 15.35,-1.12 15.35,-1.12 15.44,-1.04 15.44,-1.04 15.53,-0.42 15.53,-0.42 15.62,0.29 15.62,0.29 15.71,0.24 15.71,0.24 15.8,-0.16 15.8,-0.16 15.89,-0.6 15.89,-0.6 15.97,-0.28 15.97,-0.28 16.07,-0.49 16.07,-0.49 16.15,-0.38 16.15,-0.38 16.24,0.01 16.24,0.01 16.34,-1.04 16.34,-1.04 16.42,-0.11 16.42,-0.11 16.51,-0.15 16.51,-0.15 16.6,-0.02 16.6,-0.02 16.69,-0.79 16.69,-0.79 16.78,-1.35 16.78,-1.35 16.87,-0.64 16.87,-0.64 16.96,-0.46 16.96,-0.46 17.05,-1.14 17.05,-1.14 17.14,-0.86 17.14,-0.86 17.22,-1.03 17.22,-1.03 17.31,-0.33 17.31,-0.33 17.41,0.1 17.41,0.1 17.49,-1.2 17.49,-1.2 17.58,-1.35 17.58,-1.35 17.67,-1.43 17.67,-1.43 17.76,-0.46 17.76,-0.46 17.85,0.05 17.85,0.05 17.94,0.26 17.94,0.26 18.03,0.5 18.03,0.5 18.12,0.76 18.12,0.76 18.21,0.49 18.21,0.49 18.29,0.52 18.29,0.52 18.39,-0.63 18.39,-0.63 18.48,-0.64 18.48,-0.64 18.56,-0.35 18.56,-0.35 18.65,-0.14 18.65,-0.14 18.74,-0.28 18.74,-0.28 18.83,-0.32 18.83,-0.32 18.92,-0.11 18.92,-0.11 19.01,3.86 19.01,3.86 19.1,31.84 19.1,31.84 19.19,27.1 19.19,27.1 19.28,21.04 19.28,21.04 19.37,19.56 19.37,19.56 19.46,15.56 19.46,15.56 19.55,15.62 19.55,15.62 19.64,13.06 19.64,13.06 19.73,13.18 19.73,13.18 19.82,13.34 19.82,13.34 19.91,13.05 19.91,13.05 20,12.85 20,12.85 20.08,8.19 20.08,8.19 20.17,-24.38 20.17,-24.38 20.26,-18.48 20.26,-18.48 20.35,-10.82 20.35,-10.82 20.44,-10.11 20.44,-10.11 20.53,-5.8 20.53,-5.8 20.62,-6.11 20.62,-6.11 20.71,-3.71 20.71,-3.71 20.8,-5.1 20.8,-5.1 20.89,-5.79 20.89,-5.79 20.98,-7.21 20.98,-7.21 21.07,-7.43 21.07,-7.43 21.15,-7.6 21.15,-7.6 21.24,-6.7 21.24,-6.7 21.33,-6.73 21.33,-6.73 21.42,-6.23 21.42,-6.23 21.51,-4.99 21.51,-4.99 21.6,-4.94 21.6,-4.94 21.69,-4.35 21.69,-4.35 21.78,-3.36 21.78,-3.36 21.87,-1.75 21.87,-1.75 " class="primitive"/>
          </g>
          <g transform="translate(25.8,33.98)" id="img-15adc0dd-142" class="color_i" stroke="#D4CA3A" stroke-dasharray="none">
            <path fill="none" d="M-21.87,-5.88 L-21.87,-5.88 -21.77,-10.56 -21.77,-10.56 -21.69,-12.47 -21.69,-12.47 -21.6,-13.45 -21.6,-13.45 -21.51,-13.65 -21.51,-13.65 -21.42,-15.67 -21.42,-15.67 -21.33,-12.03 -21.33,-12.03 -21.24,-8.51 -21.24,-8.51 -21.15,-3.82 -21.15,-3.82 -21.06,-6.45 -21.06,-6.45 -20.97,-8.68 -20.97,-8.68 -20.89,-7.87 -20.89,-7.87 -20.79,-6.59 -20.79,-6.59 -20.7,-6.92 -20.7,-6.92 -20.62,-7.78 -20.62,-7.78 -20.53,-7.36 -20.53,-7.36 -20.44,-7.77 -20.44,-7.77 -20.35,-9.08 -20.35,-9.08 -20.26,-6.64 -20.26,-6.64 -20.17,-8.64 -20.17,-8.64 -20.08,-8.12 -20.08,-8.12 -19.99,-7.03 -19.99,-7.03 -19.9,-6.42 -19.9,-6.42 -19.82,-6.09 -19.82,-6.09 -19.72,-7.88 -19.72,-7.88 -19.63,-7.59 -19.63,-7.59 -19.55,-8.37 -19.55,-8.37 -19.46,-7.9 -19.46,-7.9 -19.37,-7.91 -19.37,-7.91 -19.28,-7.93 -19.28,-7.93 -19.19,-9.74 -19.19,-9.74 -19.1,-9.29 -19.1,-9.29 -19.01,-10.02 -19.01,-10.02 -18.92,-10.87 -18.92,-10.87 -18.83,-9.92 -18.83,-9.92 -18.74,-8.68 -18.74,-8.68 -18.65,-7.45 -18.65,-7.45 -18.56,-6.77 -18.56,-6.77 -18.48,-6.27 -18.48,-6.27 -18.39,-8.6 -18.39,-8.6 -18.3,-7.16 -18.3,-7.16 -18.21,-4.25 -18.21,-4.25 -18.12,-6.11 -18.12,-6.11 -18.03,-5.71 -18.03,-5.71 -17.94,-5.43 -17.94,-5.43 -17.85,-5.36 -17.85,-5.36 -17.76,-5.61 -17.76,-5.61 -17.67,-6.11 -17.67,-6.11 -17.58,-5.78 -17.58,-5.78 -17.49,-6.16 -17.49,-6.16 -17.41,-7.81 -17.41,-7.81 -17.32,-7.41 -17.32,-7.41 -17.23,-7.12 -17.23,-7.12 -17.14,-6.17 -17.14,-6.17 -17.05,-4.22 -17.05,-4.22 -16.96,-3.92 -16.96,-3.92 -16.87,-3.21 -16.87,-3.21 -16.78,-2.76 -16.78,-2.76 -16.69,-2.61 -16.69,-2.61 -16.6,-2.07 -16.6,-2.07 -16.51,-2.2 -16.51,-2.2 -16.42,-1.81 -16.42,-1.81 -16.34,-3.8 -16.34,-3.8 -16.25,-2.24 -16.25,-2.24 -16.16,-1.46 -16.16,-1.46 -16.07,-2.93 -16.07,-2.93 -15.98,-1.78 -15.98,-1.78 -15.89,-2.38 -15.89,-2.38 -15.8,-1.99 -15.8,-1.99 -15.71,-4.52 -15.71,-4.52 -15.62,-4.08 -15.62,-4.08 -15.53,-2.06 -15.53,-2.06 -15.44,-2.18 -15.44,-2.18 -15.35,-2.94 -15.35,-2.94 -15.26,-2.63 -15.26,-2.63 -15.17,-2.84 -15.17,-2.84 -15.09,-3.04 -15.09,-3.04 -14.99,-3.47 -14.99,-3.47 -14.91,-2.27 -14.91,-2.27 -14.82,-3.69 -14.82,-3.69 -14.72,-3.93 -14.72,-3.93 -14.64,-3.46 -14.64,-3.46 -14.55,-3.31 -14.55,-3.31 -14.46,-3.76 -14.46,-3.76 -14.37,-3.72 -14.37,-3.72 -14.28,-4.03 -14.28,-4.03 -14.19,-4.14 -14.19,-4.14 -14.1,-5.31 -14.1,-5.31 -14.02,-6.2 -14.02,-6.2 -13.92,-6.1 -13.92,-6.1 -13.84,-5.01 -13.84,-5.01 -13.75,-4.67 -13.75,-4.67 -13.65,-5.14 -13.65,-5.14 -13.57,-5.07 -13.57,-5.07 -13.48,-4.93 -13.48,-4.93 -13.39,-5.05 -13.39,-5.05 -13.3,-4.85 -13.3,-4.85 -13.21,-3.95 -13.21,-3.95 -13.12,-6.06 -13.12,-6.06 -13.03,-6.24 -13.03,-6.24 -12.94,-5.81 -12.94,-5.81 -12.85,-4.65 -12.85,-4.65 -12.77,-5.77 -12.77,-5.77 -12.67,-5.01 -12.67,-5.01 -12.58,-2.93 -12.58,-2.93 -12.5,-2.38 -12.5,-2.38 -12.41,-1.37 -12.41,-1.37 -12.32,-1.42 -12.32,-1.42 -12.23,-2.6 -12.23,-2.6 -12.14,-3.23 -12.14,-3.23 -12.05,-2.89 -12.05,-2.89 -11.96,-4.04 -11.96,-4.04 -11.87,-3.52 -11.87,-3.52 -11.78,-3.15 -11.78,-3.15 -11.7,-2.95 -11.7,-2.95 -11.6,-2.63 -11.6,-2.63 -11.51,-2.5 -11.51,-2.5 -11.43,-1.56 -11.43,-1.56 -11.33,-1.37 -11.33,-1.37 -11.25,-0.53 -11.25,-0.53 -11.16,-0.26 -11.16,-0.26 -11.07,-0.16 -11.07,-0.16 -10.98,0.01 -10.98,0.01 -10.89,-0.75 -10.89,-0.75 -10.8,-0.23 -10.8,-0.23 -10.71,0.24 -10.71,0.24 -10.62,0.24 -10.62,0.24 -10.53,0.6 -10.53,0.6 -10.44,0.77 -10.44,0.77 -10.35,1.26 -10.35,1.26 -10.26,0.92 -10.26,0.92 -10.17,0.54 -10.17,0.54 -10.08,0.93 -10.08,0.93 -9.99,1.14 -9.99,1.14 -9.91,1.63 -9.91,1.63 -9.82,1.31 -9.82,1.31 -9.73,1.52 -9.73,1.52 -9.64,0.23 -9.64,0.23 -9.55,1.06 -9.55,1.06 -9.46,0.91 -9.46,0.91 -9.37,1.2 -9.37,1.2 -9.28,1.66 -9.28,1.66 -9.19,1.28 -9.19,1.28 -9.1,0.84 -9.1,0.84 -9.01,0.96 -9.01,0.96 -8.92,1.18 -8.92,1.18 -8.84,2.05 -8.84,2.05 -8.75,0.14 -8.75,0.14 -8.66,-0.35 -8.66,-0.35 -8.57,0.24 -8.57,0.24 -8.48,-0.21 -8.48,-0.21 -8.39,-1.23 -8.39,-1.23 -8.3,-1.3 -8.3,-1.3 -8.21,-1.3 -8.21,-1.3 -8.12,-1.32 -8.12,-1.32 -8.03,-1.27 -8.03,-1.27 -7.94,-1.89 -7.94,-1.89 -7.85,-1.75 -7.85,-1.75 -7.77,-1.56 -7.77,-1.56 -7.68,-1.96 -7.68,-1.96 -7.59,-4.63 -7.59,-4.63 -7.5,-3.44 -7.5,-3.44 -7.41,-2.1 -7.41,-2.1 -7.32,-2.27 -7.32,-2.27 -7.23,-1.64 -7.23,-1.64 -7.14,-2.29 -7.14,-2.29 -7.05,-1.89 -7.05,-1.89 -6.96,-3.33 -6.96,-3.33 -6.87,-2.07 -6.87,-2.07 -6.78,-1.53 -6.78,-1.53 -6.7,-2.42 -6.7,-2.42 -6.6,-2.4 -6.6,-2.4 -6.52,-1.85 -6.52,-1.85 -6.43,-1.99 -6.43,-1.99 -6.34,-2.58 -6.34,-2.58 -6.25,-2.14 -6.25,-2.14 -6.16,-2.58 -6.16,-2.58 -6.07,-1.96 -6.07,-1.96 -5.98,-1.55 -5.98,-1.55 -5.89,-2.14 -5.89,-2.14 -5.8,-1.54 -5.8,-1.54 -5.71,-1.15 -5.71,-1.15 -5.63,-2.09 -5.63,-2.09 -5.53,-2.4 -5.53,-2.4 -5.45,-2.43 -5.45,-2.43 -5.36,-2.78 -5.36,-2.78 -5.27,-3.09 -5.27,-3.09 -5.18,-2.52 -5.18,-2.52 -5.09,-2.92 -5.09,-2.92 -5,-1.9 -5,-1.9 -4.91,-1.57 -4.91,-1.57 -4.82,-2.9 -4.82,-2.9 -4.73,-2.54 -4.73,-2.54 -4.64,-2.29 -4.64,-2.29 -4.56,-2.63 -4.56,-2.63 -4.46,-2.64 -4.46,-2.64 -4.38,-2.42 -4.38,-2.42 -4.29,-2.96 -4.29,-2.96 -4.2,-1.77 -4.2,-1.77 -4.11,-1.93 -4.11,-1.93 -4.02,-1.72 -4.02,-1.72 -3.93,-1.47 -3.93,-1.47 -3.84,-1.28 -3.84,-1.28 -3.75,-1.96 -3.75,-1.96 -3.66,-1.2 -3.66,-1.2 -3.57,-1.06 -3.57,-1.06 -3.48,-2.1 -3.48,-2.1 -3.39,-2.24 -3.39,-2.24 -3.31,-1.56 -3.31,-1.56 -3.21,-4.11 -3.21,-4.11 -3.13,-2.32 -3.13,-2.32 -3.04,-2.49 -3.04,-2.49 -2.95,-2.66 -2.95,-2.66 -2.86,-1.75 -2.86,-1.75 -2.77,-1.57 -2.77,-1.57 -2.68,-0.93 -2.68,-0.93 -2.59,-2.54 -2.59,-2.54 -2.5,-2.51 -2.5,-2.51 -2.41,-2.55 -2.41,-2.55 -2.32,-3.01 -2.32,-3.01 -2.23,-2.8 -2.23,-2.8 -2.14,-1.2 -2.14,-1.2 -2.05,-3.92 -2.05,-3.92 -1.96,-3.69 -1.96,-3.69 -1.87,-3.23 -1.87,-3.23 -1.78,-3.31 -1.78,-3.31 -1.69,-2.74 -1.69,-2.74 -1.61,-1.87 -1.61,-1.87 -1.51,-3.47 -1.51,-3.47 -1.42,-2.89 -1.42,-2.89 -1.34,-4.44 -1.34,-4.44 -1.25,-2.03 -1.25,-2.03 -1.16,-0.97 -1.16,-0.97 -1.07,-0.14 -1.07,-0.14 -0.98,-0.63 -0.98,-0.63 -0.89,-0.44 -0.89,-0.44 -0.8,2.22 -0.8,2.22 -0.71,0.69 -0.71,0.69 -0.62,0.63 -0.62,0.63 -0.53,3.11 -0.53,3.11 -0.44,1.16 -0.44,1.16 -0.35,1.02 -0.35,1.02 -0.27,0.58 -0.27,0.58 -0.18,1.66 -0.18,1.66 -0.09,2.5 -0.09,2.5 -0,1.84 -0,1.84 0.09,2.21 0.09,2.21 0.18,2.36 0.18,2.36 0.27,2.75 0.27,2.75 0.36,3.11 0.36,3.11 0.45,3.27 0.45,3.27 0.54,2.84 0.54,2.84 0.63,3.09 0.63,3.09 0.72,3.09 0.72,3.09 0.8,3.06 0.8,3.06 0.89,2.93 0.89,2.93 0.98,2.56 0.98,2.56 1.07,5.14 1.07,5.14 1.16,2.9 1.16,2.9 1.25,2.53 1.25,2.53 1.34,2.61 1.34,2.61 1.43,3.11 1.43,3.11 1.52,3.04 1.52,3.04 1.61,3.91 1.61,3.91 1.7,2.99 1.7,2.99 1.79,3.51 1.79,3.51 1.87,2.85 1.87,2.85 1.96,3.53 1.96,3.53 2.05,3.72 2.05,3.72 2.14,4.68 2.14,4.68 2.23,3.6 2.23,3.6 2.32,3.69 2.32,3.69 2.41,5.36 2.41,5.36 2.5,3.14 2.5,3.14 2.59,2.8 2.59,2.8 2.68,0.39 2.68,0.39 2.77,2.04 2.77,2.04 2.86,1.67 2.86,1.67 2.94,1.56 2.94,1.56 3.03,1.77 3.03,1.77 3.12,1.4 3.12,1.4 3.21,1.08 3.21,1.08 3.3,0.56 3.3,0.56 3.39,0.2 3.39,0.2 3.48,-1.19 3.48,-1.19 3.57,0.38 3.57,0.38 3.66,0.2 3.66,0.2 3.75,1 3.75,1 3.84,-1.29 3.84,-1.29 3.93,-1.48 3.93,-1.48 4.01,-3.71 4.01,-3.71 4.1,-1.42 4.1,-1.42 4.19,-1.83 4.19,-1.83 4.28,-2 4.28,-2 4.37,-1.57 4.37,-1.57 4.46,-1.54 4.46,-1.54 4.55,-2.77 4.55,-2.77 4.64,-2.88 4.64,-2.88 4.73,-3.92 4.73,-3.92 4.82,-4.1 4.82,-4.1 4.91,-1.82 4.91,-1.82 5,-2.2 5,-2.2 5.08,-1.4 5.08,-1.4 5.17,-1.36 5.17,-1.36 5.26,-0.16 5.26,-0.16 5.35,0.57 5.35,0.57 5.44,-1.06 5.44,-1.06 5.53,-1.5 5.53,-1.5 5.62,-0.86 5.62,-0.86 5.71,-0.67 5.71,-0.67 5.8,-1.62 5.8,-1.62 5.89,-0.24 5.89,-0.24 5.98,0.5 5.98,0.5 6.07,2.13 6.07,2.13 6.16,1.47 6.16,1.47 6.25,2.59 6.25,2.59 6.34,3.47 6.34,3.47 6.43,3.43 6.43,3.43 6.51,4.34 6.51,4.34 6.61,5.64 6.61,5.64 6.7,4.73 6.7,4.73 6.78,0.35 6.78,0.35 6.88,-2.79 6.88,-2.79 6.96,-2.33 6.96,-2.33 7.05,-1.29 7.05,-1.29 7.15,-1.4 7.15,-1.4 7.23,-3.71 7.23,-3.71 7.32,2.58 7.32,2.58 7.41,2.58 7.41,2.58 7.5,1.75 7.5,1.75 7.59,2.92 7.59,2.92 7.68,4.63 7.68,4.63 7.77,6.45 7.77,6.45 7.85,4.32 7.85,4.32 7.95,4.71 7.95,4.71 8.03,5.13 8.03,5.13 8.12,4.33 8.12,4.33 8.22,4.83 8.22,4.83 8.3,5.92 8.3,5.92 8.39,3.6 8.39,3.6 8.48,3.72 8.48,3.72 8.57,3.48 8.57,3.48 8.66,2.86 8.66,2.86 8.75,4.08 8.75,4.08 8.84,2.99 8.84,2.99 8.93,4.7 8.93,4.7 9.02,5.03 9.02,5.03 9.1,4.57 9.1,4.57 9.19,4.91 9.19,4.91 9.29,5.44 9.29,5.44 9.37,5.75 9.37,5.75 9.46,5.63 9.46,5.63 9.55,6.92 9.55,6.92 9.64,6.76 9.64,6.76 9.73,7.8 9.73,7.8 9.82,5.28 9.82,5.28 9.91,4.2 9.91,4.2 10,5.88 10,5.88 10.09,5.97 10.09,5.97 10.17,6.59 10.17,6.59 10.27,5.88 10.27,5.88 10.36,6.01 10.36,6.01 10.44,5.35 10.44,5.35 10.53,6.43 10.53,6.43 10.62,5.19 10.62,5.19 10.71,3.43 10.71,3.43 10.8,5.12 10.8,5.12 10.89,5.03 10.89,5.03 10.98,6.92 10.98,6.92 11.07,6.04 11.07,6.04 11.16,5.72 11.16,5.72 11.25,7.65 11.25,7.65 11.34,4.93 11.34,4.93 11.43,4.59 11.43,4.59 11.51,1.75 11.51,1.75 11.6,4.24 11.6,4.24 11.69,3.73 11.69,3.73 11.78,4.07 11.78,4.07 11.87,3.05 11.87,3.05 11.96,5.83 11.96,5.83 12.05,5.4 12.05,5.4 12.14,4.85 12.14,4.85 12.23,4.73 12.23,4.73 12.32,6.51 12.32,6.51 12.41,5.38 12.41,5.38 12.5,5.49 12.5,5.49 12.58,4.45 12.58,4.45 12.67,5.33 12.67,5.33 12.76,5.73 12.76,5.73 12.85,5.07 12.85,5.07 12.94,6.25 12.94,6.25 13.03,5.33 13.03,5.33 13.12,6.62 13.12,6.62 13.21,4.92 13.21,4.92 13.3,3.41 13.3,3.41 13.39,7.67 13.39,7.67 13.48,0.49 13.48,0.49 13.57,-0.34 13.57,-0.34 13.65,0.9 13.65,0.9 13.74,4.37 13.74,4.37 13.83,4.67 13.83,4.67 13.92,5.06 13.92,5.06 14.01,5.22 14.01,5.22 14.1,5.3 14.1,5.3 14.19,6.18 14.19,6.18 14.28,4.39 14.28,4.39 14.37,4.18 14.37,4.18 14.46,4.16 14.46,4.16 14.55,4.45 14.55,4.45 14.64,3.14 14.64,3.14 14.73,2.32 14.73,2.32 14.82,5.07 14.82,5.07 14.9,5.04 14.9,5.04 15,3.81 15,3.81 15.08,5.69 15.08,5.69 15.17,5.52 15.17,5.52 15.27,7.08 15.27,7.08 15.35,5.99 15.35,5.99 15.44,6.44 15.44,6.44 15.53,7.18 15.53,7.18 15.62,5.43 15.62,5.43 15.71,5.06 15.71,5.06 15.8,3.03 15.8,3.03 15.89,3.84 15.89,3.84 15.97,3.52 15.97,3.52 16.07,1.36 16.07,1.36 16.15,3.6 16.15,3.6 16.24,3.45 16.24,3.45 16.34,4.73 16.34,4.73 16.42,4.38 16.42,4.38 16.51,4.67 16.51,4.67 16.6,8.3 16.6,8.3 16.69,4.26 16.69,4.26 16.78,4.36 16.78,4.36 16.87,0.06 16.87,0.06 16.96,1.18 16.96,1.18 17.05,1.85 17.05,1.85 17.14,1.22 17.14,1.22 17.22,2.98 17.22,2.98 17.31,2.95 17.31,2.95 17.41,4.07 17.41,4.07 17.49,3.08 17.49,3.08 17.58,2.49 17.58,2.49 17.67,1.76 17.67,1.76 17.76,1.54 17.76,1.54 17.85,1.59 17.85,1.59 17.94,-8.57 17.94,-8.57 18.03,-3.45 18.03,-3.45 18.12,-0.98 18.12,-0.98 18.21,-0.94 18.21,-0.94 18.29,0.64 18.29,0.64 18.39,1.44 18.39,1.44 18.48,2.16 18.48,2.16 18.56,2.8 18.56,2.8 18.65,3.16 18.65,3.16 18.74,3.29 18.74,3.29 18.83,3.9 18.83,3.9 18.92,3.79 18.92,3.79 19.01,-3.92 19.01,-3.92 19.1,-3.7 19.1,-3.7 19.19,-2.98 19.19,-2.98 19.28,-0.09 19.28,-0.09 19.37,4.19 19.37,4.19 19.46,5.18 19.46,5.18 19.55,5.32 19.55,5.32 19.64,5.1 19.64,5.1 19.73,5.39 19.73,5.39 19.82,6.36 19.82,6.36 19.91,5.91 19.91,5.91 20,6.74 20,6.74 20.08,5.69 20.08,5.69 20.17,5.74 20.17,5.74 20.26,6.09 20.26,6.09 20.35,6.52 20.35,6.52 20.44,6.71 20.44,6.71 20.53,9.06 20.53,9.06 20.62,9.59 20.62,9.59 20.71,6.36 20.71,6.36 20.8,7.87 20.8,7.87 20.89,8.52 20.89,8.52 20.98,7.14 20.98,7.14 21.07,7.96 21.07,7.96 21.15,8.65 21.15,8.65 21.24,9.22 21.24,9.22 21.33,9.17 21.33,9.17 21.42,10.57 21.42,10.57 21.51,5.5 21.51,5.5 21.6,5.63 21.6,5.63 21.69,7.84 21.69,7.84 21.78,2.66 21.78,2.66 21.87,2.09 21.87,2.09 " class="primitive"/>
          </g>
        </g>
      </g>
    </g>
  </g>
  <g class="guide ylabels" font-size="2.82" font-family="'PT Sans Caption','Helvetica Neue','Helvetica',sans-serif" fill="#6C606B" id="img-15adc0dd-143">
    <g transform="translate(18.07,66.4)" id="img-15adc0dd-144">
      <g class="primitive">
        <text text-anchor="end" dy="0.35em">-15</text>
      </g>
    </g>
    <g transform="translate(18.07,56.5)" id="img-15adc0dd-145">
      <g class="primitive">
        <text text-anchor="end" dy="0.35em">-10</text>
      </g>
    </g>
    <g transform="translate(18.07,46.6)" id="img-15adc0dd-146">
      <g class="primitive">
        <text text-anchor="end" dy="0.35em">-5</text>
      </g>
    </g>
    <g transform="translate(18.07,36.7)" id="img-15adc0dd-147">
      <g class="primitive">
        <text text-anchor="end" dy="0.35em">0</text>
      </g>
    </g>
    <g transform="translate(18.07,26.8)" id="img-15adc0dd-148">
      <g class="primitive">
        <text text-anchor="end" dy="0.35em">5</text>
      </g>
    </g>
    <g transform="translate(18.07,16.9)" id="img-15adc0dd-149">
      <g class="primitive">
        <text text-anchor="end" dy="0.35em">10</text>
      </g>
    </g>
    <g transform="translate(18.07,7)" id="img-15adc0dd-150">
      <g class="primitive">
        <text text-anchor="end" dy="0.35em">15</text>
      </g>
    </g>
  </g>
  <g font-size="3.88" font-family="'PT Sans','Helvetica Neue','Helvetica',sans-serif" fill="#564A55" stroke="#000000" stroke-opacity="0.000" id="img-15adc0dd-151">
    <g transform="translate(8.81,34.7)" id="img-15adc0dd-152">
      <g class="primitive">
        <text text-anchor="middle" dy="0.35em" transform="rotate(-90,0, 2)">Percent, Percent Change</text>
      </g>
    </g>
  </g>
</g>
<defs>
  <clipPath id="img-15adc0dd-15">
    <path d="M19.07,105 L103.25,105 103.25,180.72 19.07,180.72 " />
  </clipPath>
  <clipPath id="img-15adc0dd-68">
    <path d="M84.07,5 L108.53,5 108.53,68.4 84.07,68.4 " />
  </clipPath>
  <clipPath id="img-15adc0dd-120">
    <path d="M19.07,5 L47.71,5 47.71,68.4 19.07,68.4 " />
  </clipPath>
</defs>
</svg>
