<?xml version="1.0" encoding="UTF-8"?>
<svg xmlns="http://www.w3.org/2000/svg"
     xmlns:xlink="http://www.w3.org/1999/xlink"
     xmlns:gadfly="http://www.gadflyjl.org/ns"
     version="1.2"
     width="130mm" height="130mm" viewBox="0 0 130 130"
     stroke="none"
     fill="#000000"
     stroke-width="0.3"
     font-size="3.88"
>
<defs>
  <marker id="arrow" markerWidth="15" markerHeight="7" refX="5" refY="3.5" orient="auto" markerUnits="strokeWidth">
    <path d="M0,0 L15,3.5 L0,7 z" stroke="context-stroke" fill="context-stroke"/>
  </marker>
</defs>
<g class="plotroot xscalable yscalable" id="img-a4c0d2bf-1">
  <g font-size="3.88" font-family="'PT Sans','Helvetica Neue','Helvetica',sans-serif" fill="#564A55" stroke="#000000" stroke-opacity="0.000" id="img-a4c0d2bf-2">
    <g transform="translate(62.68,118.39)">
      <g class="primitive">
        <text text-anchor="middle" dy="0.6em">Year</text>
      </g>
    </g>
  </g>
  <g class="guide xlabels" font-size="2.82" font-family="'PT Sans Caption','Helvetica Neue','Helvetica',sans-serif" fill="#6C606B" id="img-a4c0d2bf-3">
    <g transform="translate(26.93,111.72)">
      <g class="primitive">
        <text text-anchor="middle" dy="0.6em">Jan 1, 2000</text>
      </g>
    </g>
    <g transform="translate(40.88,111.72)">
      <g class="primitive">
        <text text-anchor="middle" dy="0.6em">2004</text>
      </g>
    </g>
    <g transform="translate(54.83,111.72)">
      <g class="primitive">
        <text text-anchor="middle" dy="0.6em">2008</text>
      </g>
    </g>
    <g transform="translate(68.78,111.72)">
      <g class="primitive">
        <text text-anchor="middle" dy="0.6em">2012</text>
      </g>
    </g>
    <g transform="translate(82.73,111.72)">
      <g class="primitive">
        <text text-anchor="middle" dy="0.6em">2016</text>
      </g>
    </g>
    <g transform="translate(96.68,111.72)">
      <g class="primitive">
        <text text-anchor="middle" dy="0.6em">2020</text>
      </g>
    </g>
    <g transform="translate(110.64,111.72)">
      <g class="primitive">
        <text text-anchor="middle" dy="0.6em">2024</text>
      </g>
    </g>
  </g>
  <g class="guide colorkey" id="img-a4c0d2bf-4">
    <g fill="#4C404B" font-size="2.82" font-family="'PT Sans','Helvetica Neue','Helvetica',sans-serif" id="img-a4c0d2bf-5">
      <g transform="translate(111.21,57.86)" id="img-a4c0d2bf-6" class="color_DFF">
        <g class="primitive">
          <text dy="0.35em">FEDFUNDS</text>
        </g>
      </g>
      <g transform="translate(111.21,61.48)" id="img-a4c0d2bf-7" class="color_NFF">
        <g class="primitive">
          <text dy="0.35em">Taylor Rule</text>
        </g>
      </g>
    </g>
    <g fill-opacity="1" id="img-a4c0d2bf-8">
      <g transform="translate(109.3,57.86)" id="img-a4c0d2bf-9" class="color_DFF" stroke="#FFFFFF" fill="#00BFFF">
        <path d="M-0.91,-0.91 L0.91,-0.91 0.91,0.91 -0.91,0.91  z" class="primitive"/>
      </g>
      <g transform="translate(109.3,61.48)" id="img-a4c0d2bf-10" class="color_NFF" stroke="#FFFFFF" fill="#D4CA3A">
        <path d="M-0.91,-0.91 L0.91,-0.91 0.91,0.91 -0.91,0.91  z" class="primitive"/>
      </g>
    </g>
    <g fill="#362A35" font-size="3.88" font-family="'PT Sans','Helvetica Neue','Helvetica',sans-serif" stroke="#000000" stroke-opacity="0.000" id="img-a4c0d2bf-11">
      <g transform="translate(108.39,54.04)" id="img-a4c0d2bf-12">
        <g class="primitive">
          <text dy="-0em">Metric</text>
        </g>
      </g>
    </g>
  </g>
  <g clip-path="url(#img-a4c0d2bf-13)">
    <g id="img-a4c0d2bf-14">
      <g pointer-events="visible" stroke-width="0.3" fill="#000000" fill-opacity="0.000" stroke="#000000" stroke-opacity="0.000" class="guide background" id="img-a4c0d2bf-15">
        <g transform="translate(62.68,57.86)" id="img-a4c0d2bf-16">
          <path d="M-44.72,-52.86 L44.72,-52.86 44.72,52.86 -44.72,52.86  z" class="primitive"/>
        </g>
      </g>
      <g class="guide ygridlines xfixed" stroke-dasharray="0.5,0.5" stroke-width="0.2" stroke="#D0D0E0" id="img-a4c0d2bf-17">
        <g transform="translate(62.68,108.72)" id="img-a4c0d2bf-18">
          <path fill="none" d="M-44.72,0 L44.72,0 " class="primitive"/>
        </g>
        <g transform="translate(62.68,84.5)" id="img-a4c0d2bf-19">
          <path fill="none" d="M-44.72,0 L44.72,0 " class="primitive"/>
        </g>
        <g transform="translate(62.68,60.28)" id="img-a4c0d2bf-20">
          <path fill="none" d="M-44.72,0 L44.72,0 " class="primitive"/>
        </g>
        <g transform="translate(62.68,36.06)" id="img-a4c0d2bf-21">
          <path fill="none" d="M-44.72,0 L44.72,0 " class="primitive"/>
        </g>
        <g transform="translate(62.68,11.84)" id="img-a4c0d2bf-22">
          <path fill="none" d="M-44.72,0 L44.72,0 " class="primitive"/>
        </g>
      </g>
      <g class="guide xgridlines yfixed" stroke-dasharray="0.5,0.5" stroke-width="0.2" stroke="#D0D0E0" id="img-a4c0d2bf-23">
        <g transform="translate(26.93,57.86)" id="img-a4c0d2bf-24">
          <path fill="none" d="M0,-52.86 L0,52.86 " class="primitive"/>
        </g>
        <g transform="translate(40.88,57.86)" id="img-a4c0d2bf-25">
          <path fill="none" d="M0,-52.86 L0,52.86 " class="primitive"/>
        </g>
        <g transform="translate(54.83,57.86)" id="img-a4c0d2bf-26">
          <path fill="none" d="M0,-52.86 L0,52.86 " class="primitive"/>
        </g>
        <g transform="translate(68.78,57.86)" id="img-a4c0d2bf-27">
          <path fill="none" d="M0,-52.86 L0,52.86 " class="primitive"/>
        </g>
        <g transform="translate(82.73,57.86)" id="img-a4c0d2bf-28">
          <path fill="none" d="M0,-52.86 L0,52.86 " class="primitive"/>
        </g>
        <g transform="translate(96.68,57.86)" id="img-a4c0d2bf-29">
          <path fill="none" d="M0,-52.86 L0,52.86 " class="primitive"/>
        </g>
        <g transform="translate(110.64,57.86)" id="img-a4c0d2bf-30">
          <path fill="none" d="M0,-52.86 L0,52.86 " class="primitive"/>
        </g>
      </g>
      <g class="plotpanel" id="img-a4c0d2bf-31">
        <metadata>
          <boundingbox value="17.95833333333333mm 5.0mm 89.435mm 105.715mm"/>
          <unitbox value="1997-06-05T13:18:04.825 16.4129184486064 809213030351 milliseconds -21.825836897212803"/>
        </metadata>
        <g stroke-width="0.3" fill="#000000" fill-opacity="0.000" class="geometry" id="img-a4c0d2bf-32">
          <g transform="translate(-13.18,62.22)" id="img-a4c0d2bf-33" class="color_DFF" stroke="#00BFFF" stroke-dasharray="none">
            <path fill="none" d="M-118.59,17.29 L-117.71,17.5 -116.83,15.77 -115.97,15.01 -115.11,12.88 -114.23,10.86 -113.35,10.25 -112.48,9.23 -111.61,8.66 -110.73,8.1 -109.85,8.07 -108.99,7.74 -108.13,6.61 -107.25,6.52 -106.37,13.25 -105.51,17.72 -104.64,15.87 -103.76,11.8 -102.88,9.83 -102.02,7.34 -101.15,4.95 -100.28,2.95 -99.4,3.22 -98.53,4.37 -97.66,8.05 -96.78,11.15 -95.9,12.57 -95.04,13.88 -94.17,14.12 -93.3,10.65 -92.42,10.38 -91.56,9.65 -90.69,8.49 -89.81,8.12 -88.93,7.91 -88.07,7.92 -87.2,6.15 -86.33,5.55 -85.45,5.5 -84.58,5.37 -83.71,5.53 -82.83,4.95 -81.95,3.01 -81.09,2.51 -80.22,2.53 -79.34,2.09 -78.47,0.19 -77.61,-1.52 -76.74,-3.93 -75.86,-4.67 -74.98,-1.09 -74.12,2.95 -73.25,3.42 -72.37,2.06 -71.5,-0.93 -70.63,-6.71 -69.76,-6.53 -68.88,-6.38 -68,-9.53 -67.14,-18.06 -66.27,-21.24 -65.39,-21.03 -64.52,-19.25 -63.66,-15.92 -62.79,-10.21 -61.91,-4.69 -61.03,3.6 -60.17,0.16 -59.3,-4.25 -58.42,-0.73 -57.54,5.1 -56.68,1.45 -55.81,-0.7 -54.93,-2.65 -54.05,-9.39 -53.19,-15.59 -52.32,-28.87 -51.44,-26.14 -50.56,-22.88 -49.7,-32.21 -48.84,-36.28 -47.96,-23 -47.08,-8.26 -46.22,-3.98 -45.35,-7.56 -44.47,-3.94 -43.59,-1.1 -42.72,-2.9 -41.86,-3.31 -40.98,-1.33 -40.1,-0.3 -39.24,-2.7 -38.37,-5.91 -37.49,-9.27 -36.61,-10.45 -35.75,-13 -34.88,-16.96 -34.01,-24.14 -33.13,-26.52 -32.27,-27.03 -31.4,-30.75 -30.52,-43.48 -29.64,-50.6 -28.77,-39.17 -27.9,-25.37 -27.03,-54.51 -26.15,-57.98 -25.29,-63.84 -24.42,-62.86 -23.54,-43.53 -22.66,-46.63 -21.8,-48.02 -20.93,-31.04 -20.05,-22.71 -19.18,-19.64 -18.32,-20.36 -17.45,-23.54 -16.57,-23.4 -15.69,-24.64 -14.82,-28.86 -13.95,-32.89 -13.07,-22.61 -12.2,-18.78 -11.34,-16.1 -10.47,-15.99 -9.59,-16.97 -8.71,-15.63 -7.85,-11.24 -6.98,-7.79 -6.1,-8.08 -5.23,-7.85 -4.37,-9.93 -3.5,-10.87 -2.62,-11.23 -1.74,-10 -0.87,-12.39 -0,-16.39 0.88,-18.75 1.75,-23.46 2.61,-24.84 3.48,-21.72 4.36,-19.44 5.24,-17.68 6.1,-17.65 6.97,-17.25 7.85,-15.23 8.73,-8.85 9.59,-6.12 10.45,-5.06 11.33,-1.05 12.21,2.79 13.08,4.02 13.95,6.5 14.83,7.57 15.71,7.55 16.57,7.74 17.43,7.45 18.31,7.79 19.19,6.71 20.05,3.19 20.92,0.54 21.8,-2.75 22.68,-5.87 23.54,-6.88 24.41,-5.8 25.28,-5.43 26.16,-3.7 27.03,-3.12 27.9,-3.43 28.78,-3.3 29.66,-3.28 30.52,-4.48 31.39,-4.53 32.26,-4.4 33.14,-4.46 34,-4.36 34.87,-4.53 35.75,-1.26 36.63,-0.65 37.49,-0.72 38.36,-2.39 39.23,-3.43 40.11,-5.22 40.98,-8.11 41.85,-9.3 42.73,-9.08 43.61,-4.82 44.47,1.32 45.34,5.34 46.22,11.94 47.09,13.88 47.95,13.8 48.82,13.85 49.7,15.28 50.58,16.22 51.44,16.24 52.31,17.35 53.19,17.45 54.06,17.42 54.93,17.38 55.8,15.33 56.68,12.83 57.56,10.31 58.42,8.02 59.29,5.52 60.17,3 61.04,0.69 61.9,-1.49 62.77,-3.14 63.65,-3.14 64.53,-3.19 65.39,-3.15 66.26,-2.3 67.14,0.5 68.02,6.89 68.88,12.17 69.75,12.88 70.63,19.82 71.51,21.39 72.37,21.4 73.24,21.52 74.12,21.69 75,21.63 75.86,21.34 76.72,21.37 77.6,21.37 78.48,21.52 79.34,21.82 80.21,21.87 81.09,21.92 81.97,21.77 82.84,21.53 83.7,21.58 84.58,21.5 85.46,21.58 86.32,21.71 87.19,21.87 88.07,21.86 88.95,21.92 89.81,21.82 90.68,21.84 91.55,21.79 92.43,21.74 93.29,21.68 94.16,21.61 95.04,21.5 95.92,20.53 96.79,20.47 97.66,20.35 98.53,20.1 99.41,18.88 100.27,17.67 101.14,16.69 102.02,16.45 102.9,15.27 103.76,13.86 104.63,12.96 105.5,11.52 106.38,10.63 107.24,10.67 108.11,11.67 108.99,14.32 109.87,16.17 110.74,21.98 111.61,21.82 112.49,21.84 113.36,21.89 114.22,21.94 115.09,21.84 115.97,21.89 116.85,21.69 117.71,18.55 118.58,11.67 " class="primitive"/>
          </g>
          <g transform="translate(-13.18,58.18)" id="img-a4c0d2bf-34" class="color_NFF" stroke="#D4CA3A" stroke-dasharray="none">
            <path fill="none" d="M-118.59,19.68 L-117.71,15.9 -116.83,9.42 -115.97,4.63 -115.11,-1.32 -114.23,-6.48 -113.35,-7.83 -112.48,-9.6 -111.61,-11.85 -110.73,-9.74 -109.85,-12.18 -108.99,-10.44 -108.13,-5.88 -107.25,1.27 -106.37,11.71 -105.51,15.28 -104.64,11.93 -103.76,5.64 -102.88,9.57 -102.02,7.51 -101.15,11.43 -100.28,13.76 -99.4,9.61 -98.53,12.61 -97.66,14.14 -96.78,20.26 -95.9,22.34 -95.04,20.78 -94.17,19.25 -93.3,16.82 -92.42,12.78 -91.56,13.57 -90.69,13.5 -89.81,16.02 -88.93,16.48 -88.07,16.27 -87.2,14.12 -86.33,10.73 -85.45,9.16 -84.58,8.75 -83.71,5.67 -82.83,10.11 -81.95,5.59 -81.09,3.44 -80.22,0.75 -79.34,-3.89 -78.47,-8.28 -77.61,-8.96 -76.74,-12.57 -75.86,-13.01 -74.98,-10.72 -74.12,-5.87 -73.25,-5.42 -72.37,-6.56 -71.5,-13.98 -70.63,-19.48 -69.76,-18.79 -68.88,-19.21 -68,-19.86 -67.14,-19.69 -66.27,-22.14 -65.39,-17.75 -64.52,-18.09 -63.66,-17.35 -62.79,-13.22 -61.91,-9.08 -61.03,-14.47 -60.17,-13.29 -59.3,-14.89 -58.42,-9.88 -57.54,-12.38 -56.68,-10.7 -55.81,-10.58 -54.93,-15.95 -54.05,-17.25 -53.19,-24.68 -52.32,-28.71 -51.44,-34.36 -50.56,-35.71 -49.7,-40.52 -48.84,-43.74 -47.96,-48.24 -47.08,-46.55 -46.22,-39.5 -45.35,-32.62 -44.47,-24.24 -43.59,-18.42 -42.72,-14.69 -41.86,-10.55 -40.98,-11.3 -40.1,-16.36 -39.24,-22.07 -38.37,-23.81 -37.49,-24.56 -36.61,-22.1 -35.75,-33.03 -34.88,-37.01 -34.01,-37.24 -33.13,-38.26 -32.27,-40.53 -31.4,-43.97 -30.52,-41.29 -29.64,-42.56 -28.77,-35.58 -27.9,-34.42 -27.03,-43.24 -26.15,-50.52 -25.29,-44.06 -24.42,-42.46 -23.54,-31.36 -22.66,-16.37 -21.8,-10.46 -20.93,-4.34 -20.05,2.57 -19.18,6.07 -18.32,6.93 -17.45,6.9 -16.57,6.1 -15.69,1.83 -14.82,-0.97 -13.95,0.15 -13.07,0.41 -12.2,0.41 -11.34,1.99 -10.47,2.59 -9.59,4.27 -8.71,7.7 -7.85,10.59 -6.98,11.7 -6.1,12.49 -5.23,11.63 -4.37,8.64 -3.5,5.91 -2.62,1.83 -1.74,1.35 -0.87,-2.03 -0,-4.87 0.88,-6.74 1.75,-9.33 2.61,-10.06 3.48,-6.61 4.36,-4.22 5.24,-5.4 6.1,-5.01 6.97,-4.5 7.85,-0.99 8.73,2.37 9.59,4.89 10.45,5.74 11.33,7.5 12.21,10.68 13.08,10.62 13.95,11.97 14.83,10.36 15.71,10.11 16.57,10.37 17.43,10.06 18.31,9.52 19.19,9.45 20.05,8.68 20.92,9.07 21.8,8 22.68,8.3 23.54,9.25 24.41,9.44 25.28,9.93 26.16,10.27 27.03,8.54 27.9,9.48 28.78,8.6 29.66,8.29 30.52,8.03 31.39,6.5 32.26,8.28 33.14,11.54 34,11.5 34.87,10.96 35.75,9.92 36.63,8.87 37.49,8.31 38.36,8.16 39.23,4.67 40.11,3.8 40.98,0.04 41.85,0.46 42.73,1.31 43.61,4.25 44.47,4.85 45.34,9.07 46.22,11.83 47.09,13.94 47.95,15.93 48.82,15.84 49.7,15.08 50.58,14.03 51.44,13.41 52.31,10.31 53.19,8.74 54.06,7.34 54.93,3.61 55.8,2.37 56.68,0.32 57.56,-1.48 58.42,-0.6 59.29,-3.02 60.17,-3.23 61.04,-4.42 61.9,-4.84 62.77,-2.33 63.65,0.1 64.53,-1.27 65.39,0.03 66.26,1.13 67.14,0.51 68.02,7.19 68.88,8.15 69.75,8.78 70.63,16.39 71.51,22.96 72.37,29.18 73.24,33.82 74.12,31.45 75,28.71 75.86,22.4 76.72,19.99 77.6,17.74 78.48,17.37 79.34,15.43 80.21,14.11 81.09,15.9 81.97,14.3 82.84,16.14 83.7,17.48 84.58,15.41 85.46,15.96 86.32,17.57 87.19,17.13 88.07,15.88 88.95,17.65 89.81,13.67 90.68,12.3 91.55,15.53 92.43,18.05 93.29,17.97 94.16,19.32 95.04,21.34 95.92,21.33 96.79,20.47 97.66,20.23 98.53,16.14 99.41,11.74 100.27,14.48 101.14,11.9 102.02,9.39 102.9,8.12 103.76,3.52 104.63,4.16 105.5,6.59 106.38,8.1 107.24,9.84 108.11,8.92 108.99,9.63 109.87,13.46 110.74,41.47 111.61,21.43 112.49,18.22 113.36,9.45 114.22,-7.9 115.09,-13.28 115.97,-24.08 116.85,-27.93 117.71,-31.4 118.58,-28.39 " class="primitive"/>
          </g>
        </g>
      </g>
    </g>
  </g>
  <g class="guide ylabels" font-size="2.82" font-family="'PT Sans Caption','Helvetica Neue','Helvetica',sans-serif" fill="#6C606B" id="img-a4c0d2bf-35">
    <g transform="translate(16.96,108.72)" id="img-a4c0d2bf-36">
      <g class="primitive">
        <text text-anchor="end" dy="0.35em">-5</text>
      </g>
    </g>
    <g transform="translate(16.96,84.5)" id="img-a4c0d2bf-37">
      <g class="primitive">
        <text text-anchor="end" dy="0.35em">0</text>
      </g>
    </g>
    <g transform="translate(16.96,60.28)" id="img-a4c0d2bf-38">
      <g class="primitive">
        <text text-anchor="end" dy="0.35em">5</text>
      </g>
    </g>
    <g transform="translate(16.96,36.06)" id="img-a4c0d2bf-39">
      <g class="primitive">
        <text text-anchor="end" dy="0.35em">10</text>
      </g>
    </g>
    <g transform="translate(16.96,11.84)" id="img-a4c0d2bf-40">
      <g class="primitive">
        <text text-anchor="end" dy="0.35em">15</text>
      </g>
    </g>
  </g>
  <g font-size="3.88" font-family="'PT Sans','Helvetica Neue','Helvetica',sans-serif" fill="#564A55" stroke="#000000" stroke-opacity="0.000" id="img-a4c0d2bf-41">
    <g transform="translate(8.81,55.86)" id="img-a4c0d2bf-42">
      <g class="primitive">
        <text text-anchor="middle" dy="0.35em" transform="rotate(-90,0, 2)">Percentage</text>
      </g>
    </g>
  </g>
</g>
<defs>
  <clipPath id="img-a4c0d2bf-13">
    <path d="M17.96,5 L107.39,5 107.39,110.72 17.96,110.72 " />
  </clipPath>
</defs>
</svg>
