<?xml version="1.0" encoding="UTF-8"?>
<svg xmlns="http://www.w3.org/2000/svg"
     xmlns:xlink="http://www.w3.org/1999/xlink"
     xmlns:gadfly="http://www.gadflyjl.org/ns"
     version="1.2"
     width="127mm" height="101.6mm" viewBox="0 0 127 101.6"
     stroke="none"
     fill="#000000"
     stroke-width="0.3"
     font-size="3.88"
>
<defs>
  <marker id="arrow" markerWidth="15" markerHeight="7" refX="5" refY="3.5" orient="auto" markerUnits="strokeWidth">
    <path d="M0,0 L15,3.5 L0,7 z" stroke="context-stroke" fill="context-stroke"/>
  </marker>
</defs>
<g class="plotroot xscalable yscalable" id="img-c86cbfd3-1">
  <g font-size="3.88" font-family="'PT Sans','Helvetica Neue','Helvetica',sans-serif" fill="#564A55" stroke="#000000" stroke-opacity="0.000" id="img-c86cbfd3-2">
    <g transform="translate(62.82,89.99)">
      <g class="primitive">
        <text text-anchor="middle" dy="0.6em">Year</text>
      </g>
    </g>
  </g>
  <g class="guide xlabels" font-size="2.82" font-family="'PT Sans Caption','Helvetica Neue','Helvetica',sans-serif" fill="#6C606B" id="img-c86cbfd3-3">
    <g transform="translate(6.99,83.31)">
      <g class="primitive">
        <text text-anchor="middle" dy="0.6em">1970</text>
      </g>
    </g>
    <g transform="translate(25.29,83.31)">
      <g class="primitive">
        <text text-anchor="middle" dy="0.6em">1980</text>
      </g>
    </g>
    <g transform="translate(43.6,83.31)">
      <g class="primitive">
        <text text-anchor="middle" dy="0.6em">1990</text>
      </g>
    </g>
    <g transform="translate(61.9,83.31)">
      <g class="primitive">
        <text text-anchor="middle" dy="0.6em">2000</text>
      </g>
    </g>
    <g transform="translate(80.21,83.31)">
      <g class="primitive">
        <text text-anchor="middle" dy="0.6em">2010</text>
      </g>
    </g>
    <g transform="translate(98.51,83.31)">
      <g class="primitive">
        <text text-anchor="middle" dy="0.6em">2020</text>
      </g>
    </g>
    <g transform="translate(116.81,83.31)">
      <g class="primitive">
        <text text-anchor="middle" dy="0.6em">2030</text>
      </g>
    </g>
  </g>
  <g class="guide colorkey" id="img-c86cbfd3-4">
    <g fill="#4C404B" font-size="2.82" font-family="'PT Sans','Helvetica Neue','Helvetica',sans-serif" id="img-c86cbfd3-5">
      <g transform="translate(109.81,44.65)" id="img-c86cbfd3-6" class="color_PCEPILFE">
        <g class="primitive">
          <text dy="0.35em">PCE</text>
        </g>
      </g>
      <g transform="translate(109.81,48.28)" id="img-c86cbfd3-7" class="color_LES1252881600Q_NBD20120101">
        <g class="primitive">
          <text dy="0.35em">Adj. MWW</text>
        </g>
      </g>
      <g transform="translate(109.81,51.9)" id="img-c86cbfd3-8" class="color_CPILFESL_NBD20120101">
        <g class="primitive">
          <text dy="0.35em">CPI</text>
        </g>
      </g>
    </g>
    <g fill-opacity="1" id="img-c86cbfd3-9">
      <g transform="translate(107.91,44.65)" id="img-c86cbfd3-10" class="color_PCEPILFE" stroke="#FFFFFF" fill="#00BFFF">
        <path d="M-0.91,-0.91 L0.91,-0.91 0.91,0.91 -0.91,0.91  z" class="primitive"/>
      </g>
      <g transform="translate(107.91,48.28)" id="img-c86cbfd3-11" class="color_LES1252881600Q_NBD20120101" stroke="#FFFFFF" fill="#D4CA3A">
        <path d="M-0.91,-0.91 L0.91,-0.91 0.91,0.91 -0.91,0.91  z" class="primitive"/>
      </g>
      <g transform="translate(107.91,51.9)" id="img-c86cbfd3-12" class="color_CPILFESL_NBD20120101" stroke="#FFFFFF" fill="#FF6DAE">
        <path d="M-0.91,-0.91 L0.91,-0.91 0.91,0.91 -0.91,0.91  z" class="primitive"/>
      </g>
    </g>
    <g fill="#362A35" font-size="3.88" font-family="'PT Sans','Helvetica Neue','Helvetica',sans-serif" stroke="#000000" stroke-opacity="0.000" id="img-c86cbfd3-13">
      <g transform="translate(107,40.83)" id="img-c86cbfd3-14">
        <g class="primitive">
          <text dy="-0em">Metric</text>
        </g>
      </g>
    </g>
  </g>
  <g clip-path="url(#img-c86cbfd3-15)">
    <g id="img-c86cbfd3-16">
      <g pointer-events="visible" stroke-width="0.3" fill="#000000" fill-opacity="0.000" stroke="#000000" stroke-opacity="0.000" class="guide background" id="img-c86cbfd3-17">
        <g transform="translate(62.82,46.46)" id="img-c86cbfd3-18">
          <path d="M-43.18,-35.85 L43.18,-35.85 43.18,35.85 -43.18,35.85  z" class="primitive"/>
        </g>
      </g>
      <g class="guide ygridlines xfixed" stroke-dasharray="0.5,0.5" stroke-width="0.2" stroke="#D0D0E0" id="img-c86cbfd3-19">
        <g transform="translate(62.82,80.31)" id="img-c86cbfd3-20">
          <path fill="none" d="M-43.18,0 L43.18,0 " class="primitive"/>
        </g>
        <g transform="translate(62.82,57.75)" id="img-c86cbfd3-21">
          <path fill="none" d="M-43.18,0 L43.18,0 " class="primitive"/>
        </g>
        <g transform="translate(62.82,35.18)" id="img-c86cbfd3-22">
          <path fill="none" d="M-43.18,0 L43.18,0 " class="primitive"/>
        </g>
        <g transform="translate(62.82,12.61)" id="img-c86cbfd3-23">
          <path fill="none" d="M-43.18,0 L43.18,0 " class="primitive"/>
        </g>
      </g>
      <g class="guide xgridlines yfixed" stroke-dasharray="0.5,0.5" stroke-width="0.2" stroke="#D0D0E0" id="img-c86cbfd3-24">
        <g transform="translate(6.99,46.46)" id="img-c86cbfd3-25">
          <path fill="none" d="M0,-35.85 L0,35.85 " class="primitive"/>
        </g>
        <g transform="translate(25.29,46.46)" id="img-c86cbfd3-26">
          <path fill="none" d="M0,-35.85 L0,35.85 " class="primitive"/>
        </g>
        <g transform="translate(43.6,46.46)" id="img-c86cbfd3-27">
          <path fill="none" d="M0,-35.85 L0,35.85 " class="primitive"/>
        </g>
        <g transform="translate(61.9,46.46)" id="img-c86cbfd3-28">
          <path fill="none" d="M0,-35.85 L0,35.85 " class="primitive"/>
        </g>
        <g transform="translate(80.21,46.46)" id="img-c86cbfd3-29">
          <path fill="none" d="M0,-35.85 L0,35.85 " class="primitive"/>
        </g>
        <g transform="translate(98.51,46.46)" id="img-c86cbfd3-30">
          <path fill="none" d="M0,-35.85 L0,35.85 " class="primitive"/>
        </g>
        <g transform="translate(116.81,46.46)" id="img-c86cbfd3-31">
          <path fill="none" d="M0,-35.85 L0,35.85 " class="primitive"/>
        </g>
      </g>
      <g class="plotpanel" id="img-c86cbfd3-32">
        <metadata>
          <boundingbox value="19.63166666666666mm 10.611666666666665mm 86.36833333333334mm 71.70333333333332mm"/>
          <unitbox value="1976-11-28 154.4310964501994 17234 days -158.86219290039878"/>
        </metadata>
        <g stroke-width="0.3" fill="#000000" fill-opacity="0.000" class="geometry" id="img-c86cbfd3-33">
          <g transform="translate(63.27,43.86)" id="img-c86cbfd3-34" class="color_PCEPILFE" stroke="#00BFFF" stroke-dasharray="none">
            <path fill="none" d="M-39.81,20.09 L-39.81,20.09 -39.81,20.09 -39.36,19.73 -39.36,19.73 -39.36,19.73 -38.9,19.42 -38.9,19.42 -38.9,19.42 -38.44,19.07 -38.44,19.07 -38.44,19.07 -37.98,18.64 -37.98,18.64 -37.98,18.64 -37.52,18.24 -37.52,18.24 -37.52,18.24 -37.07,17.84 -37.07,17.84 -37.07,17.84 -36.61,17.38 -36.61,17.38 -36.61,17.38 -36.15,16.96 -36.15,16.96 -36.15,16.96 -35.69,16.59 -35.69,16.59 -35.69,16.59 -35.24,16.22 -35.24,16.22 -35.24,16.22 -34.78,15.86 -34.78,15.86 -34.78,15.86 -34.32,15.56 -34.32,15.56 -34.32,15.56 -33.87,15.28 -33.87,15.28 -33.87,15.28 -33.41,14.94 -33.41,14.94 -33.41,14.94 -32.95,14.64 -32.95,14.64 -32.95,14.64 -32.49,14.35 -32.49,14.35 -32.49,14.35 -32.04,14.19 -32.04,14.19 -32.04,14.19 -31.58,13.85 -31.58,13.85 -31.58,13.85 -31.12,13.67 -31.12,13.67 -31.12,13.67 -30.66,13.44 -30.66,13.44 -30.66,13.44 -30.2,13.17 -30.2,13.17 -30.2,13.17 -29.75,12.95 -29.75,12.95 -29.75,12.95 -29.28,12.78 -29.28,12.78 -29.28,12.78 -28.82,12.46 -28.82,12.46 -28.82,12.46 -28.37,12.25 -28.37,12.25 -28.37,12.25 -27.92,12 -27.92,12 -27.92,12 -27.46,11.83 -27.46,11.83 -27.46,11.83 -26.99,11.56 -26.99,11.56 -26.99,11.56 -26.54,11.39 -26.54,11.39 -26.54,11.39 -26.09,11.22 -26.09,11.22 -26.09,11.22 -25.63,11.01 -25.63,11.01 -25.63,11.01 -25.17,10.85 -25.17,10.85 -25.17,10.85 -24.71,10.6 -24.71,10.6 -24.71,10.6 -24.26,10.37 -24.26,10.37 -24.26,10.37 -23.8,10.11 -23.8,10.11 -23.8,10.11 -23.34,9.85 -23.34,9.85 -23.34,9.85 -22.88,9.53 -22.88,9.53 -22.88,9.53 -22.42,9.22 -22.42,9.22 -22.42,9.22 -21.96,8.92 -21.96,8.92 -21.96,8.92 -21.5,8.61 -21.5,8.61 -21.5,8.61 -21.05,8.36 -21.05,8.36 -21.05,8.36 -20.59,8.15 -20.59,8.15 -20.59,8.15 -20.13,7.89 -20.13,7.89 -20.13,7.89 -19.67,7.56 -19.67,7.56 -19.67,7.56 -19.22,7.24 -19.22,7.24 -19.22,7.24 -18.77,6.95 -18.77,6.95 -18.77,6.95 -18.3,6.7 -18.3,6.7 -18.3,6.7 -17.84,6.43 -17.84,6.43 -17.84,6.43 -17.39,6.2 -17.39,6.2 -17.39,6.2 -16.94,5.93 -16.94,5.93 -16.94,5.93 -16.48,5.69 -16.48,5.69 -16.48,5.69 -16.01,5.46 -16.01,5.46 -16.01,5.46 -15.56,5.24 -15.56,5.24 -15.56,5.24 -15.1,5.05 -15.1,5.05 -15.1,5.05 -14.64,4.82 -14.64,4.82 -14.64,4.82 -14.18,4.6 -14.18,4.6 -14.18,4.6 -13.73,4.36 -13.73,4.36 -13.73,4.36 -13.27,4.18 -13.27,4.18 -13.27,4.18 -12.81,4.02 -12.81,4.02 -12.81,4.02 -12.35,3.87 -12.35,3.87 -12.35,3.87 -11.9,3.65 -11.9,3.65 -11.9,3.65 -11.44,3.47 -11.44,3.47 -11.44,3.47 -10.98,3.3 -10.98,3.3 -10.98,3.3 -10.52,3.12 -10.52,3.12 -10.52,3.12 -10.07,2.93 -10.07,2.93 -10.07,2.93 -9.61,2.77 -9.61,2.77 -9.61,2.77 -9.15,2.6 -9.15,2.6 -9.15,2.6 -8.69,2.46 -8.69,2.46 -8.69,2.46 -8.24,2.3 -8.24,2.3 -8.24,2.3 -7.78,2.15 -7.78,2.15 -7.78,2.15 -7.32,1.95 -7.32,1.95 -7.32,1.95 -6.86,1.82 -6.86,1.82 -6.86,1.82 -6.41,1.64 -6.41,1.64 -6.41,1.64 -5.95,1.55 -5.95,1.55 -5.95,1.55 -5.49,1.44 -5.49,1.44 -5.49,1.44 -5.03,1.34 -5.03,1.34 -5.03,1.34 -4.58,1.23 -4.58,1.23 -4.58,1.23 -4.12,1.11 -4.12,1.11 -4.12,1.11 -3.66,1 -3.66,1 -3.66,1 -3.2,0.91 -3.2,0.91 -3.2,0.91 -2.75,0.78 -2.75,0.78 -2.75,0.78 -2.29,0.65 -2.29,0.65 -2.29,0.65 -1.83,0.48 -1.83,0.48 -1.83,0.48 -1.37,0.29 -1.37,0.29 -1.37,0.29 -0.91,0.17 -0.91,0.17 -0.91,0.17 -0.46,-0.01 -0.46,-0.01 -0.46,-0.01 0,-0.19 0,-0.19 0,-0.19 0.46,-0.43 0.46,-0.43 0.46,-0.43 0.91,-0.56 0.91,-0.56 0.91,-0.56 1.37,-0.66 1.37,-0.66 1.37,-0.66 1.83,-0.84 1.83,-0.84 1.83,-0.84 2.29,-0.95 2.29,-0.95 2.29,-0.95 2.74,-1.16 2.74,-1.16 2.74,-1.16 3.2,-1.36 3.2,-1.36 3.2,-1.36 3.66,-1.49 3.66,-1.49 3.66,-1.49 4.12,-1.61 4.12,-1.61 4.12,-1.61 4.57,-1.76 4.57,-1.76 4.57,-1.76 5.03,-1.93 5.03,-1.93 5.03,-1.93 5.49,-2.1 5.49,-2.1 5.49,-2.1 5.95,-2.32 5.95,-2.32 5.95,-2.32 6.41,-2.54 6.41,-2.54 6.41,-2.54 6.86,-2.68 6.86,-2.68 6.86,-2.68 7.32,-2.89 7.32,-2.89 7.32,-2.89 7.79,-3.17 7.79,-3.17 7.79,-3.17 8.24,-3.36 8.24,-3.36 8.24,-3.36 8.69,-3.52 8.69,-3.52 8.69,-3.52 9.15,-3.79 9.15,-3.79 9.15,-3.79 9.61,-4.02 9.61,-4.02 9.61,-4.02 10.07,-4.34 10.07,-4.34 10.07,-4.34 10.52,-4.56 10.52,-4.56 10.52,-4.56 10.98,-4.74 10.98,-4.74 10.98,-4.74 11.44,-5.02 11.44,-5.02 11.44,-5.02 11.89,-5.2 11.89,-5.2 11.89,-5.2 12.35,-5.4 12.35,-5.4 12.35,-5.4 12.81,-5.69 12.81,-5.69 12.81,-5.69 13.27,-5.91 13.27,-5.91 13.27,-5.91 13.73,-6.09 13.73,-6.09 13.73,-6.09 14.18,-6.31 14.18,-6.31 14.18,-6.31 14.65,-6.27 14.65,-6.27 14.65,-6.27 15.11,-6.27 15.11,-6.27 15.11,-6.27 15.56,-6.44 15.56,-6.44 15.56,-6.44 16.01,-6.59 16.01,-6.59 16.01,-6.59 16.48,-6.86 16.48,-6.86 16.48,-6.86 16.94,-7.01 16.94,-7.01 16.94,-7.01 17.39,-7.13 17.39,-7.13 17.39,-7.13 17.84,-7.19 17.84,-7.19 17.84,-7.19 18.3,-7.33 18.3,-7.33 18.3,-7.33 18.77,-7.52 18.77,-7.52 18.77,-7.52 19.22,-7.78 19.22,-7.78 19.22,-7.78 19.67,-7.98 19.67,-7.98 19.67,-7.98 20.13,-8.14 20.13,-8.14 20.13,-8.14 20.59,-8.42 20.59,-8.42 20.59,-8.42 21.05,-8.61 21.05,-8.61 21.05,-8.61 21.51,-8.74 21.51,-8.74 21.51,-8.74 21.97,-8.94 21.97,-8.94 21.97,-8.94 22.43,-9.12 22.43,-9.12 22.43,-9.12 22.88,-9.26 22.88,-9.26 22.88,-9.26 23.34,-9.44 23.34,-9.44 23.34,-9.44 23.8,-9.66 23.8,-9.66 23.8,-9.66 24.26,-9.82 24.26,-9.82 24.26,-9.82 24.71,-10.05 24.71,-10.05 24.71,-10.05 25.17,-10.23 25.17,-10.23 25.17,-10.23 25.63,-10.36 25.63,-10.36 25.63,-10.36 26.09,-10.46 26.09,-10.46 26.09,-10.46 26.54,-10.66 26.54,-10.66 26.54,-10.66 26.99,-10.8 26.99,-10.8 26.99,-10.8 27.46,-10.9 27.46,-10.9 27.46,-10.9 27.92,-11.1 27.92,-11.1 27.92,-11.1 28.37,-11.36 28.37,-11.36 28.37,-11.36 28.83,-11.58 28.83,-11.58 28.83,-11.58 29.29,-11.76 29.29,-11.76 29.29,-11.76 29.75,-11.99 29.75,-11.99 29.75,-11.99 30.2,-12.17 30.2,-12.17 30.2,-12.17 30.66,-12.32 30.66,-12.32 30.66,-12.32 31.12,-12.56 31.12,-12.56 31.12,-12.56 31.58,-12.88 31.58,-12.88 31.58,-12.88 32.03,-13.16 32.03,-13.16 32.03,-13.16 32.49,-13.33 32.49,-13.33 32.49,-13.33 32.95,-13.56 32.95,-13.56 32.95,-13.56 33.41,-13.75 33.41,-13.75 33.41,-13.75 33.86,-14.01 33.86,-14.01 33.86,-14.01 34.32,-14.21 34.32,-14.21 34.32,-14.21 34.78,-14.36 34.78,-14.36 34.78,-14.36 35.24,-14.6 35.24,-14.6 35.24,-14.6 35.69,-14.48 35.69,-14.48 35.69,-14.48 36.15,-14.87 36.15,-14.87 36.15,-14.87 36.61,-15.07 36.61,-15.07 36.61,-15.07 37.07,-15.48 37.07,-15.48 37.07,-15.48 37.52,-16.25 37.52,-16.25 37.52,-16.25 37.98,-16.87 37.98,-16.87 37.98,-16.87 38.44,-17.5 38.44,-17.5 38.44,-17.5 38.9,-18.25 38.9,-18.25 38.9,-18.25 39.35,-18.87 39.35,-18.87 39.35,-18.87 39.81,-19.5 39.81,-19.5 39.81,-19.5 " class="primitive"/>
          </g>
          <g transform="translate(63.27,35.65)" id="img-c86cbfd3-35" class="color_LES1252881600Q_NBD20120101" stroke="#D4CA3A" stroke-dasharray="none">
            <path fill="none" d="M-39.81,-0.47 L-39.81,-0.47 -39.81,-0.47 -39.36,-0.47 -39.36,-0.47 -39.36,-0.47 -38.9,0.21 -38.9,0.21 -38.9,0.21 -38.44,0.75 -38.44,0.75 -38.44,0.75 -37.98,1.42 -37.98,1.42 -37.98,1.42 -37.52,2.23 -37.52,2.23 -37.52,2.23 -37.07,1.69 -37.07,1.69 -37.07,1.69 -36.61,2.23 -36.61,2.23 -36.61,2.23 -36.15,2.36 -36.15,2.36 -36.15,2.36 -35.69,2.77 -35.69,2.77 -35.69,2.77 -35.24,3.04 -35.24,3.04 -35.24,3.04 -34.78,2.63 -34.78,2.63 -34.78,2.63 -34.32,2.63 -34.32,2.63 -34.32,2.63 -33.87,2.36 -33.87,2.36 -33.87,2.36 -33.41,2.77 -33.41,2.77 -33.41,2.77 -32.95,2.5 -32.95,2.5 -32.95,2.5 -32.49,2.23 -32.49,2.23 -32.49,2.23 -32.04,2.36 -32.04,2.36 -32.04,2.36 -31.58,2.23 -31.58,2.23 -31.58,2.23 -31.12,2.63 -31.12,2.63 -31.12,2.63 -30.66,2.5 -30.66,2.5 -30.66,2.5 -30.2,2.63 -30.2,2.63 -30.2,2.63 -29.75,2.5 -29.75,2.5 -29.75,2.5 -29.28,2.09 -29.28,2.09 -29.28,2.09 -28.82,2.36 -28.82,2.36 -28.82,2.36 -28.37,1.15 -28.37,1.15 -28.37,1.15 -27.92,1.55 -27.92,1.55 -27.92,1.55 -27.46,1.55 -27.46,1.55 -27.46,1.55 -26.99,1.42 -26.99,1.42 -26.99,1.42 -26.54,0.48 -26.54,0.48 -26.54,0.48 -26.09,0.48 -26.09,0.48 -26.09,0.48 -25.63,0.07 -25.63,0.07 -25.63,0.07 -25.17,0.48 -25.17,0.48 -25.17,0.48 -24.71,0.48 -24.71,0.48 -24.71,0.48 -24.26,0.21 -24.26,0.21 -24.26,0.21 -23.8,0.48 -23.8,0.48 -23.8,0.48 -23.34,0.34 -23.34,0.34 -23.34,0.34 -22.88,0.88 -22.88,0.88 -22.88,0.88 -22.42,0.88 -22.42,0.88 -22.42,0.88 -21.96,1.02 -21.96,1.02 -21.96,1.02 -21.5,1.15 -21.5,1.15 -21.5,1.15 -21.05,1.28 -21.05,1.28 -21.05,1.28 -20.59,1.28 -20.59,1.28 -20.59,1.28 -20.13,1.28 -20.13,1.28 -20.13,1.28 -19.67,1.69 -19.67,1.69 -19.67,1.69 -19.22,1.69 -19.22,1.69 -19.22,1.69 -18.77,2.5 -18.77,2.5 -18.77,2.5 -18.3,2.63 -18.3,2.63 -18.3,2.63 -17.84,2.09 -17.84,2.09 -17.84,2.09 -17.39,2.63 -17.39,2.63 -17.39,2.63 -16.94,2.63 -16.94,2.63 -16.94,2.63 -16.48,2.5 -16.48,2.5 -16.48,2.5 -16.01,2.23 -16.01,2.23 -16.01,2.23 -15.56,2.5 -15.56,2.5 -15.56,2.5 -15.1,2.36 -15.1,2.36 -15.1,2.36 -14.64,2.63 -14.64,2.63 -14.64,2.63 -14.18,2.23 -14.18,2.23 -14.18,2.23 -13.73,1.96 -13.73,1.96 -13.73,1.96 -13.27,1.69 -13.27,1.69 -13.27,1.69 -12.81,1.69 -12.81,1.69 -12.81,1.69 -12.35,2.09 -12.35,2.09 -12.35,2.09 -11.9,1.96 -11.9,1.96 -11.9,1.96 -11.44,2.36 -11.44,2.36 -11.44,2.36 -10.98,2.36 -10.98,2.36 -10.98,2.36 -10.52,2.5 -10.52,2.5 -10.52,2.5 -10.07,2.36 -10.07,2.36 -10.07,2.36 -9.61,1.96 -9.61,1.96 -9.61,1.96 -9.15,2.5 -9.15,2.5 -9.15,2.5 -8.69,2.63 -8.69,2.63 -8.69,2.63 -8.24,2.63 -8.24,2.63 -8.24,2.63 -7.78,2.36 -7.78,2.36 -7.78,2.36 -7.32,2.5 -7.32,2.5 -7.32,2.5 -6.86,2.5 -6.86,2.5 -6.86,2.5 -6.41,2.36 -6.41,2.36 -6.41,2.36 -5.95,2.36 -5.95,2.36 -5.95,2.36 -5.49,2.36 -5.49,2.36 -5.49,2.36 -5.03,1.69 -5.03,1.69 -5.03,1.69 -4.58,1.69 -4.58,1.69 -4.58,1.69 -4.12,1.42 -4.12,1.42 -4.12,1.42 -3.66,0.48 -3.66,0.48 -3.66,0.48 -3.2,1.02 -3.2,1.02 -3.2,1.02 -2.75,0.34 -2.75,0.34 -2.75,0.34 -2.29,0.21 -2.29,0.21 -2.29,0.21 -1.83,-0.47 -1.83,-0.47 -1.83,-0.47 -1.37,-0.33 -1.37,-0.33 -1.37,-0.33 -0.91,-0.33 -0.91,-0.33 -0.91,-0.33 -0.46,-0.47 -0.46,-0.47 -0.46,-0.47 0,-0.33 0,-0.33 0,-0.33 0.46,-0.2 0.46,-0.2 0.46,-0.2 0.91,-0.6 0.91,-0.6 0.91,-0.6 1.37,-0.87 1.37,-0.87 1.37,-0.87 1.83,-1.14 1.83,-1.14 1.83,-1.14 2.29,-1.27 2.29,-1.27 2.29,-1.27 2.74,-1.01 2.74,-1.01 2.74,-1.01 3.2,-0.74 3.2,-0.74 3.2,-0.74 3.66,-0.6 3.66,-0.6 3.66,-0.6 4.12,-0.47 4.12,-0.47 4.12,-0.47 4.57,-0.87 4.57,-0.87 4.57,-0.87 5.03,-0.74 5.03,-0.74 5.03,-0.74 5.49,-0.74 5.49,-0.74 5.49,-0.74 5.95,-0.74 5.95,-0.74 5.95,-0.74 6.41,-1.27 6.41,-1.27 6.41,-1.27 6.86,-0.47 6.86,-0.47 6.86,-0.47 7.32,-0.74 7.32,-0.74 7.32,-0.74 7.79,-0.6 7.79,-0.6 7.79,-0.6 8.24,-0.33 8.24,-0.33 8.24,-0.33 8.69,0.07 8.69,0.07 8.69,0.07 9.15,-0.06 9.15,-0.06 9.15,-0.06 9.61,-0.06 9.61,-0.06 9.61,-0.06 10.07,0.34 10.07,0.34 10.07,0.34 10.52,-0.33 10.52,-0.33 10.52,-0.33 10.98,-0.74 10.98,-0.74 10.98,-0.74 11.44,-0.6 11.44,-0.6 11.44,-0.6 11.89,-0.47 11.89,-0.47 11.89,-0.47 12.35,-0.6 12.35,-0.6 12.35,-0.6 12.81,-0.06 12.81,-0.06 12.81,-0.06 13.27,-0.47 13.27,-0.47 13.27,-0.47 13.73,-0.47 13.73,-0.47 13.73,-0.47 14.18,0.07 14.18,0.07 14.18,0.07 14.65,-1.14 14.65,-1.14 14.65,-1.14 15.11,-1.81 15.11,-1.81 15.11,-1.81 15.56,-1.81 15.56,-1.81 15.56,-1.81 16.01,-1.81 16.01,-1.81 16.01,-1.81 16.48,-1.68 16.48,-1.68 16.48,-1.68 16.94,-1.68 16.94,-1.68 16.94,-1.68 17.39,-1.41 17.39,-1.41 17.39,-1.41 17.84,-1.41 17.84,-1.41 17.84,-1.41 18.3,-1.27 18.3,-1.27 18.3,-1.27 18.77,-0.87 18.77,-0.87 18.77,-0.87 19.22,-0.6 19.22,-0.6 19.22,-0.6 19.67,-0.6 19.67,-0.6 19.67,-0.6 20.13,-0.47 20.13,-0.47 20.13,-0.47 20.59,-0.47 20.59,-0.47 20.59,-0.47 21.05,-0.74 21.05,-0.74 21.05,-0.74 21.51,-0.2 21.51,-0.2 21.51,-0.2 21.97,-0.2 21.97,-0.2 21.97,-0.2 22.43,0.07 22.43,0.07 22.43,0.07 22.88,-0.47 22.88,-0.47 22.88,-0.47 23.34,-0.33 23.34,-0.33 23.34,-0.33 23.8,-0.33 23.8,-0.33 23.8,-0.33 24.26,-0.47 24.26,-0.47 24.26,-0.47 24.71,0.21 24.71,0.21 24.71,0.21 25.17,-0.6 25.17,-0.6 25.17,-0.6 25.63,-0.6 25.63,-0.6 25.63,-0.6 26.09,-1.27 26.09,-1.27 26.09,-1.27 26.54,-1.01 26.54,-1.01 26.54,-1.01 26.99,-1.14 26.99,-1.14 26.99,-1.14 27.46,-1.81 27.46,-1.81 27.46,-1.81 27.92,-1.95 27.92,-1.95 27.92,-1.95 28.37,-1.81 28.37,-1.81 28.37,-1.81 28.83,-2.08 28.83,-2.08 28.83,-2.08 29.29,-2.35 29.29,-2.35 29.29,-2.35 29.75,-2.76 29.75,-2.76 29.75,-2.76 30.2,-3.03 30.2,-3.03 30.2,-3.03 30.66,-2.76 30.66,-2.76 30.66,-2.76 31.12,-1.81 31.12,-1.81 31.12,-1.81 31.58,-2.62 31.58,-2.62 31.58,-2.62 32.03,-2.62 32.03,-2.62 32.03,-2.62 32.49,-3.03 32.49,-3.03 32.49,-3.03 32.95,-3.16 32.95,-3.16 32.95,-3.16 33.41,-3.16 33.41,-3.16 33.41,-3.16 33.86,-3.57 33.86,-3.57 33.86,-3.57 34.32,-3.83 34.32,-3.83 34.32,-3.83 34.78,-4.1 34.78,-4.1 34.78,-4.1 35.24,-4.91 35.24,-4.91 35.24,-4.91 35.69,-8.28 35.69,-8.28 35.69,-8.28 36.15,-7.07 36.15,-7.07 36.15,-7.07 36.61,-5.99 36.61,-5.99 36.61,-5.99 37.07,-5.59 37.07,-5.59 37.07,-5.59 37.52,-5.32 37.52,-5.32 37.52,-5.32 37.98,-4.78 37.98,-4.78 37.98,-4.78 38.44,-4.1 38.44,-4.1 38.44,-4.1 38.9,-4.1 38.9,-4.1 38.9,-4.1 39.35,-3.57 39.35,-3.57 39.35,-3.57 39.81,-3.97 39.81,-3.97 39.81,-3.97 " class="primitive"/>
          </g>
          <g transform="translate(63.27,44.63)" id="img-c86cbfd3-36" class="color_CPILFESL_NBD20120101" stroke="#FF6DAE" stroke-dasharray="none">
            <path fill="none" d="M-39.81,22 L-39.81,22 -39.81,22 -39.36,21.68 -39.36,21.68 -39.36,21.68 -38.9,21.31 -38.9,21.31 -38.9,21.31 -38.44,20.88 -38.44,20.88 -38.44,20.88 -37.98,20.33 -37.98,20.33 -37.98,20.33 -37.52,19.82 -37.52,19.82 -37.52,19.82 -37.07,19.58 -37.07,19.58 -37.07,19.58 -36.61,19.08 -36.61,19.08 -36.61,19.08 -36.15,18.69 -36.15,18.69 -36.15,18.69 -35.69,18.31 -35.69,18.31 -35.69,18.31 -35.24,17.73 -35.24,17.73 -35.24,17.73 -34.78,17.38 -34.78,17.38 -34.78,17.38 -34.32,17.15 -34.32,17.15 -34.32,17.15 -33.87,16.81 -33.87,16.81 -33.87,16.81 -33.41,16.49 -33.41,16.49 -33.41,16.49 -32.95,16.43 -32.95,16.43 -32.95,16.43 -32.49,16.31 -32.49,16.31 -32.49,16.31 -32.04,16.12 -32.04,16.12 -32.04,16.12 -31.58,15.87 -31.58,15.87 -31.58,15.87 -31.12,15.62 -31.12,15.62 -31.12,15.62 -30.66,15.34 -30.66,15.34 -30.66,15.34 -30.2,15.09 -30.2,15.09 -30.2,15.09 -29.75,14.83 -29.75,14.83 -29.75,14.83 -29.28,14.62 -29.28,14.62 -29.28,14.62 -28.82,14.39 -28.82,14.39 -28.82,14.39 -28.37,14.16 -28.37,14.16 -28.37,14.16 -27.92,13.97 -27.92,13.97 -27.92,13.97 -27.46,13.72 -27.46,13.72 -27.46,13.72 -26.99,13.49 -26.99,13.49 -26.99,13.49 -26.54,13.3 -26.54,13.3 -26.54,13.3 -26.09,13.09 -26.09,13.09 -26.09,13.09 -25.63,12.87 -25.63,12.87 -25.63,12.87 -25.17,12.69 -25.17,12.69 -25.17,12.69 -24.71,12.41 -24.71,12.41 -24.71,12.41 -24.26,12.19 -24.26,12.19 -24.26,12.19 -23.8,11.92 -23.8,11.92 -23.8,11.92 -23.34,11.69 -23.34,11.69 -23.34,11.69 -22.88,11.4 -22.88,11.4 -22.88,11.4 -22.42,11.13 -22.42,11.13 -22.42,11.13 -21.96,10.83 -21.96,10.83 -21.96,10.83 -21.5,10.57 -21.5,10.57 -21.5,10.57 -21.05,10.3 -21.05,10.3 -21.05,10.3 -20.59,10.06 -20.59,10.06 -20.59,10.06 -20.13,9.75 -20.13,9.75 -20.13,9.75 -19.67,9.42 -19.67,9.42 -19.67,9.42 -19.22,9.07 -19.22,9.07 -19.22,9.07 -18.77,8.68 -18.77,8.68 -18.77,8.68 -18.3,8.37 -18.3,8.37 -18.3,8.37 -17.84,7.97 -17.84,7.97 -17.84,7.97 -17.39,7.72 -17.39,7.72 -17.39,7.72 -16.94,7.42 -16.94,7.42 -16.94,7.42 -16.48,7.15 -16.48,7.15 -16.48,7.15 -16.01,6.9 -16.01,6.9 -16.01,6.9 -15.56,6.65 -15.56,6.65 -15.56,6.65 -15.1,6.43 -15.1,6.43 -15.1,6.43 -14.64,6.16 -14.64,6.16 -14.64,6.16 -14.18,5.91 -14.18,5.91 -14.18,5.91 -13.73,5.66 -13.73,5.66 -13.73,5.66 -13.27,5.48 -13.27,5.48 -13.27,5.48 -12.81,5.24 -12.81,5.24 -12.81,5.24 -12.35,5.04 -12.35,5.04 -12.35,5.04 -11.9,4.83 -11.9,4.83 -11.9,4.83 -11.44,4.6 -11.44,4.6 -11.44,4.6 -10.98,4.4 -10.98,4.4 -10.98,4.4 -10.52,4.14 -10.52,4.14 -10.52,4.14 -10.07,3.88 -10.07,3.88 -10.07,3.88 -9.61,3.67 -9.61,3.67 -9.61,3.67 -9.15,3.45 -9.15,3.45 -9.15,3.45 -8.69,3.23 -8.69,3.23 -8.69,3.23 -8.24,3.04 -8.24,3.04 -8.24,3.04 -7.78,2.83 -7.78,2.83 -7.78,2.83 -7.32,2.62 -7.32,2.62 -7.32,2.62 -6.86,2.43 -6.86,2.43 -6.86,2.43 -6.41,2.21 -6.41,2.21 -6.41,2.21 -5.95,2.07 -5.95,2.07 -5.95,2.07 -5.49,1.88 -5.49,1.88 -5.49,1.88 -5.03,1.67 -5.03,1.67 -5.03,1.67 -4.58,1.48 -4.58,1.48 -4.58,1.48 -4.12,1.28 -4.12,1.28 -4.12,1.28 -3.66,1.09 -3.66,1.09 -3.66,1.09 -3.2,0.93 -3.2,0.93 -3.2,0.93 -2.75,0.77 -2.75,0.77 -2.75,0.77 -2.29,0.59 -2.29,0.59 -2.29,0.59 -1.83,0.39 -1.83,0.39 -1.83,0.39 -1.37,0.16 -1.37,0.16 -1.37,0.16 -0.91,-0.07 -0.91,-0.07 -0.91,-0.07 -0.46,-0.31 -0.46,-0.31 -0.46,-0.31 0,-0.52 0,-0.52 0,-0.52 0.46,-0.79 0.46,-0.79 0.46,-0.79 0.91,-1.01 0.91,-1.01 0.91,-1.01 1.37,-1.26 1.37,-1.26 1.37,-1.26 1.83,-1.51 1.83,-1.51 1.83,-1.51 2.29,-1.71 2.29,-1.71 2.29,-1.71 2.74,-1.9 2.74,-1.9 2.74,-1.9 3.2,-2.1 3.2,-2.1 3.2,-2.1 3.66,-2.27 3.66,-2.27 3.66,-2.27 4.12,-2.4 4.12,-2.4 4.12,-2.4 4.57,-2.46 4.57,-2.46 4.57,-2.46 5.03,-2.61 5.03,-2.61 5.03,-2.61 5.49,-2.71 5.49,-2.71 5.49,-2.71 5.95,-2.9 5.95,-2.9 5.95,-2.9 6.41,-3.14 6.41,-3.14 6.41,-3.14 6.86,-3.31 6.86,-3.31 6.86,-3.31 7.32,-3.54 7.32,-3.54 7.32,-3.54 7.79,-3.79 7.79,-3.79 7.79,-3.79 8.24,-3.97 8.24,-3.97 8.24,-3.97 8.69,-4.1 8.69,-4.1 8.69,-4.1 9.15,-4.37 9.15,-4.37 9.15,-4.37 9.61,-4.62 9.61,-4.62 9.61,-4.62 10.07,-4.95 10.07,-4.95 10.07,-4.95 10.52,-5.22 10.52,-5.22 10.52,-5.22 10.98,-5.44 10.98,-5.44 10.98,-5.44 11.44,-5.68 11.44,-5.68 11.44,-5.68 11.89,-5.88 11.89,-5.88 11.89,-5.88 12.35,-6.09 12.35,-6.09 12.35,-6.09 12.81,-6.39 12.81,-6.39 12.81,-6.39 13.27,-6.66 13.27,-6.66 13.27,-6.66 13.73,-6.85 13.73,-6.85 13.73,-6.85 14.18,-7.12 14.18,-7.12 14.18,-7.12 14.65,-7.23 14.65,-7.23 14.65,-7.23 15.11,-7.41 15.11,-7.41 15.11,-7.41 15.56,-7.63 15.56,-7.63 15.56,-7.63 16.01,-7.76 16.01,-7.76 16.01,-7.76 16.48,-7.98 16.48,-7.98 16.48,-7.98 16.94,-7.98 16.94,-7.98 16.94,-7.98 17.39,-8.04 17.39,-8.04 17.39,-8.04 17.84,-8.15 17.84,-8.15 17.84,-8.15 18.3,-8.26 18.3,-8.26 18.3,-8.26 18.77,-8.47 18.77,-8.47 18.77,-8.47 19.22,-8.67 19.22,-8.67 19.22,-8.67 19.67,-8.98 19.67,-8.98 19.67,-8.98 20.13,-9.22 20.13,-9.22 20.13,-9.22 20.59,-9.45 20.59,-9.45 20.59,-9.45 21.05,-9.67 21.05,-9.67 21.05,-9.67 21.51,-9.88 21.51,-9.88 21.51,-9.88 21.97,-10.09 21.97,-10.09 21.97,-10.09 22.43,-10.32 22.43,-10.32 22.43,-10.32 22.88,-10.43 22.88,-10.43 22.88,-10.43 23.34,-10.67 23.34,-10.67 23.34,-10.67 23.8,-10.88 23.8,-10.88 23.8,-10.88 24.26,-11.06 24.26,-11.06 24.26,-11.06 24.71,-11.3 24.71,-11.3 24.71,-11.3 25.17,-11.5 25.17,-11.5 25.17,-11.5 25.63,-11.68 25.63,-11.68 25.63,-11.68 26.09,-11.85 26.09,-11.85 26.09,-11.85 26.54,-12.14 26.54,-12.14 26.54,-12.14 26.99,-12.37 26.99,-12.37 26.99,-12.37 27.46,-12.63 27.46,-12.63 27.46,-12.63 27.92,-12.88 27.92,-12.88 27.92,-12.88 28.37,-13.2 28.37,-13.2 28.37,-13.2 28.83,-13.46 28.83,-13.46 28.83,-13.46 29.29,-13.68 29.29,-13.68 29.29,-13.68 29.75,-13.94 29.75,-13.94 29.75,-13.94 30.2,-14.07 30.2,-14.07 30.2,-14.07 30.66,-14.26 30.66,-14.26 30.66,-14.26 31.12,-14.55 31.12,-14.55 31.12,-14.55 31.58,-14.88 31.58,-14.88 31.58,-14.88 32.03,-15.18 32.03,-15.18 32.03,-15.18 32.49,-15.39 32.49,-15.39 32.49,-15.39 32.95,-15.65 32.95,-15.65 32.95,-15.65 33.41,-15.94 33.41,-15.94 33.41,-15.94 33.86,-16.23 33.86,-16.23 33.86,-16.23 34.32,-16.56 34.32,-16.56 34.32,-16.56 34.78,-16.83 34.78,-16.83 34.78,-16.83 35.24,-17.1 35.24,-17.1 35.24,-17.1 35.69,-16.91 35.69,-16.91 35.69,-16.91 36.15,-17.43 36.15,-17.43 36.15,-17.43 36.61,-17.68 36.61,-17.68 36.61,-17.68 37.07,-17.87 37.07,-17.87 37.07,-17.87 37.52,-18.88 37.52,-18.88 37.52,-18.88 37.98,-19.59 37.98,-19.59 37.98,-19.59 38.44,-20.35 38.44,-20.35 38.44,-20.35 38.9,-21.24 38.9,-21.24 38.9,-21.24 39.35,-22.16 39.35,-22.16 39.35,-22.16 39.81,-23.07 39.81,-23.07 39.81,-23.07 " class="primitive"/>
          </g>
        </g>
      </g>
    </g>
  </g>
  <g class="guide ylabels" font-size="2.82" font-family="'PT Sans Caption','Helvetica Neue','Helvetica',sans-serif" fill="#6C606B" id="img-c86cbfd3-37">
    <g transform="translate(18.63,80.31)" id="img-c86cbfd3-38">
      <g class="primitive">
        <text text-anchor="end" dy="0.35em">0</text>
      </g>
    </g>
    <g transform="translate(18.63,57.75)" id="img-c86cbfd3-39">
      <g class="primitive">
        <text text-anchor="end" dy="0.35em">50</text>
      </g>
    </g>
    <g transform="translate(18.63,35.18)" id="img-c86cbfd3-40">
      <g class="primitive">
        <text text-anchor="end" dy="0.35em">100</text>
      </g>
    </g>
    <g transform="translate(18.63,12.61)" id="img-c86cbfd3-41">
      <g class="primitive">
        <text text-anchor="end" dy="0.35em">150</text>
      </g>
    </g>
  </g>
  <g font-size="3.88" font-family="'PT Sans','Helvetica Neue','Helvetica',sans-serif" fill="#564A55" stroke="#000000" stroke-opacity="0.000" id="img-c86cbfd3-42">
    <g transform="translate(8.81,44.46)" id="img-c86cbfd3-43">
      <g class="primitive">
        <text text-anchor="middle" dy="0.35em" transform="rotate(-90,0, 2)">Points Indexed to 100 for 2012</text>
      </g>
    </g>
  </g>
  <g font-size="3.88" font-family="'PT Sans','Helvetica Neue','Helvetica',sans-serif" fill="#564A55" stroke="#000000" stroke-opacity="0.000" id="img-c86cbfd3-44">
    <g transform="translate(62.82,5)" id="img-c86cbfd3-45">
      <g class="primitive">
        <text text-anchor="middle" dy="0.6em">Inflation and Real Wages Over Time</text>
      </g>
    </g>
  </g>
</g>
<defs>
  <clipPath id="img-c86cbfd3-15">
    <path d="M19.63,10.61 L106,10.61 106,82.31 19.63,82.31 " />
  </clipPath>
</defs>
</svg>
