<?xml version="1.0" encoding="UTF-8"?>
<svg xmlns="http://www.w3.org/2000/svg"
     xmlns:xlink="http://www.w3.org/1999/xlink"
     xmlns:gadfly="http://www.gadflyjl.org/ns"
     version="1.2"
     width="101.6mm" height="101.6mm" viewBox="0 0 101.6 101.6"
     stroke="none"
     fill="#000000"
     stroke-width="0.3"
     font-size="3.88"
>
<defs>
  <marker id="arrow" markerWidth="15" markerHeight="7" refX="5" refY="3.5" orient="auto" markerUnits="strokeWidth">
    <path d="M0,0 L15,3.5 L0,7 z" stroke="context-stroke" fill="context-stroke"/>
  </marker>
</defs>
<g class="plotroot xscalable yscalable" id="img-7e740b2e-1">
  <g font-size="3.88" font-family="'PT Sans','Helvetica Neue','Helvetica',sans-serif" fill="#564A55" stroke="#000000" stroke-opacity="0.000" id="img-7e740b2e-2">
    <g transform="translate(50.12,89.99)">
      <g class="primitive">
        <text text-anchor="middle" dy="0.6em">Year</text>
      </g>
    </g>
  </g>
  <g class="guide xlabels" font-size="2.82" font-family="'PT Sans Caption','Helvetica Neue','Helvetica',sans-serif" fill="#6C606B" id="img-7e740b2e-3">
    <g transform="translate(11.5,83.31)">
      <g class="primitive">
        <text text-anchor="middle" dy="0.6em">1970</text>
      </g>
    </g>
    <g transform="translate(24.16,83.31)">
      <g class="primitive">
        <text text-anchor="middle" dy="0.6em">1980</text>
      </g>
    </g>
    <g transform="translate(36.82,83.31)">
      <g class="primitive">
        <text text-anchor="middle" dy="0.6em">1990</text>
      </g>
    </g>
    <g transform="translate(49.48,83.31)">
      <g class="primitive">
        <text text-anchor="middle" dy="0.6em">2000</text>
      </g>
    </g>
    <g transform="translate(62.14,83.31)">
      <g class="primitive">
        <text text-anchor="middle" dy="0.6em">2010</text>
      </g>
    </g>
    <g transform="translate(74.8,83.31)">
      <g class="primitive">
        <text text-anchor="middle" dy="0.6em">2020</text>
      </g>
    </g>
    <g transform="translate(87.46,83.31)">
      <g class="primitive">
        <text text-anchor="middle" dy="0.6em">2030</text>
      </g>
    </g>
  </g>
  <g class="guide colorkey" id="img-7e740b2e-4">
    <g fill="#4C404B" font-size="2.82" font-family="'PT Sans','Helvetica Neue','Helvetica',sans-serif" id="img-7e740b2e-5">
      <g transform="translate(84.41,44.65)" id="img-7e740b2e-6" class="color_PCEPILFE">
        <g class="primitive">
          <text dy="0.35em">PCE</text>
        </g>
      </g>
      <g transform="translate(84.41,48.28)" id="img-7e740b2e-7" class="color_LES1252881600Q_NBD20120101">
        <g class="primitive">
          <text dy="0.35em">Adj. MWW</text>
        </g>
      </g>
      <g transform="translate(84.41,51.9)" id="img-7e740b2e-8" class="color_CPILFESL_NBD20120101">
        <g class="primitive">
          <text dy="0.35em">CPI</text>
        </g>
      </g>
    </g>
    <g fill-opacity="1" id="img-7e740b2e-9">
      <g transform="translate(82.51,44.65)" id="img-7e740b2e-10" class="color_PCEPILFE" stroke="#FFFFFF" fill="#00BFFF">
        <path d="M-0.91,-0.91 L0.91,-0.91 0.91,0.91 -0.91,0.91  z" class="primitive"/>
      </g>
      <g transform="translate(82.51,48.28)" id="img-7e740b2e-11" class="color_LES1252881600Q_NBD20120101" stroke="#FFFFFF" fill="#D4CA3A">
        <path d="M-0.91,-0.91 L0.91,-0.91 0.91,0.91 -0.91,0.91  z" class="primitive"/>
      </g>
      <g transform="translate(82.51,51.9)" id="img-7e740b2e-12" class="color_CPILFESL_NBD20120101" stroke="#FFFFFF" fill="#FF6DAE">
        <path d="M-0.91,-0.91 L0.91,-0.91 0.91,0.91 -0.91,0.91  z" class="primitive"/>
      </g>
    </g>
    <g fill="#362A35" font-size="3.88" font-family="'PT Sans','Helvetica Neue','Helvetica',sans-serif" stroke="#000000" stroke-opacity="0.000" id="img-7e740b2e-13">
      <g transform="translate(81.6,40.83)" id="img-7e740b2e-14">
        <g class="primitive">
          <text dy="-0em">Metric</text>
        </g>
      </g>
    </g>
  </g>
  <g clip-path="url(#img-7e740b2e-15)">
    <g id="img-7e740b2e-16">
      <g pointer-events="visible" stroke-width="0.3" fill="#000000" fill-opacity="0.000" stroke="#000000" stroke-opacity="0.000" class="guide background" id="img-7e740b2e-17">
        <g transform="translate(50.12,46.46)" id="img-7e740b2e-18">
          <path d="M-30.48,-35.85 L30.48,-35.85 30.48,35.85 -30.48,35.85  z" class="primitive"/>
        </g>
      </g>
      <g class="guide ygridlines xfixed" stroke-dasharray="0.5,0.5" stroke-width="0.2" stroke="#D0D0E0" id="img-7e740b2e-19">
        <g transform="translate(50.12,80.31)" id="img-7e740b2e-20">
          <path fill="none" d="M-30.48,0 L30.48,0 " class="primitive"/>
        </g>
        <g transform="translate(50.12,57.75)" id="img-7e740b2e-21">
          <path fill="none" d="M-30.48,0 L30.48,0 " class="primitive"/>
        </g>
        <g transform="translate(50.12,35.18)" id="img-7e740b2e-22">
          <path fill="none" d="M-30.48,0 L30.48,0 " class="primitive"/>
        </g>
        <g transform="translate(50.12,12.61)" id="img-7e740b2e-23">
          <path fill="none" d="M-30.48,0 L30.48,0 " class="primitive"/>
        </g>
      </g>
      <g class="guide xgridlines yfixed" stroke-dasharray="0.5,0.5" stroke-width="0.2" stroke="#D0D0E0" id="img-7e740b2e-24">
        <g transform="translate(11.5,46.46)" id="img-7e740b2e-25">
          <path fill="none" d="M0,-35.85 L0,35.85 " class="primitive"/>
        </g>
        <g transform="translate(24.16,46.46)" id="img-7e740b2e-26">
          <path fill="none" d="M0,-35.85 L0,35.85 " class="primitive"/>
        </g>
        <g transform="translate(36.82,46.46)" id="img-7e740b2e-27">
          <path fill="none" d="M0,-35.85 L0,35.85 " class="primitive"/>
        </g>
        <g transform="translate(49.48,46.46)" id="img-7e740b2e-28">
          <path fill="none" d="M0,-35.85 L0,35.85 " class="primitive"/>
        </g>
        <g transform="translate(62.14,46.46)" id="img-7e740b2e-29">
          <path fill="none" d="M0,-35.85 L0,35.85 " class="primitive"/>
        </g>
        <g transform="translate(74.8,46.46)" id="img-7e740b2e-30">
          <path fill="none" d="M0,-35.85 L0,35.85 " class="primitive"/>
        </g>
        <g transform="translate(87.46,46.46)" id="img-7e740b2e-31">
          <path fill="none" d="M0,-35.85 L0,35.85 " class="primitive"/>
        </g>
      </g>
      <g class="plotpanel" id="img-7e740b2e-32">
        <metadata>
          <boundingbox value="19.63166666666666mm 10.611666666666665mm 60.968333333333334mm 71.70333333333332mm"/>
          <unitbox value="1976-06-03 154.4310964501994 17590 days -158.86219290039878"/>
        </metadata>
        <g stroke-width="0.3" fill="#000000" fill-opacity="0.000" class="geometry" id="img-7e740b2e-33">
          <g transform="translate(50.43,43.86)" id="img-7e740b2e-34" class="color_PCEPILFE" stroke="#00BFFF" stroke-dasharray="none">
            <path fill="none" d="M-27.53,20.09 L-27.53,20.09 -27.53,20.09 -27.22,19.73 -27.22,19.73 -27.22,19.73 -26.91,19.42 -26.91,19.42 -26.91,19.42 -26.59,19.07 -26.59,19.07 -26.59,19.07 -26.27,18.64 -26.27,18.64 -26.27,18.64 -25.95,18.24 -25.95,18.24 -25.95,18.24 -25.64,17.84 -25.64,17.84 -25.64,17.84 -25.32,17.38 -25.32,17.38 -25.32,17.38 -25,16.96 -25,16.96 -25,16.96 -24.69,16.59 -24.69,16.59 -24.69,16.59 -24.37,16.22 -24.37,16.22 -24.37,16.22 -24.05,15.86 -24.05,15.86 -24.05,15.86 -23.73,15.56 -23.73,15.56 -23.73,15.56 -23.42,15.28 -23.42,15.28 -23.42,15.28 -23.11,14.94 -23.11,14.94 -23.11,14.94 -22.79,14.64 -22.79,14.64 -22.79,14.64 -22.47,14.35 -22.47,14.35 -22.47,14.35 -22.16,14.19 -22.16,14.19 -22.16,14.19 -21.84,13.85 -21.84,13.85 -21.84,13.85 -21.52,13.67 -21.52,13.67 -21.52,13.67 -21.2,13.44 -21.2,13.44 -21.2,13.44 -20.89,13.17 -20.89,13.17 -20.89,13.17 -20.57,12.95 -20.57,12.95 -20.57,12.95 -20.25,12.78 -20.25,12.78 -20.25,12.78 -19.94,12.46 -19.94,12.46 -19.94,12.46 -19.62,12.25 -19.62,12.25 -19.62,12.25 -19.31,12 -19.31,12 -19.31,12 -18.99,11.83 -18.99,11.83 -18.99,11.83 -18.67,11.56 -18.67,11.56 -18.67,11.56 -18.36,11.39 -18.36,11.39 -18.36,11.39 -18.04,11.22 -18.04,11.22 -18.04,11.22 -17.72,11.01 -17.72,11.01 -17.72,11.01 -17.41,10.85 -17.41,10.85 -17.41,10.85 -17.09,10.6 -17.09,10.6 -17.09,10.6 -16.78,10.37 -16.78,10.37 -16.78,10.37 -16.46,10.11 -16.46,10.11 -16.46,10.11 -16.14,9.85 -16.14,9.85 -16.14,9.85 -15.82,9.53 -15.82,9.53 -15.82,9.53 -15.51,9.22 -15.51,9.22 -15.51,9.22 -15.19,8.92 -15.19,8.92 -15.19,8.92 -14.87,8.61 -14.87,8.61 -14.87,8.61 -14.56,8.36 -14.56,8.36 -14.56,8.36 -14.24,8.15 -14.24,8.15 -14.24,8.15 -13.93,7.89 -13.93,7.89 -13.93,7.89 -13.61,7.56 -13.61,7.56 -13.61,7.56 -13.29,7.24 -13.29,7.24 -13.29,7.24 -12.98,6.95 -12.98,6.95 -12.98,6.95 -12.66,6.7 -12.66,6.7 -12.66,6.7 -12.34,6.43 -12.34,6.43 -12.34,6.43 -12.03,6.2 -12.03,6.2 -12.03,6.2 -11.71,5.93 -11.71,5.93 -11.71,5.93 -11.39,5.69 -11.39,5.69 -11.39,5.69 -11.08,5.46 -11.08,5.46 -11.08,5.46 -10.76,5.24 -10.76,5.24 -10.76,5.24 -10.45,5.05 -10.45,5.05 -10.45,5.05 -10.13,4.82 -10.13,4.82 -10.13,4.82 -9.81,4.6 -9.81,4.6 -9.81,4.6 -9.5,4.36 -9.5,4.36 -9.5,4.36 -9.18,4.18 -9.18,4.18 -9.18,4.18 -8.86,4.02 -8.86,4.02 -8.86,4.02 -8.54,3.87 -8.54,3.87 -8.54,3.87 -8.23,3.65 -8.23,3.65 -8.23,3.65 -7.91,3.47 -7.91,3.47 -7.91,3.47 -7.6,3.3 -7.6,3.3 -7.6,3.3 -7.28,3.12 -7.28,3.12 -7.28,3.12 -6.97,2.93 -6.97,2.93 -6.97,2.93 -6.65,2.77 -6.65,2.77 -6.65,2.77 -6.33,2.6 -6.33,2.6 -6.33,2.6 -6.01,2.46 -6.01,2.46 -6.01,2.46 -5.7,2.3 -5.7,2.3 -5.7,2.3 -5.38,2.15 -5.38,2.15 -5.38,2.15 -5.06,1.95 -5.06,1.95 -5.06,1.95 -4.74,1.82 -4.74,1.82 -4.74,1.82 -4.43,1.64 -4.43,1.64 -4.43,1.64 -4.12,1.55 -4.12,1.55 -4.12,1.55 -3.8,1.44 -3.8,1.44 -3.8,1.44 -3.48,1.34 -3.48,1.34 -3.48,1.34 -3.17,1.23 -3.17,1.23 -3.17,1.23 -2.85,1.11 -2.85,1.11 -2.85,1.11 -2.53,1 -2.53,1 -2.53,1 -2.21,0.91 -2.21,0.91 -2.21,0.91 -1.9,0.78 -1.9,0.78 -1.9,0.78 -1.59,0.65 -1.59,0.65 -1.59,0.65 -1.27,0.48 -1.27,0.48 -1.27,0.48 -0.95,0.29 -0.95,0.29 -0.95,0.29 -0.63,0.17 -0.63,0.17 -0.63,0.17 -0.32,-0.01 -0.32,-0.01 -0.32,-0.01 0,-0.19 0,-0.19 0,-0.19 0.32,-0.43 0.32,-0.43 0.32,-0.43 0.63,-0.56 0.63,-0.56 0.63,-0.56 0.95,-0.66 0.95,-0.66 0.95,-0.66 1.27,-0.84 1.27,-0.84 1.27,-0.84 1.59,-0.95 1.59,-0.95 1.59,-0.95 1.9,-1.16 1.9,-1.16 1.9,-1.16 2.21,-1.36 2.21,-1.36 2.21,-1.36 2.53,-1.49 2.53,-1.49 2.53,-1.49 2.85,-1.61 2.85,-1.61 2.85,-1.61 3.16,-1.76 3.16,-1.76 3.16,-1.76 3.48,-1.93 3.48,-1.93 3.48,-1.93 3.8,-2.1 3.8,-2.1 3.8,-2.1 4.12,-2.32 4.12,-2.32 4.12,-2.32 4.43,-2.54 4.43,-2.54 4.43,-2.54 4.75,-2.68 4.75,-2.68 4.75,-2.68 5.07,-2.89 5.07,-2.89 5.07,-2.89 5.38,-3.17 5.38,-3.17 5.38,-3.17 5.7,-3.36 5.7,-3.36 5.7,-3.36 6.01,-3.52 6.01,-3.52 6.01,-3.52 6.33,-3.79 6.33,-3.79 6.33,-3.79 6.65,-4.02 6.65,-4.02 6.65,-4.02 6.96,-4.34 6.96,-4.34 6.96,-4.34 7.28,-4.56 7.28,-4.56 7.28,-4.56 7.6,-4.74 7.6,-4.74 7.6,-4.74 7.91,-5.02 7.91,-5.02 7.91,-5.02 8.23,-5.2 8.23,-5.2 8.23,-5.2 8.54,-5.4 8.54,-5.4 8.54,-5.4 8.86,-5.69 8.86,-5.69 8.86,-5.69 9.18,-5.91 9.18,-5.91 9.18,-5.91 9.5,-6.09 9.5,-6.09 9.5,-6.09 9.81,-6.31 9.81,-6.31 9.81,-6.31 10.13,-6.27 10.13,-6.27 10.13,-6.27 10.45,-6.27 10.45,-6.27 10.45,-6.27 10.76,-6.44 10.76,-6.44 10.76,-6.44 11.08,-6.59 11.08,-6.59 11.08,-6.59 11.39,-6.86 11.39,-6.86 11.39,-6.86 11.71,-7.01 11.71,-7.01 11.71,-7.01 12.03,-7.13 12.03,-7.13 12.03,-7.13 12.34,-7.19 12.34,-7.19 12.34,-7.19 12.66,-7.33 12.66,-7.33 12.66,-7.33 12.98,-7.52 12.98,-7.52 12.98,-7.52 13.29,-7.78 13.29,-7.78 13.29,-7.78 13.61,-7.98 13.61,-7.98 13.61,-7.98 13.92,-8.14 13.92,-8.14 13.92,-8.14 14.24,-8.42 14.24,-8.42 14.24,-8.42 14.56,-8.61 14.56,-8.61 14.56,-8.61 14.87,-8.74 14.87,-8.74 14.87,-8.74 15.19,-8.94 15.19,-8.94 15.19,-8.94 15.51,-9.12 15.51,-9.12 15.51,-9.12 15.82,-9.26 15.82,-9.26 15.82,-9.26 16.14,-9.44 16.14,-9.44 16.14,-9.44 16.46,-9.66 16.46,-9.66 16.46,-9.66 16.78,-9.82 16.78,-9.82 16.78,-9.82 17.09,-10.05 17.09,-10.05 17.09,-10.05 17.4,-10.23 17.4,-10.23 17.4,-10.23 17.72,-10.36 17.72,-10.36 17.72,-10.36 18.04,-10.46 18.04,-10.46 18.04,-10.46 18.35,-10.66 18.35,-10.66 18.35,-10.66 18.67,-10.8 18.67,-10.8 18.67,-10.8 18.99,-10.9 18.99,-10.9 18.99,-10.9 19.31,-11.1 19.31,-11.1 19.31,-11.1 19.62,-11.36 19.62,-11.36 19.62,-11.36 19.94,-11.58 19.94,-11.58 19.94,-11.58 20.26,-11.76 20.26,-11.76 20.26,-11.76 20.58,-11.99 20.58,-11.99 20.58,-11.99 20.89,-12.17 20.89,-12.17 20.89,-12.17 21.2,-12.32 21.2,-12.32 21.2,-12.32 21.52,-12.56 21.52,-12.56 21.52,-12.56 21.84,-12.88 21.84,-12.88 21.84,-12.88 22.15,-13.16 22.15,-13.16 22.15,-13.16 22.47,-13.33 22.47,-13.33 22.47,-13.33 22.79,-13.56 22.79,-13.56 22.79,-13.56 23.11,-13.75 23.11,-13.75 23.11,-13.75 23.42,-14.01 23.42,-14.01 23.42,-14.01 23.73,-14.21 23.73,-14.21 23.73,-14.21 24.05,-14.36 24.05,-14.36 24.05,-14.36 24.37,-14.6 24.37,-14.6 24.37,-14.6 24.69,-14.48 24.69,-14.48 24.69,-14.48 25,-14.87 25,-14.87 25,-14.87 25.32,-15.07 25.32,-15.07 25.32,-15.07 25.64,-15.48 25.64,-15.48 25.64,-15.48 25.95,-16.25 25.95,-16.25 25.95,-16.25 26.27,-16.87 26.27,-16.87 26.27,-16.87 26.59,-17.5 26.59,-17.5 26.59,-17.5 26.91,-18.25 26.91,-18.25 26.91,-18.25 27.22,-18.87 27.22,-18.87 27.22,-18.87 27.53,-19.5 27.53,-19.5 27.53,-19.5 " class="primitive"/>
          </g>
          <g transform="translate(50.43,35.65)" id="img-7e740b2e-35" class="color_LES1252881600Q_NBD20120101" stroke="#D4CA3A" stroke-dasharray="none">
            <path fill="none" d="M-27.53,-0.47 L-27.53,-0.47 -27.53,-0.47 -27.22,-0.47 -27.22,-0.47 -27.22,-0.47 -26.91,0.21 -26.91,0.21 -26.91,0.21 -26.59,0.75 -26.59,0.75 -26.59,0.75 -26.27,1.42 -26.27,1.42 -26.27,1.42 -25.95,2.23 -25.95,2.23 -25.95,2.23 -25.64,1.69 -25.64,1.69 -25.64,1.69 -25.32,2.23 -25.32,2.23 -25.32,2.23 -25,2.36 -25,2.36 -25,2.36 -24.69,2.77 -24.69,2.77 -24.69,2.77 -24.37,3.04 -24.37,3.04 -24.37,3.04 -24.05,2.63 -24.05,2.63 -24.05,2.63 -23.73,2.63 -23.73,2.63 -23.73,2.63 -23.42,2.36 -23.42,2.36 -23.42,2.36 -23.11,2.77 -23.11,2.77 -23.11,2.77 -22.79,2.5 -22.79,2.5 -22.79,2.5 -22.47,2.23 -22.47,2.23 -22.47,2.23 -22.16,2.36 -22.16,2.36 -22.16,2.36 -21.84,2.23 -21.84,2.23 -21.84,2.23 -21.52,2.63 -21.52,2.63 -21.52,2.63 -21.2,2.5 -21.2,2.5 -21.2,2.5 -20.89,2.63 -20.89,2.63 -20.89,2.63 -20.57,2.5 -20.57,2.5 -20.57,2.5 -20.25,2.09 -20.25,2.09 -20.25,2.09 -19.94,2.36 -19.94,2.36 -19.94,2.36 -19.62,1.15 -19.62,1.15 -19.62,1.15 -19.31,1.55 -19.31,1.55 -19.31,1.55 -18.99,1.55 -18.99,1.55 -18.99,1.55 -18.67,1.42 -18.67,1.42 -18.67,1.42 -18.36,0.48 -18.36,0.48 -18.36,0.48 -18.04,0.48 -18.04,0.48 -18.04,0.48 -17.72,0.07 -17.72,0.07 -17.72,0.07 -17.41,0.48 -17.41,0.48 -17.41,0.48 -17.09,0.48 -17.09,0.48 -17.09,0.48 -16.78,0.21 -16.78,0.21 -16.78,0.21 -16.46,0.48 -16.46,0.48 -16.46,0.48 -16.14,0.34 -16.14,0.34 -16.14,0.34 -15.82,0.88 -15.82,0.88 -15.82,0.88 -15.51,0.88 -15.51,0.88 -15.51,0.88 -15.19,1.02 -15.19,1.02 -15.19,1.02 -14.87,1.15 -14.87,1.15 -14.87,1.15 -14.56,1.28 -14.56,1.28 -14.56,1.28 -14.24,1.28 -14.24,1.28 -14.24,1.28 -13.93,1.28 -13.93,1.28 -13.93,1.28 -13.61,1.69 -13.61,1.69 -13.61,1.69 -13.29,1.69 -13.29,1.69 -13.29,1.69 -12.98,2.5 -12.98,2.5 -12.98,2.5 -12.66,2.63 -12.66,2.63 -12.66,2.63 -12.34,2.09 -12.34,2.09 -12.34,2.09 -12.03,2.63 -12.03,2.63 -12.03,2.63 -11.71,2.63 -11.71,2.63 -11.71,2.63 -11.39,2.5 -11.39,2.5 -11.39,2.5 -11.08,2.23 -11.08,2.23 -11.08,2.23 -10.76,2.5 -10.76,2.5 -10.76,2.5 -10.45,2.36 -10.45,2.36 -10.45,2.36 -10.13,2.63 -10.13,2.63 -10.13,2.63 -9.81,2.23 -9.81,2.23 -9.81,2.23 -9.5,1.96 -9.5,1.96 -9.5,1.96 -9.18,1.69 -9.18,1.69 -9.18,1.69 -8.86,1.69 -8.86,1.69 -8.86,1.69 -8.54,2.09 -8.54,2.09 -8.54,2.09 -8.23,1.96 -8.23,1.96 -8.23,1.96 -7.91,2.36 -7.91,2.36 -7.91,2.36 -7.6,2.36 -7.6,2.36 -7.6,2.36 -7.28,2.5 -7.28,2.5 -7.28,2.5 -6.97,2.36 -6.97,2.36 -6.97,2.36 -6.65,1.96 -6.65,1.96 -6.65,1.96 -6.33,2.5 -6.33,2.5 -6.33,2.5 -6.01,2.63 -6.01,2.63 -6.01,2.63 -5.7,2.63 -5.7,2.63 -5.7,2.63 -5.38,2.36 -5.38,2.36 -5.38,2.36 -5.06,2.5 -5.06,2.5 -5.06,2.5 -4.74,2.5 -4.74,2.5 -4.74,2.5 -4.43,2.36 -4.43,2.36 -4.43,2.36 -4.12,2.36 -4.12,2.36 -4.12,2.36 -3.8,2.36 -3.8,2.36 -3.8,2.36 -3.48,1.69 -3.48,1.69 -3.48,1.69 -3.17,1.69 -3.17,1.69 -3.17,1.69 -2.85,1.42 -2.85,1.42 -2.85,1.42 -2.53,0.48 -2.53,0.48 -2.53,0.48 -2.21,1.02 -2.21,1.02 -2.21,1.02 -1.9,0.34 -1.9,0.34 -1.9,0.34 -1.59,0.21 -1.59,0.21 -1.59,0.21 -1.27,-0.47 -1.27,-0.47 -1.27,-0.47 -0.95,-0.33 -0.95,-0.33 -0.95,-0.33 -0.63,-0.33 -0.63,-0.33 -0.63,-0.33 -0.32,-0.47 -0.32,-0.47 -0.32,-0.47 0,-0.33 0,-0.33 0,-0.33 0.32,-0.2 0.32,-0.2 0.32,-0.2 0.63,-0.6 0.63,-0.6 0.63,-0.6 0.95,-0.87 0.95,-0.87 0.95,-0.87 1.27,-1.14 1.27,-1.14 1.27,-1.14 1.59,-1.27 1.59,-1.27 1.59,-1.27 1.9,-1.01 1.9,-1.01 1.9,-1.01 2.21,-0.74 2.21,-0.74 2.21,-0.74 2.53,-0.6 2.53,-0.6 2.53,-0.6 2.85,-0.47 2.85,-0.47 2.85,-0.47 3.16,-0.87 3.16,-0.87 3.16,-0.87 3.48,-0.74 3.48,-0.74 3.48,-0.74 3.8,-0.74 3.8,-0.74 3.8,-0.74 4.12,-0.74 4.12,-0.74 4.12,-0.74 4.43,-1.27 4.43,-1.27 4.43,-1.27 4.75,-0.47 4.75,-0.47 4.75,-0.47 5.07,-0.74 5.07,-0.74 5.07,-0.74 5.38,-0.6 5.38,-0.6 5.38,-0.6 5.7,-0.33 5.7,-0.33 5.7,-0.33 6.01,0.07 6.01,0.07 6.01,0.07 6.33,-0.06 6.33,-0.06 6.33,-0.06 6.65,-0.06 6.65,-0.06 6.65,-0.06 6.96,0.34 6.96,0.34 6.96,0.34 7.28,-0.33 7.28,-0.33 7.28,-0.33 7.6,-0.74 7.6,-0.74 7.6,-0.74 7.91,-0.6 7.91,-0.6 7.91,-0.6 8.23,-0.47 8.23,-0.47 8.23,-0.47 8.54,-0.6 8.54,-0.6 8.54,-0.6 8.86,-0.06 8.86,-0.06 8.86,-0.06 9.18,-0.47 9.18,-0.47 9.18,-0.47 9.5,-0.47 9.5,-0.47 9.5,-0.47 9.81,0.07 9.81,0.07 9.81,0.07 10.13,-1.14 10.13,-1.14 10.13,-1.14 10.45,-1.81 10.45,-1.81 10.45,-1.81 10.76,-1.81 10.76,-1.81 10.76,-1.81 11.08,-1.81 11.08,-1.81 11.08,-1.81 11.39,-1.68 11.39,-1.68 11.39,-1.68 11.71,-1.68 11.71,-1.68 11.71,-1.68 12.03,-1.41 12.03,-1.41 12.03,-1.41 12.34,-1.41 12.34,-1.41 12.34,-1.41 12.66,-1.27 12.66,-1.27 12.66,-1.27 12.98,-0.87 12.98,-0.87 12.98,-0.87 13.29,-0.6 13.29,-0.6 13.29,-0.6 13.61,-0.6 13.61,-0.6 13.61,-0.6 13.92,-0.47 13.92,-0.47 13.92,-0.47 14.24,-0.47 14.24,-0.47 14.24,-0.47 14.56,-0.74 14.56,-0.74 14.56,-0.74 14.87,-0.2 14.87,-0.2 14.87,-0.2 15.19,-0.2 15.19,-0.2 15.19,-0.2 15.51,0.07 15.51,0.07 15.51,0.07 15.82,-0.47 15.82,-0.47 15.82,-0.47 16.14,-0.33 16.14,-0.33 16.14,-0.33 16.46,-0.33 16.46,-0.33 16.46,-0.33 16.78,-0.47 16.78,-0.47 16.78,-0.47 17.09,0.21 17.09,0.21 17.09,0.21 17.4,-0.6 17.4,-0.6 17.4,-0.6 17.72,-0.6 17.72,-0.6 17.72,-0.6 18.04,-1.27 18.04,-1.27 18.04,-1.27 18.35,-1.01 18.35,-1.01 18.35,-1.01 18.67,-1.14 18.67,-1.14 18.67,-1.14 18.99,-1.81 18.99,-1.81 18.99,-1.81 19.31,-1.95 19.31,-1.95 19.31,-1.95 19.62,-1.81 19.62,-1.81 19.62,-1.81 19.94,-2.08 19.94,-2.08 19.94,-2.08 20.26,-2.35 20.26,-2.35 20.26,-2.35 20.58,-2.76 20.58,-2.76 20.58,-2.76 20.89,-3.03 20.89,-3.03 20.89,-3.03 21.2,-2.76 21.2,-2.76 21.2,-2.76 21.52,-1.81 21.52,-1.81 21.52,-1.81 21.84,-2.62 21.84,-2.62 21.84,-2.62 22.15,-2.62 22.15,-2.62 22.15,-2.62 22.47,-3.03 22.47,-3.03 22.47,-3.03 22.79,-3.16 22.79,-3.16 22.79,-3.16 23.11,-3.16 23.11,-3.16 23.11,-3.16 23.42,-3.57 23.42,-3.57 23.42,-3.57 23.73,-3.83 23.73,-3.83 23.73,-3.83 24.05,-4.1 24.05,-4.1 24.05,-4.1 24.37,-4.91 24.37,-4.91 24.37,-4.91 24.69,-8.28 24.69,-8.28 24.69,-8.28 25,-7.07 25,-7.07 25,-7.07 25.32,-5.99 25.32,-5.99 25.32,-5.99 25.64,-5.59 25.64,-5.59 25.64,-5.59 25.95,-5.32 25.95,-5.32 25.95,-5.32 26.27,-4.78 26.27,-4.78 26.27,-4.78 26.59,-4.1 26.59,-4.1 26.59,-4.1 26.91,-4.1 26.91,-4.1 26.91,-4.1 27.22,-3.57 27.22,-3.57 27.22,-3.57 27.53,-3.97 27.53,-3.97 27.53,-3.97 " class="primitive"/>
          </g>
          <g transform="translate(50.43,44.63)" id="img-7e740b2e-36" class="color_CPILFESL_NBD20120101" stroke="#FF6DAE" stroke-dasharray="none">
            <path fill="none" d="M-27.53,22 L-27.53,22 -27.53,22 -27.22,21.68 -27.22,21.68 -27.22,21.68 -26.91,21.31 -26.91,21.31 -26.91,21.31 -26.59,20.88 -26.59,20.88 -26.59,20.88 -26.27,20.33 -26.27,20.33 -26.27,20.33 -25.95,19.82 -25.95,19.82 -25.95,19.82 -25.64,19.58 -25.64,19.58 -25.64,19.58 -25.32,19.08 -25.32,19.08 -25.32,19.08 -25,18.69 -25,18.69 -25,18.69 -24.69,18.31 -24.69,18.31 -24.69,18.31 -24.37,17.73 -24.37,17.73 -24.37,17.73 -24.05,17.38 -24.05,17.38 -24.05,17.38 -23.73,17.15 -23.73,17.15 -23.73,17.15 -23.42,16.81 -23.42,16.81 -23.42,16.81 -23.11,16.49 -23.11,16.49 -23.11,16.49 -22.79,16.43 -22.79,16.43 -22.79,16.43 -22.47,16.31 -22.47,16.31 -22.47,16.31 -22.16,16.12 -22.16,16.12 -22.16,16.12 -21.84,15.87 -21.84,15.87 -21.84,15.87 -21.52,15.62 -21.52,15.62 -21.52,15.62 -21.2,15.34 -21.2,15.34 -21.2,15.34 -20.89,15.09 -20.89,15.09 -20.89,15.09 -20.57,14.83 -20.57,14.83 -20.57,14.83 -20.25,14.62 -20.25,14.62 -20.25,14.62 -19.94,14.39 -19.94,14.39 -19.94,14.39 -19.62,14.16 -19.62,14.16 -19.62,14.16 -19.31,13.97 -19.31,13.97 -19.31,13.97 -18.99,13.72 -18.99,13.72 -18.99,13.72 -18.67,13.49 -18.67,13.49 -18.67,13.49 -18.36,13.3 -18.36,13.3 -18.36,13.3 -18.04,13.09 -18.04,13.09 -18.04,13.09 -17.72,12.87 -17.72,12.87 -17.72,12.87 -17.41,12.69 -17.41,12.69 -17.41,12.69 -17.09,12.41 -17.09,12.41 -17.09,12.41 -16.78,12.19 -16.78,12.19 -16.78,12.19 -16.46,11.92 -16.46,11.92 -16.46,11.92 -16.14,11.69 -16.14,11.69 -16.14,11.69 -15.82,11.4 -15.82,11.4 -15.82,11.4 -15.51,11.13 -15.51,11.13 -15.51,11.13 -15.19,10.83 -15.19,10.83 -15.19,10.83 -14.87,10.57 -14.87,10.57 -14.87,10.57 -14.56,10.3 -14.56,10.3 -14.56,10.3 -14.24,10.06 -14.24,10.06 -14.24,10.06 -13.93,9.75 -13.93,9.75 -13.93,9.75 -13.61,9.42 -13.61,9.42 -13.61,9.42 -13.29,9.07 -13.29,9.07 -13.29,9.07 -12.98,8.68 -12.98,8.68 -12.98,8.68 -12.66,8.37 -12.66,8.37 -12.66,8.37 -12.34,7.97 -12.34,7.97 -12.34,7.97 -12.03,7.72 -12.03,7.72 -12.03,7.72 -11.71,7.42 -11.71,7.42 -11.71,7.42 -11.39,7.15 -11.39,7.15 -11.39,7.15 -11.08,6.9 -11.08,6.9 -11.08,6.9 -10.76,6.65 -10.76,6.65 -10.76,6.65 -10.45,6.43 -10.45,6.43 -10.45,6.43 -10.13,6.16 -10.13,6.16 -10.13,6.16 -9.81,5.91 -9.81,5.91 -9.81,5.91 -9.5,5.66 -9.5,5.66 -9.5,5.66 -9.18,5.48 -9.18,5.48 -9.18,5.48 -8.86,5.24 -8.86,5.24 -8.86,5.24 -8.54,5.04 -8.54,5.04 -8.54,5.04 -8.23,4.83 -8.23,4.83 -8.23,4.83 -7.91,4.6 -7.91,4.6 -7.91,4.6 -7.6,4.4 -7.6,4.4 -7.6,4.4 -7.28,4.14 -7.28,4.14 -7.28,4.14 -6.97,3.88 -6.97,3.88 -6.97,3.88 -6.65,3.67 -6.65,3.67 -6.65,3.67 -6.33,3.45 -6.33,3.45 -6.33,3.45 -6.01,3.23 -6.01,3.23 -6.01,3.23 -5.7,3.04 -5.7,3.04 -5.7,3.04 -5.38,2.83 -5.38,2.83 -5.38,2.83 -5.06,2.62 -5.06,2.62 -5.06,2.62 -4.74,2.43 -4.74,2.43 -4.74,2.43 -4.43,2.21 -4.43,2.21 -4.43,2.21 -4.12,2.07 -4.12,2.07 -4.12,2.07 -3.8,1.88 -3.8,1.88 -3.8,1.88 -3.48,1.67 -3.48,1.67 -3.48,1.67 -3.17,1.48 -3.17,1.48 -3.17,1.48 -2.85,1.28 -2.85,1.28 -2.85,1.28 -2.53,1.09 -2.53,1.09 -2.53,1.09 -2.21,0.93 -2.21,0.93 -2.21,0.93 -1.9,0.77 -1.9,0.77 -1.9,0.77 -1.59,0.59 -1.59,0.59 -1.59,0.59 -1.27,0.39 -1.27,0.39 -1.27,0.39 -0.95,0.16 -0.95,0.16 -0.95,0.16 -0.63,-0.07 -0.63,-0.07 -0.63,-0.07 -0.32,-0.31 -0.32,-0.31 -0.32,-0.31 0,-0.52 0,-0.52 0,-0.52 0.32,-0.79 0.32,-0.79 0.32,-0.79 0.63,-1.01 0.63,-1.01 0.63,-1.01 0.95,-1.26 0.95,-1.26 0.95,-1.26 1.27,-1.51 1.27,-1.51 1.27,-1.51 1.59,-1.71 1.59,-1.71 1.59,-1.71 1.9,-1.9 1.9,-1.9 1.9,-1.9 2.21,-2.1 2.21,-2.1 2.21,-2.1 2.53,-2.27 2.53,-2.27 2.53,-2.27 2.85,-2.4 2.85,-2.4 2.85,-2.4 3.16,-2.46 3.16,-2.46 3.16,-2.46 3.48,-2.61 3.48,-2.61 3.48,-2.61 3.8,-2.71 3.8,-2.71 3.8,-2.71 4.12,-2.9 4.12,-2.9 4.12,-2.9 4.43,-3.14 4.43,-3.14 4.43,-3.14 4.75,-3.31 4.75,-3.31 4.75,-3.31 5.07,-3.54 5.07,-3.54 5.07,-3.54 5.38,-3.79 5.38,-3.79 5.38,-3.79 5.7,-3.97 5.7,-3.97 5.7,-3.97 6.01,-4.1 6.01,-4.1 6.01,-4.1 6.33,-4.37 6.33,-4.37 6.33,-4.37 6.65,-4.62 6.65,-4.62 6.65,-4.62 6.96,-4.95 6.96,-4.95 6.96,-4.95 7.28,-5.22 7.28,-5.22 7.28,-5.22 7.6,-5.44 7.6,-5.44 7.6,-5.44 7.91,-5.68 7.91,-5.68 7.91,-5.68 8.23,-5.88 8.23,-5.88 8.23,-5.88 8.54,-6.09 8.54,-6.09 8.54,-6.09 8.86,-6.39 8.86,-6.39 8.86,-6.39 9.18,-6.66 9.18,-6.66 9.18,-6.66 9.5,-6.85 9.5,-6.85 9.5,-6.85 9.81,-7.12 9.81,-7.12 9.81,-7.12 10.13,-7.23 10.13,-7.23 10.13,-7.23 10.45,-7.41 10.45,-7.41 10.45,-7.41 10.76,-7.63 10.76,-7.63 10.76,-7.63 11.08,-7.76 11.08,-7.76 11.08,-7.76 11.39,-7.98 11.39,-7.98 11.39,-7.98 11.71,-7.98 11.71,-7.98 11.71,-7.98 12.03,-8.04 12.03,-8.04 12.03,-8.04 12.34,-8.15 12.34,-8.15 12.34,-8.15 12.66,-8.26 12.66,-8.26 12.66,-8.26 12.98,-8.47 12.98,-8.47 12.98,-8.47 13.29,-8.67 13.29,-8.67 13.29,-8.67 13.61,-8.98 13.61,-8.98 13.61,-8.98 13.92,-9.22 13.92,-9.22 13.92,-9.22 14.24,-9.45 14.24,-9.45 14.24,-9.45 14.56,-9.67 14.56,-9.67 14.56,-9.67 14.87,-9.88 14.87,-9.88 14.87,-9.88 15.19,-10.09 15.19,-10.09 15.19,-10.09 15.51,-10.32 15.51,-10.32 15.51,-10.32 15.82,-10.43 15.82,-10.43 15.82,-10.43 16.14,-10.67 16.14,-10.67 16.14,-10.67 16.46,-10.88 16.46,-10.88 16.46,-10.88 16.78,-11.06 16.78,-11.06 16.78,-11.06 17.09,-11.3 17.09,-11.3 17.09,-11.3 17.4,-11.5 17.4,-11.5 17.4,-11.5 17.72,-11.68 17.72,-11.68 17.72,-11.68 18.04,-11.85 18.04,-11.85 18.04,-11.85 18.35,-12.14 18.35,-12.14 18.35,-12.14 18.67,-12.37 18.67,-12.37 18.67,-12.37 18.99,-12.63 18.99,-12.63 18.99,-12.63 19.31,-12.88 19.31,-12.88 19.31,-12.88 19.62,-13.2 19.62,-13.2 19.62,-13.2 19.94,-13.46 19.94,-13.46 19.94,-13.46 20.26,-13.68 20.26,-13.68 20.26,-13.68 20.58,-13.94 20.58,-13.94 20.58,-13.94 20.89,-14.07 20.89,-14.07 20.89,-14.07 21.2,-14.26 21.2,-14.26 21.2,-14.26 21.52,-14.55 21.52,-14.55 21.52,-14.55 21.84,-14.88 21.84,-14.88 21.84,-14.88 22.15,-15.18 22.15,-15.18 22.15,-15.18 22.47,-15.39 22.47,-15.39 22.47,-15.39 22.79,-15.65 22.79,-15.65 22.79,-15.65 23.11,-15.94 23.11,-15.94 23.11,-15.94 23.42,-16.23 23.42,-16.23 23.42,-16.23 23.73,-16.56 23.73,-16.56 23.73,-16.56 24.05,-16.83 24.05,-16.83 24.05,-16.83 24.37,-17.1 24.37,-17.1 24.37,-17.1 24.69,-16.91 24.69,-16.91 24.69,-16.91 25,-17.43 25,-17.43 25,-17.43 25.32,-17.68 25.32,-17.68 25.32,-17.68 25.64,-17.87 25.64,-17.87 25.64,-17.87 25.95,-18.88 25.95,-18.88 25.95,-18.88 26.27,-19.59 26.27,-19.59 26.27,-19.59 26.59,-20.35 26.59,-20.35 26.59,-20.35 26.91,-21.24 26.91,-21.24 26.91,-21.24 27.22,-22.16 27.22,-22.16 27.22,-22.16 27.53,-23.07 27.53,-23.07 27.53,-23.07 " class="primitive"/>
          </g>
        </g>
      </g>
    </g>
  </g>
  <g class="guide ylabels" font-size="2.82" font-family="'PT Sans Caption','Helvetica Neue','Helvetica',sans-serif" fill="#6C606B" id="img-7e740b2e-37">
    <g transform="translate(18.63,80.31)" id="img-7e740b2e-38">
      <g class="primitive">
        <text text-anchor="end" dy="0.35em">0</text>
      </g>
    </g>
    <g transform="translate(18.63,57.75)" id="img-7e740b2e-39">
      <g class="primitive">
        <text text-anchor="end" dy="0.35em">50</text>
      </g>
    </g>
    <g transform="translate(18.63,35.18)" id="img-7e740b2e-40">
      <g class="primitive">
        <text text-anchor="end" dy="0.35em">100</text>
      </g>
    </g>
    <g transform="translate(18.63,12.61)" id="img-7e740b2e-41">
      <g class="primitive">
        <text text-anchor="end" dy="0.35em">150</text>
      </g>
    </g>
  </g>
  <g font-size="3.88" font-family="'PT Sans','Helvetica Neue','Helvetica',sans-serif" fill="#564A55" stroke="#000000" stroke-opacity="0.000" id="img-7e740b2e-42">
    <g transform="translate(8.81,44.46)" id="img-7e740b2e-43">
      <g class="primitive">
        <text text-anchor="middle" dy="0.35em" transform="rotate(-90,0, 2)">Points Indexed to 100 for 2012</text>
      </g>
    </g>
  </g>
  <g font-size="3.88" font-family="'PT Sans','Helvetica Neue','Helvetica',sans-serif" fill="#564A55" stroke="#000000" stroke-opacity="0.000" id="img-7e740b2e-44">
    <g transform="translate(50.12,5)" id="img-7e740b2e-45">
      <g class="primitive">
        <text text-anchor="middle" dy="0.6em">Inflation and Real Wages Over Time</text>
      </g>
    </g>
  </g>
</g>
<defs>
  <clipPath id="img-7e740b2e-15">
    <path d="M19.63,10.61 L80.6,10.61 80.6,82.31 19.63,82.31 " />
  </clipPath>
</defs>
</svg>
