<?xml version="1.0" encoding="UTF-8"?>
<svg xmlns="http://www.w3.org/2000/svg"
     xmlns:xlink="http://www.w3.org/1999/xlink"
     xmlns:gadfly="http://www.gadflyjl.org/ns"
     version="1.2"
     width="120mm" height="100mm" viewBox="0 0 120 100"
     stroke="none"
     fill="#000000"
     stroke-width="0.3"
     font-size="3.88"
>
<defs>
  <marker id="arrow" markerWidth="15" markerHeight="7" refX="5" refY="3.5" orient="auto" markerUnits="strokeWidth">
    <path d="M0,0 L15,3.5 L0,7 z" stroke="context-stroke" fill="context-stroke"/>
  </marker>
</defs>
<g class="plotroot xscalable yscalable" id="img-4a18a3e8-1">
  <g font-size="3.88" font-family="'PT Sans','Helvetica Neue','Helvetica',sans-serif" fill="#564A55" stroke="#000000" stroke-opacity="0.000" id="img-4a18a3e8-2">
    <g transform="translate(59.32,88.39)">
      <g class="primitive">
        <text text-anchor="middle" dy="0.6em">Year</text>
      </g>
    </g>
  </g>
  <g class="guide xlabels" font-size="2.82" font-family="'PT Sans Caption','Helvetica Neue','Helvetica',sans-serif" fill="#6C606B" id="img-4a18a3e8-3">
    <g transform="translate(24.98,81.72)">
      <g class="primitive">
        <text text-anchor="middle" dy="0.6em">Jan 1, 1980</text>
      </g>
    </g>
    <g transform="translate(41.73,81.72)">
      <g class="primitive">
        <text text-anchor="middle" dy="0.6em">1990</text>
      </g>
    </g>
    <g transform="translate(58.48,81.72)">
      <g class="primitive">
        <text text-anchor="middle" dy="0.6em">2000</text>
      </g>
    </g>
    <g transform="translate(75.23,81.72)">
      <g class="primitive">
        <text text-anchor="middle" dy="0.6em">2010</text>
      </g>
    </g>
    <g transform="translate(91.97,81.72)">
      <g class="primitive">
        <text text-anchor="middle" dy="0.6em">2020</text>
      </g>
    </g>
  </g>
  <g class="guide colorkey" id="img-4a18a3e8-4">
    <g fill="#4C404B" font-size="2.82" font-family="'PT Sans','Helvetica Neue','Helvetica',sans-serif" id="img-4a18a3e8-5">
      <g transform="translate(102.81,41.04)" id="img-4a18a3e8-6" class="color_PCEPILFE">
        <g class="primitive">
          <text dy="0.35em">PCE</text>
        </g>
      </g>
      <g transform="translate(102.81,44.67)" id="img-4a18a3e8-7" class="color_LES1252881600Q_NBD20120101">
        <g class="primitive">
          <text dy="0.35em">Adj. MWW</text>
        </g>
      </g>
      <g transform="translate(102.81,48.3)" id="img-4a18a3e8-8" class="color_CPILFESL_NBD20120101">
        <g class="primitive">
          <text dy="0.35em">CPI</text>
        </g>
      </g>
    </g>
    <g fill-opacity="1" id="img-4a18a3e8-9">
      <g transform="translate(100.91,41.04)" id="img-4a18a3e8-10" class="color_PCEPILFE" stroke="#FFFFFF" fill="#00BFFF">
        <path d="M-0.91,-0.91 L0.91,-0.91 0.91,0.91 -0.91,0.91  z" class="primitive"/>
      </g>
      <g transform="translate(100.91,44.67)" id="img-4a18a3e8-11" class="color_LES1252881600Q_NBD20120101" stroke="#FFFFFF" fill="#D4CA3A">
        <path d="M-0.91,-0.91 L0.91,-0.91 0.91,0.91 -0.91,0.91  z" class="primitive"/>
      </g>
      <g transform="translate(100.91,48.3)" id="img-4a18a3e8-12" class="color_CPILFESL_NBD20120101" stroke="#FFFFFF" fill="#FF6DAE">
        <path d="M-0.91,-0.91 L0.91,-0.91 0.91,0.91 -0.91,0.91  z" class="primitive"/>
      </g>
    </g>
    <g fill="#362A35" font-size="3.88" font-family="'PT Sans','Helvetica Neue','Helvetica',sans-serif" stroke="#000000" stroke-opacity="0.000" id="img-4a18a3e8-13">
      <g transform="translate(100,37.22)" id="img-4a18a3e8-14">
        <g class="primitive">
          <text dy="-0em">Metric</text>
        </g>
      </g>
    </g>
  </g>
  <g clip-path="url(#img-4a18a3e8-15)">
    <g id="img-4a18a3e8-16">
      <g pointer-events="visible" stroke-width="0.3" fill="#000000" fill-opacity="0.000" stroke="#000000" stroke-opacity="0.000" class="guide background" id="img-4a18a3e8-17">
        <g transform="translate(59.32,42.86)" id="img-4a18a3e8-18">
          <path d="M-39.68,-37.86 L39.68,-37.86 39.68,37.86 -39.68,37.86  z" class="primitive"/>
        </g>
      </g>
      <g class="guide ygridlines xfixed" stroke-dasharray="0.5,0.5" stroke-width="0.2" stroke="#D0D0E0" id="img-4a18a3e8-19">
        <g transform="translate(59.32,78.71)" id="img-4a18a3e8-20">
          <path fill="none" d="M-39.68,0 L39.68,0 " class="primitive"/>
        </g>
        <g transform="translate(59.32,54.81)" id="img-4a18a3e8-21">
          <path fill="none" d="M-39.68,0 L39.68,0 " class="primitive"/>
        </g>
        <g transform="translate(59.32,30.9)" id="img-4a18a3e8-22">
          <path fill="none" d="M-39.68,0 L39.68,0 " class="primitive"/>
        </g>
        <g transform="translate(59.32,7)" id="img-4a18a3e8-23">
          <path fill="none" d="M-39.68,0 L39.68,0 " class="primitive"/>
        </g>
      </g>
      <g class="guide xgridlines yfixed" stroke-dasharray="0.5,0.5" stroke-width="0.2" stroke="#D0D0E0" id="img-4a18a3e8-24">
        <g transform="translate(24.98,42.86)" id="img-4a18a3e8-25">
          <path fill="none" d="M0,-37.86 L0,37.86 " class="primitive"/>
        </g>
        <g transform="translate(41.73,42.86)" id="img-4a18a3e8-26">
          <path fill="none" d="M0,-37.86 L0,37.86 " class="primitive"/>
        </g>
        <g transform="translate(58.48,42.86)" id="img-4a18a3e8-27">
          <path fill="none" d="M0,-37.86 L0,37.86 " class="primitive"/>
        </g>
        <g transform="translate(75.23,42.86)" id="img-4a18a3e8-28">
          <path fill="none" d="M0,-37.86 L0,37.86 " class="primitive"/>
        </g>
        <g transform="translate(91.97,42.86)" id="img-4a18a3e8-29">
          <path fill="none" d="M0,-37.86 L0,37.86 " class="primitive"/>
        </g>
      </g>
      <g class="plotpanel" id="img-4a18a3e8-30">
        <metadata>
          <boundingbox value="19.63166666666666mm 5.0mm 79.36833333333334mm 75.715mm"/>
          <unitbox value="1976-10-22 154.1832252666806 17308 days -158.36645053336125"/>
        </metadata>
        <g stroke-width="0.3" fill="#000000" fill-opacity="0.000" class="geometry" id="img-4a18a3e8-31">
          <g transform="translate(59.73,40.1)" id="img-4a18a3e8-32" class="color_PCEPILFE" stroke="#00BFFF" stroke-dasharray="none">
            <path fill="none" d="M-36.43,21.28 L-36.43,21.28 -36.43,21.28 -36.01,20.9 -36.01,20.9 -36.01,20.9 -35.6,20.57 -35.6,20.57 -35.6,20.57 -35.17,20.19 -35.17,20.19 -35.17,20.19 -34.75,19.74 -34.75,19.74 -34.75,19.74 -34.34,19.32 -34.34,19.32 -34.34,19.32 -33.92,18.89 -33.92,18.89 -33.92,18.89 -33.5,18.41 -33.5,18.41 -33.5,18.41 -33.07,17.96 -33.07,17.96 -33.07,17.96 -32.66,17.57 -32.66,17.57 -32.66,17.57 -32.24,17.19 -32.24,17.19 -32.24,17.19 -31.82,16.8 -31.82,16.8 -31.82,16.8 -31.4,16.49 -31.4,16.49 -31.4,16.49 -30.99,16.19 -30.99,16.19 -30.99,16.19 -30.57,15.83 -30.57,15.83 -30.57,15.83 -30.15,15.51 -30.15,15.51 -30.15,15.51 -29.73,15.2 -29.73,15.2 -29.73,15.2 -29.31,15.03 -29.31,15.03 -29.31,15.03 -28.9,14.67 -28.9,14.67 -28.9,14.67 -28.47,14.48 -28.47,14.48 -28.47,14.48 -28.05,14.23 -28.05,14.23 -28.05,14.23 -27.64,13.95 -27.64,13.95 -27.64,13.95 -27.22,13.72 -27.22,13.72 -27.22,13.72 -26.8,13.54 -26.8,13.54 -26.8,13.54 -26.37,13.2 -26.37,13.2 -26.37,13.2 -25.96,12.98 -25.96,12.98 -25.96,12.98 -25.54,12.71 -25.54,12.71 -25.54,12.71 -25.12,12.53 -25.12,12.53 -25.12,12.53 -24.7,12.24 -24.7,12.24 -24.7,12.24 -24.29,12.06 -24.29,12.06 -24.29,12.06 -23.87,11.88 -23.87,11.88 -23.87,11.88 -23.45,11.66 -23.45,11.66 -23.45,11.66 -23.03,11.49 -23.03,11.49 -23.03,11.49 -22.61,11.23 -22.61,11.23 -22.61,11.23 -22.2,10.99 -22.2,10.99 -22.2,10.99 -21.78,10.71 -21.78,10.71 -21.78,10.71 -21.35,10.44 -21.35,10.44 -21.35,10.44 -20.94,10.09 -20.94,10.09 -20.94,10.09 -20.52,9.77 -20.52,9.77 -20.52,9.77 -20.1,9.44 -20.1,9.44 -20.1,9.44 -19.67,9.13 -19.67,9.13 -19.67,9.13 -19.26,8.86 -19.26,8.86 -19.26,8.86 -18.84,8.64 -18.84,8.64 -18.84,8.64 -18.42,8.36 -18.42,8.36 -18.42,8.36 -18,8.01 -18,8.01 -18,8.01 -17.59,7.67 -17.59,7.67 -17.59,7.67 -17.17,7.36 -17.17,7.36 -17.17,7.36 -16.75,7.1 -16.75,7.1 -16.75,7.1 -16.33,6.82 -16.33,6.82 -16.33,6.82 -15.91,6.57 -15.91,6.57 -15.91,6.57 -15.5,6.28 -15.5,6.28 -15.5,6.28 -15.08,6.03 -15.08,6.03 -15.08,6.03 -14.65,5.78 -14.65,5.78 -14.65,5.78 -14.24,5.55 -14.24,5.55 -14.24,5.55 -13.82,5.35 -13.82,5.35 -13.82,5.35 -13.4,5.11 -13.4,5.11 -13.4,5.11 -12.98,4.88 -12.98,4.88 -12.98,4.88 -12.56,4.62 -12.56,4.62 -12.56,4.62 -12.15,4.43 -12.15,4.43 -12.15,4.43 -11.72,4.25 -11.72,4.25 -11.72,4.25 -11.3,4.1 -11.3,4.1 -11.3,4.1 -10.89,3.87 -10.89,3.87 -10.89,3.87 -10.47,3.67 -10.47,3.67 -10.47,3.67 -10.05,3.49 -10.05,3.49 -10.05,3.49 -9.63,3.31 -9.63,3.31 -9.63,3.31 -9.21,3.1 -9.21,3.1 -9.21,3.1 -8.8,2.93 -8.8,2.93 -8.8,2.93 -8.38,2.75 -8.38,2.75 -8.38,2.75 -7.95,2.61 -7.95,2.61 -7.95,2.61 -7.54,2.44 -7.54,2.44 -7.54,2.44 -7.12,2.27 -7.12,2.27 -7.12,2.27 -6.7,2.07 -6.7,2.07 -6.7,2.07 -6.28,1.92 -6.28,1.92 -6.28,1.92 -5.86,1.73 -5.86,1.73 -5.86,1.73 -5.45,1.65 -5.45,1.65 -5.45,1.65 -5.02,1.53 -5.02,1.53 -5.02,1.53 -4.6,1.42 -4.6,1.42 -4.6,1.42 -4.19,1.31 -4.19,1.31 -4.19,1.31 -3.77,1.17 -3.77,1.17 -3.77,1.17 -3.35,1.05 -3.35,1.05 -3.35,1.05 -2.93,0.96 -2.93,0.96 -2.93,0.96 -2.52,0.83 -2.52,0.83 -2.52,0.83 -2.1,0.69 -2.1,0.69 -2.1,0.69 -1.68,0.51 -1.68,0.51 -1.68,0.51 -1.25,0.31 -1.25,0.31 -1.25,0.31 -0.84,0.18 -0.84,0.18 -0.84,0.18 -0.42,-0.01 -0.42,-0.01 -0.42,-0.01 0,-0.2 0,-0.2 0,-0.2 0.42,-0.45 0.42,-0.45 0.42,-0.45 0.84,-0.6 0.84,-0.6 0.84,-0.6 1.25,-0.7 1.25,-0.7 1.25,-0.7 1.68,-0.89 1.68,-0.89 1.68,-0.89 2.1,-1.01 2.1,-1.01 2.1,-1.01 2.51,-1.23 2.51,-1.23 2.51,-1.23 2.93,-1.44 2.93,-1.44 2.93,-1.44 3.35,-1.58 3.35,-1.58 3.35,-1.58 3.77,-1.71 3.77,-1.71 3.77,-1.71 4.18,-1.86 4.18,-1.86 4.18,-1.86 4.6,-2.05 4.6,-2.05 4.6,-2.05 5.02,-2.23 5.02,-2.23 5.02,-2.23 5.45,-2.45 5.45,-2.45 5.45,-2.45 5.86,-2.69 5.86,-2.69 5.86,-2.69 6.28,-2.84 6.28,-2.84 6.28,-2.84 6.7,-3.06 6.7,-3.06 6.7,-3.06 7.12,-3.36 7.12,-3.36 7.12,-3.36 7.54,-3.56 7.54,-3.56 7.54,-3.56 7.95,-3.73 7.95,-3.73 7.95,-3.73 8.38,-4.01 8.38,-4.01 8.38,-4.01 8.8,-4.26 8.8,-4.26 8.8,-4.26 9.21,-4.6 9.21,-4.6 9.21,-4.6 9.63,-4.83 9.63,-4.83 9.63,-4.83 10.05,-5.02 10.05,-5.02 10.05,-5.02 10.47,-5.32 10.47,-5.32 10.47,-5.32 10.88,-5.5 10.88,-5.5 10.88,-5.5 11.3,-5.72 11.3,-5.72 11.3,-5.72 11.72,-6.03 11.72,-6.03 11.72,-6.03 12.14,-6.26 12.14,-6.26 12.14,-6.26 12.56,-6.45 12.56,-6.45 12.56,-6.45 12.98,-6.68 12.98,-6.68 12.98,-6.68 13.4,-6.65 13.4,-6.65 13.4,-6.65 13.82,-6.65 13.82,-6.65 13.82,-6.65 14.24,-6.82 14.24,-6.82 14.24,-6.82 14.65,-6.98 14.65,-6.98 14.65,-6.98 15.08,-7.27 15.08,-7.27 15.08,-7.27 15.5,-7.43 15.5,-7.43 15.5,-7.43 15.91,-7.55 15.91,-7.55 15.91,-7.55 16.33,-7.62 16.33,-7.62 16.33,-7.62 16.75,-7.77 16.75,-7.77 16.75,-7.77 17.17,-7.97 17.17,-7.97 17.17,-7.97 17.58,-8.24 17.58,-8.24 17.58,-8.24 18,-8.46 18,-8.46 18,-8.46 18.42,-8.62 18.42,-8.62 18.42,-8.62 18.84,-8.92 18.84,-8.92 18.84,-8.92 19.26,-9.12 19.26,-9.12 19.26,-9.12 19.68,-9.26 19.68,-9.26 19.68,-9.26 20.1,-9.47 20.1,-9.47 20.1,-9.47 20.52,-9.66 20.52,-9.66 20.52,-9.66 20.94,-9.81 20.94,-9.81 20.94,-9.81 21.35,-10 21.35,-10 21.35,-10 21.77,-10.23 21.77,-10.23 21.77,-10.23 22.2,-10.4 22.2,-10.4 22.2,-10.4 22.61,-10.65 22.61,-10.65 22.61,-10.65 23.03,-10.84 23.03,-10.84 23.03,-10.84 23.45,-10.98 23.45,-10.98 23.45,-10.98 23.87,-11.07 23.87,-11.07 23.87,-11.07 24.28,-11.29 24.28,-11.29 24.28,-11.29 24.7,-11.44 24.7,-11.44 24.7,-11.44 25.12,-11.55 25.12,-11.55 25.12,-11.55 25.54,-11.76 25.54,-11.76 25.54,-11.76 25.96,-12.03 25.96,-12.03 25.96,-12.03 26.38,-12.27 26.38,-12.27 26.38,-12.27 26.8,-12.45 26.8,-12.45 26.8,-12.45 27.22,-12.7 27.22,-12.7 27.22,-12.7 27.64,-12.89 27.64,-12.89 27.64,-12.89 28.05,-13.05 28.05,-13.05 28.05,-13.05 28.47,-13.31 28.47,-13.31 28.47,-13.31 28.9,-13.65 28.9,-13.65 28.9,-13.65 29.31,-13.94 29.31,-13.94 29.31,-13.94 29.73,-14.12 29.73,-14.12 29.73,-14.12 30.15,-14.37 30.15,-14.37 30.15,-14.37 30.57,-14.56 30.57,-14.56 30.57,-14.56 30.98,-14.84 30.98,-14.84 30.98,-14.84 31.4,-15.05 31.4,-15.05 31.4,-15.05 31.82,-15.21 31.82,-15.21 31.82,-15.21 32.24,-15.46 32.24,-15.46 32.24,-15.46 32.66,-15.33 32.66,-15.33 32.66,-15.33 33.08,-15.76 33.08,-15.76 33.08,-15.76 33.5,-15.96 33.5,-15.96 33.5,-15.96 33.92,-16.4 33.92,-16.4 33.92,-16.4 34.33,-17.21 34.33,-17.21 34.33,-17.21 34.75,-17.87 34.75,-17.87 34.75,-17.87 35.17,-18.54 35.17,-18.54 35.17,-18.54 35.6,-19.33 35.6,-19.33 35.6,-19.33 36.01,-19.99 36.01,-19.99 36.01,-19.99 36.43,-20.66 36.43,-20.66 36.43,-20.66 " class="primitive"/>
          </g>
          <g transform="translate(59.73,31.4)" id="img-4a18a3e8-33" class="color_LES1252881600Q_NBD20120101" stroke="#D4CA3A" stroke-dasharray="none">
            <path fill="none" d="M-36.43,-0.49 L-36.43,-0.49 -36.43,-0.49 -36.01,-0.49 -36.01,-0.49 -36.01,-0.49 -35.6,0.22 -35.6,0.22 -35.6,0.22 -35.17,0.79 -35.17,0.79 -35.17,0.79 -34.75,1.5 -34.75,1.5 -34.75,1.5 -34.34,2.36 -34.34,2.36 -34.34,2.36 -33.92,1.79 -33.92,1.79 -33.92,1.79 -33.5,2.36 -33.5,2.36 -33.5,2.36 -33.07,2.5 -33.07,2.5 -33.07,2.5 -32.66,2.93 -32.66,2.93 -32.66,2.93 -32.24,3.22 -32.24,3.22 -32.24,3.22 -31.82,2.79 -31.82,2.79 -31.82,2.79 -31.4,2.79 -31.4,2.79 -31.4,2.79 -30.99,2.5 -30.99,2.5 -30.99,2.5 -30.57,2.93 -30.57,2.93 -30.57,2.93 -30.15,2.65 -30.15,2.65 -30.15,2.65 -29.73,2.36 -29.73,2.36 -29.73,2.36 -29.31,2.5 -29.31,2.5 -29.31,2.5 -28.9,2.36 -28.9,2.36 -28.9,2.36 -28.47,2.79 -28.47,2.79 -28.47,2.79 -28.05,2.65 -28.05,2.65 -28.05,2.65 -27.64,2.79 -27.64,2.79 -27.64,2.79 -27.22,2.65 -27.22,2.65 -27.22,2.65 -26.8,2.22 -26.8,2.22 -26.8,2.22 -26.37,2.5 -26.37,2.5 -26.37,2.5 -25.96,1.22 -25.96,1.22 -25.96,1.22 -25.54,1.65 -25.54,1.65 -25.54,1.65 -25.12,1.65 -25.12,1.65 -25.12,1.65 -24.7,1.5 -24.7,1.5 -24.7,1.5 -24.29,0.5 -24.29,0.5 -24.29,0.5 -23.87,0.5 -23.87,0.5 -23.87,0.5 -23.45,0.08 -23.45,0.08 -23.45,0.08 -23.03,0.5 -23.03,0.5 -23.03,0.5 -22.61,0.5 -22.61,0.5 -22.61,0.5 -22.2,0.22 -22.2,0.22 -22.2,0.22 -21.78,0.5 -21.78,0.5 -21.78,0.5 -21.35,0.36 -21.35,0.36 -21.35,0.36 -20.94,0.93 -20.94,0.93 -20.94,0.93 -20.52,0.93 -20.52,0.93 -20.52,0.93 -20.1,1.08 -20.1,1.08 -20.1,1.08 -19.67,1.22 -19.67,1.22 -19.67,1.22 -19.26,1.36 -19.26,1.36 -19.26,1.36 -18.84,1.36 -18.84,1.36 -18.84,1.36 -18.42,1.36 -18.42,1.36 -18.42,1.36 -18,1.79 -18,1.79 -18,1.79 -17.59,1.79 -17.59,1.79 -17.59,1.79 -17.17,2.65 -17.17,2.65 -17.17,2.65 -16.75,2.79 -16.75,2.79 -16.75,2.79 -16.33,2.22 -16.33,2.22 -16.33,2.22 -15.91,2.79 -15.91,2.79 -15.91,2.79 -15.5,2.79 -15.5,2.79 -15.5,2.79 -15.08,2.65 -15.08,2.65 -15.08,2.65 -14.65,2.36 -14.65,2.36 -14.65,2.36 -14.24,2.65 -14.24,2.65 -14.24,2.65 -13.82,2.5 -13.82,2.5 -13.82,2.5 -13.4,2.79 -13.4,2.79 -13.4,2.79 -12.98,2.36 -12.98,2.36 -12.98,2.36 -12.56,2.07 -12.56,2.07 -12.56,2.07 -12.15,1.79 -12.15,1.79 -12.15,1.79 -11.72,1.79 -11.72,1.79 -11.72,1.79 -11.3,2.22 -11.3,2.22 -11.3,2.22 -10.89,2.07 -10.89,2.07 -10.89,2.07 -10.47,2.5 -10.47,2.5 -10.47,2.5 -10.05,2.5 -10.05,2.5 -10.05,2.5 -9.63,2.65 -9.63,2.65 -9.63,2.65 -9.21,2.5 -9.21,2.5 -9.21,2.5 -8.8,2.07 -8.8,2.07 -8.8,2.07 -8.38,2.65 -8.38,2.65 -8.38,2.65 -7.95,2.79 -7.95,2.79 -7.95,2.79 -7.54,2.79 -7.54,2.79 -7.54,2.79 -7.12,2.5 -7.12,2.5 -7.12,2.5 -6.7,2.65 -6.7,2.65 -6.7,2.65 -6.28,2.65 -6.28,2.65 -6.28,2.65 -5.86,2.5 -5.86,2.5 -5.86,2.5 -5.45,2.5 -5.45,2.5 -5.45,2.5 -5.02,2.5 -5.02,2.5 -5.02,2.5 -4.6,1.79 -4.6,1.79 -4.6,1.79 -4.19,1.79 -4.19,1.79 -4.19,1.79 -3.77,1.5 -3.77,1.5 -3.77,1.5 -3.35,0.5 -3.35,0.5 -3.35,0.5 -2.93,1.08 -2.93,1.08 -2.93,1.08 -2.52,0.36 -2.52,0.36 -2.52,0.36 -2.1,0.22 -2.1,0.22 -2.1,0.22 -1.68,-0.49 -1.68,-0.49 -1.68,-0.49 -1.25,-0.35 -1.25,-0.35 -1.25,-0.35 -0.84,-0.35 -0.84,-0.35 -0.84,-0.35 -0.42,-0.49 -0.42,-0.49 -0.42,-0.49 0,-0.35 0,-0.35 0,-0.35 0.42,-0.21 0.42,-0.21 0.42,-0.21 0.84,-0.64 0.84,-0.64 0.84,-0.64 1.25,-0.92 1.25,-0.92 1.25,-0.92 1.68,-1.21 1.68,-1.21 1.68,-1.21 2.1,-1.35 2.1,-1.35 2.1,-1.35 2.51,-1.07 2.51,-1.07 2.51,-1.07 2.93,-0.78 2.93,-0.78 2.93,-0.78 3.35,-0.64 3.35,-0.64 3.35,-0.64 3.77,-0.49 3.77,-0.49 3.77,-0.49 4.18,-0.92 4.18,-0.92 4.18,-0.92 4.6,-0.78 4.6,-0.78 4.6,-0.78 5.02,-0.78 5.02,-0.78 5.02,-0.78 5.45,-0.78 5.45,-0.78 5.45,-0.78 5.86,-1.35 5.86,-1.35 5.86,-1.35 6.28,-0.49 6.28,-0.49 6.28,-0.49 6.7,-0.78 6.7,-0.78 6.7,-0.78 7.12,-0.64 7.12,-0.64 7.12,-0.64 7.54,-0.35 7.54,-0.35 7.54,-0.35 7.95,0.08 7.95,0.08 7.95,0.08 8.38,-0.07 8.38,-0.07 8.38,-0.07 8.8,-0.07 8.8,-0.07 8.8,-0.07 9.21,0.36 9.21,0.36 9.21,0.36 9.63,-0.35 9.63,-0.35 9.63,-0.35 10.05,-0.78 10.05,-0.78 10.05,-0.78 10.47,-0.64 10.47,-0.64 10.47,-0.64 10.88,-0.49 10.88,-0.49 10.88,-0.49 11.3,-0.64 11.3,-0.64 11.3,-0.64 11.72,-0.07 11.72,-0.07 11.72,-0.07 12.14,-0.49 12.14,-0.49 12.14,-0.49 12.56,-0.49 12.56,-0.49 12.56,-0.49 12.98,0.08 12.98,0.08 12.98,0.08 13.4,-1.21 13.4,-1.21 13.4,-1.21 13.82,-1.92 13.82,-1.92 13.82,-1.92 14.24,-1.92 14.24,-1.92 14.24,-1.92 14.65,-1.92 14.65,-1.92 14.65,-1.92 15.08,-1.78 15.08,-1.78 15.08,-1.78 15.5,-1.78 15.5,-1.78 15.5,-1.78 15.91,-1.49 15.91,-1.49 15.91,-1.49 16.33,-1.49 16.33,-1.49 16.33,-1.49 16.75,-1.35 16.75,-1.35 16.75,-1.35 17.17,-0.92 17.17,-0.92 17.17,-0.92 17.58,-0.64 17.58,-0.64 17.58,-0.64 18,-0.64 18,-0.64 18,-0.64 18.42,-0.49 18.42,-0.49 18.42,-0.49 18.84,-0.49 18.84,-0.49 18.84,-0.49 19.26,-0.78 19.26,-0.78 19.26,-0.78 19.68,-0.21 19.68,-0.21 19.68,-0.21 20.1,-0.21 20.1,-0.21 20.1,-0.21 20.52,0.08 20.52,0.08 20.52,0.08 20.94,-0.49 20.94,-0.49 20.94,-0.49 21.35,-0.35 21.35,-0.35 21.35,-0.35 21.77,-0.35 21.77,-0.35 21.77,-0.35 22.2,-0.49 22.2,-0.49 22.2,-0.49 22.61,0.22 22.61,0.22 22.61,0.22 23.03,-0.64 23.03,-0.64 23.03,-0.64 23.45,-0.64 23.45,-0.64 23.45,-0.64 23.87,-1.35 23.87,-1.35 23.87,-1.35 24.28,-1.07 24.28,-1.07 24.28,-1.07 24.7,-1.21 24.7,-1.21 24.7,-1.21 25.12,-1.92 25.12,-1.92 25.12,-1.92 25.54,-2.06 25.54,-2.06 25.54,-2.06 25.96,-1.92 25.96,-1.92 25.96,-1.92 26.38,-2.21 26.38,-2.21 26.38,-2.21 26.8,-2.49 26.8,-2.49 26.8,-2.49 27.22,-2.92 27.22,-2.92 27.22,-2.92 27.64,-3.21 27.64,-3.21 27.64,-3.21 28.05,-2.92 28.05,-2.92 28.05,-2.92 28.47,-1.92 28.47,-1.92 28.47,-1.92 28.9,-2.78 28.9,-2.78 28.9,-2.78 29.31,-2.78 29.31,-2.78 29.31,-2.78 29.73,-3.21 29.73,-3.21 29.73,-3.21 30.15,-3.35 30.15,-3.35 30.15,-3.35 30.57,-3.35 30.57,-3.35 30.57,-3.35 30.98,-3.78 30.98,-3.78 30.98,-3.78 31.4,-4.06 31.4,-4.06 31.4,-4.06 31.82,-4.35 31.82,-4.35 31.82,-4.35 32.24,-5.2 32.24,-5.2 32.24,-5.2 32.66,-8.77 32.66,-8.77 32.66,-8.77 33.08,-7.49 33.08,-7.49 33.08,-7.49 33.5,-6.35 33.5,-6.35 33.5,-6.35 33.92,-5.92 33.92,-5.92 33.92,-5.92 34.33,-5.63 34.33,-5.63 34.33,-5.63 34.75,-5.06 34.75,-5.06 34.75,-5.06 35.17,-4.35 35.17,-4.35 35.17,-4.35 35.6,-4.35 35.6,-4.35 35.6,-4.35 36.01,-3.78 36.01,-3.78 36.01,-3.78 36.43,-4.2 36.43,-4.2 36.43,-4.2 " class="primitive"/>
          </g>
          <g transform="translate(59.73,40.92)" id="img-4a18a3e8-34" class="color_CPILFESL_NBD20120101" stroke="#FF6DAE" stroke-dasharray="none">
            <path fill="none" d="M-36.43,23.3 L-36.43,23.3 -36.43,23.3 -36.01,22.96 -36.01,22.96 -36.01,22.96 -35.6,22.58 -35.6,22.58 -35.6,22.58 -35.17,22.12 -35.17,22.12 -35.17,22.12 -34.75,21.54 -34.75,21.54 -34.75,21.54 -34.34,20.99 -34.34,20.99 -34.34,20.99 -33.92,20.74 -33.92,20.74 -33.92,20.74 -33.5,20.21 -33.5,20.21 -33.5,20.21 -33.07,19.8 -33.07,19.8 -33.07,19.8 -32.66,19.4 -32.66,19.4 -32.66,19.4 -32.24,18.78 -32.24,18.78 -32.24,18.78 -31.82,18.41 -31.82,18.41 -31.82,18.41 -31.4,18.17 -31.4,18.17 -31.4,18.17 -30.99,17.81 -30.99,17.81 -30.99,17.81 -30.57,17.47 -30.57,17.47 -30.57,17.47 -30.15,17.4 -30.15,17.4 -30.15,17.4 -29.73,17.27 -29.73,17.27 -29.73,17.27 -29.31,17.07 -29.31,17.07 -29.31,17.07 -28.9,16.81 -28.9,16.81 -28.9,16.81 -28.47,16.54 -28.47,16.54 -28.47,16.54 -28.05,16.25 -28.05,16.25 -28.05,16.25 -27.64,15.98 -27.64,15.98 -27.64,15.98 -27.22,15.71 -27.22,15.71 -27.22,15.71 -26.8,15.49 -26.8,15.49 -26.8,15.49 -26.37,15.24 -26.37,15.24 -26.37,15.24 -25.96,15 -25.96,15 -25.96,15 -25.54,14.8 -25.54,14.8 -25.54,14.8 -25.12,14.54 -25.12,14.54 -25.12,14.54 -24.7,14.28 -24.7,14.28 -24.7,14.28 -24.29,14.09 -24.29,14.09 -24.29,14.09 -23.87,13.87 -23.87,13.87 -23.87,13.87 -23.45,13.63 -23.45,13.63 -23.45,13.63 -23.03,13.44 -23.03,13.44 -23.03,13.44 -22.61,13.15 -22.61,13.15 -22.61,13.15 -22.2,12.92 -22.2,12.92 -22.2,12.92 -21.78,12.63 -21.78,12.63 -21.78,12.63 -21.35,12.38 -21.35,12.38 -21.35,12.38 -20.94,12.08 -20.94,12.08 -20.94,12.08 -20.52,11.79 -20.52,11.79 -20.52,11.79 -20.1,11.48 -20.1,11.48 -20.1,11.48 -19.67,11.2 -19.67,11.2 -19.67,11.2 -19.26,10.91 -19.26,10.91 -19.26,10.91 -18.84,10.65 -18.84,10.65 -18.84,10.65 -18.42,10.32 -18.42,10.32 -18.42,10.32 -18,9.97 -18,9.97 -18,9.97 -17.59,9.61 -17.59,9.61 -17.59,9.61 -17.17,9.19 -17.17,9.19 -17.17,9.19 -16.75,8.86 -16.75,8.86 -16.75,8.86 -16.33,8.44 -16.33,8.44 -16.33,8.44 -15.91,8.18 -15.91,8.18 -15.91,8.18 -15.5,7.86 -15.5,7.86 -15.5,7.86 -15.08,7.58 -15.08,7.58 -15.08,7.58 -14.65,7.31 -14.65,7.31 -14.65,7.31 -14.24,7.05 -14.24,7.05 -14.24,7.05 -13.82,6.81 -13.82,6.81 -13.82,6.81 -13.4,6.53 -13.4,6.53 -13.4,6.53 -12.98,6.26 -12.98,6.26 -12.98,6.26 -12.56,5.99 -12.56,5.99 -12.56,5.99 -12.15,5.8 -12.15,5.8 -12.15,5.8 -11.72,5.55 -11.72,5.55 -11.72,5.55 -11.3,5.34 -11.3,5.34 -11.3,5.34 -10.89,5.12 -10.89,5.12 -10.89,5.12 -10.47,4.87 -10.47,4.87 -10.47,4.87 -10.05,4.66 -10.05,4.66 -10.05,4.66 -9.63,4.39 -9.63,4.39 -9.63,4.39 -9.21,4.11 -9.21,4.11 -9.21,4.11 -8.8,3.89 -8.8,3.89 -8.8,3.89 -8.38,3.65 -8.38,3.65 -8.38,3.65 -7.95,3.42 -7.95,3.42 -7.95,3.42 -7.54,3.22 -7.54,3.22 -7.54,3.22 -7.12,3 -7.12,3 -7.12,3 -6.7,2.77 -6.7,2.77 -6.7,2.77 -6.28,2.57 -6.28,2.57 -6.28,2.57 -5.86,2.35 -5.86,2.35 -5.86,2.35 -5.45,2.19 -5.45,2.19 -5.45,2.19 -5.02,1.99 -5.02,1.99 -5.02,1.99 -4.6,1.77 -4.6,1.77 -4.6,1.77 -4.19,1.57 -4.19,1.57 -4.19,1.57 -3.77,1.35 -3.77,1.35 -3.77,1.35 -3.35,1.15 -3.35,1.15 -3.35,1.15 -2.93,0.99 -2.93,0.99 -2.93,0.99 -2.52,0.82 -2.52,0.82 -2.52,0.82 -2.1,0.62 -2.1,0.62 -2.1,0.62 -1.68,0.41 -1.68,0.41 -1.68,0.41 -1.25,0.17 -1.25,0.17 -1.25,0.17 -0.84,-0.07 -0.84,-0.07 -0.84,-0.07 -0.42,-0.32 -0.42,-0.32 -0.42,-0.32 0,-0.55 0,-0.55 0,-0.55 0.42,-0.83 0.42,-0.83 0.42,-0.83 0.84,-1.07 0.84,-1.07 0.84,-1.07 1.25,-1.34 1.25,-1.34 1.25,-1.34 1.68,-1.59 1.68,-1.59 1.68,-1.59 2.1,-1.81 2.1,-1.81 2.1,-1.81 2.51,-2.01 2.51,-2.01 2.51,-2.01 2.93,-2.22 2.93,-2.22 2.93,-2.22 3.35,-2.4 3.35,-2.4 3.35,-2.4 3.77,-2.54 3.77,-2.54 3.77,-2.54 4.18,-2.61 4.18,-2.61 4.18,-2.61 4.6,-2.77 4.6,-2.77 4.6,-2.77 5.02,-2.87 5.02,-2.87 5.02,-2.87 5.45,-3.07 5.45,-3.07 5.45,-3.07 5.86,-3.33 5.86,-3.33 5.86,-3.33 6.28,-3.5 6.28,-3.5 6.28,-3.5 6.7,-3.75 6.7,-3.75 6.7,-3.75 7.12,-4.01 7.12,-4.01 7.12,-4.01 7.54,-4.21 7.54,-4.21 7.54,-4.21 7.95,-4.35 7.95,-4.35 7.95,-4.35 8.38,-4.63 8.38,-4.63 8.38,-4.63 8.8,-4.89 8.8,-4.89 8.8,-4.89 9.21,-5.24 9.21,-5.24 9.21,-5.24 9.63,-5.53 9.63,-5.53 9.63,-5.53 10.05,-5.76 10.05,-5.76 10.05,-5.76 10.47,-6.01 10.47,-6.01 10.47,-6.01 10.88,-6.23 10.88,-6.23 10.88,-6.23 11.3,-6.45 11.3,-6.45 11.3,-6.45 11.72,-6.76 11.72,-6.76 11.72,-6.76 12.14,-7.06 12.14,-7.06 12.14,-7.06 12.56,-7.25 12.56,-7.25 12.56,-7.25 12.98,-7.54 12.98,-7.54 12.98,-7.54 13.4,-7.66 13.4,-7.66 13.4,-7.66 13.82,-7.85 13.82,-7.85 13.82,-7.85 14.24,-8.08 14.24,-8.08 14.24,-8.08 14.65,-8.22 14.65,-8.22 14.65,-8.22 15.08,-8.45 15.08,-8.45 15.08,-8.45 15.5,-8.46 15.5,-8.46 15.5,-8.46 15.91,-8.52 15.91,-8.52 15.91,-8.52 16.33,-8.63 16.33,-8.63 16.33,-8.63 16.75,-8.75 16.75,-8.75 16.75,-8.75 17.17,-8.97 17.17,-8.97 17.17,-8.97 17.58,-9.19 17.58,-9.19 17.58,-9.19 18,-9.51 18,-9.51 18,-9.51 18.42,-9.76 18.42,-9.76 18.42,-9.76 18.84,-10.01 18.84,-10.01 18.84,-10.01 19.26,-10.25 19.26,-10.25 19.26,-10.25 19.68,-10.46 19.68,-10.46 19.68,-10.46 20.1,-10.69 20.1,-10.69 20.1,-10.69 20.52,-10.93 20.52,-10.93 20.52,-10.93 20.94,-11.04 20.94,-11.04 20.94,-11.04 21.35,-11.31 21.35,-11.31 21.35,-11.31 21.77,-11.52 21.77,-11.52 21.77,-11.52 22.2,-11.71 22.2,-11.71 22.2,-11.71 22.61,-11.97 22.61,-11.97 22.61,-11.97 23.03,-12.18 23.03,-12.18 23.03,-12.18 23.45,-12.38 23.45,-12.38 23.45,-12.38 23.87,-12.55 23.87,-12.55 23.87,-12.55 24.28,-12.86 24.28,-12.86 24.28,-12.86 24.7,-13.11 24.7,-13.11 24.7,-13.11 25.12,-13.38 25.12,-13.38 25.12,-13.38 25.54,-13.64 25.54,-13.64 25.54,-13.64 25.96,-13.98 25.96,-13.98 25.96,-13.98 26.38,-14.25 26.38,-14.25 26.38,-14.25 26.8,-14.49 26.8,-14.49 26.8,-14.49 27.22,-14.76 27.22,-14.76 27.22,-14.76 27.64,-14.9 27.64,-14.9 27.64,-14.9 28.05,-15.11 28.05,-15.11 28.05,-15.11 28.47,-15.41 28.47,-15.41 28.47,-15.41 28.9,-15.77 28.9,-15.77 28.9,-15.77 29.31,-16.08 29.31,-16.08 29.31,-16.08 29.73,-16.3 29.73,-16.3 29.73,-16.3 30.15,-16.58 30.15,-16.58 30.15,-16.58 30.57,-16.89 30.57,-16.89 30.57,-16.89 30.98,-17.2 30.98,-17.2 30.98,-17.2 31.4,-17.54 31.4,-17.54 31.4,-17.54 31.82,-17.82 31.82,-17.82 31.82,-17.82 32.24,-18.12 32.24,-18.12 32.24,-18.12 32.66,-17.91 32.66,-17.91 32.66,-17.91 33.08,-18.46 33.08,-18.46 33.08,-18.46 33.5,-18.73 33.5,-18.73 33.5,-18.73 33.92,-18.93 33.92,-18.93 33.92,-18.93 34.33,-20 34.33,-20 34.33,-20 34.75,-20.75 34.75,-20.75 34.75,-20.75 35.17,-21.56 35.17,-21.56 35.17,-21.56 35.6,-22.5 35.6,-22.5 35.6,-22.5 36.01,-23.47 36.01,-23.47 36.01,-23.47 36.43,-24.44 36.43,-24.44 36.43,-24.44 " class="primitive"/>
          </g>
        </g>
      </g>
    </g>
  </g>
  <g class="guide ylabels" font-size="2.82" font-family="'PT Sans Caption','Helvetica Neue','Helvetica',sans-serif" fill="#6C606B" id="img-4a18a3e8-35">
    <g transform="translate(18.63,78.71)" id="img-4a18a3e8-36">
      <g class="primitive">
        <text text-anchor="end" dy="0.35em">0</text>
      </g>
    </g>
    <g transform="translate(18.63,54.81)" id="img-4a18a3e8-37">
      <g class="primitive">
        <text text-anchor="end" dy="0.35em">50</text>
      </g>
    </g>
    <g transform="translate(18.63,30.9)" id="img-4a18a3e8-38">
      <g class="primitive">
        <text text-anchor="end" dy="0.35em">100</text>
      </g>
    </g>
    <g transform="translate(18.63,7)" id="img-4a18a3e8-39">
      <g class="primitive">
        <text text-anchor="end" dy="0.35em">150</text>
      </g>
    </g>
  </g>
  <g font-size="3.88" font-family="'PT Sans','Helvetica Neue','Helvetica',sans-serif" fill="#564A55" stroke="#000000" stroke-opacity="0.000" id="img-4a18a3e8-40">
    <g transform="translate(8.81,40.86)" id="img-4a18a3e8-41">
      <g class="primitive">
        <text text-anchor="middle" dy="0.35em" transform="rotate(-90,0, 2)">Points Indexed to 100 for 2012</text>
      </g>
    </g>
  </g>
</g>
<defs>
  <clipPath id="img-4a18a3e8-15">
    <path d="M19.63,5 L99,5 99,80.72 19.63,80.72 " />
  </clipPath>
</defs>
</svg>
