<?xml version="1.0" encoding="UTF-8"?>
<svg xmlns="http://www.w3.org/2000/svg"
     xmlns:xlink="http://www.w3.org/1999/xlink"
     xmlns:gadfly="http://www.gadflyjl.org/ns"
     version="1.2"
     width="120mm" height="100mm" viewBox="0 0 120 100"
     stroke="none"
     fill="#000000"
     stroke-width="0.3"
     font-size="3.88"
>
<defs>
  <marker id="arrow" markerWidth="15" markerHeight="7" refX="5" refY="3.5" orient="auto" markerUnits="strokeWidth">
    <path d="M0,0 L15,3.5 L0,7 z" stroke="context-stroke" fill="context-stroke"/>
  </marker>
</defs>
<g class="plotroot xscalable yscalable" id="img-f2bd5089-1">
  <g font-size="3.88" font-family="'PT Sans','Helvetica Neue','Helvetica',sans-serif" fill="#564A55" stroke="#000000" stroke-opacity="0.000" id="img-f2bd5089-2">
    <g transform="translate(60.89,88.39)">
      <g class="primitive">
        <text text-anchor="middle" dy="0.6em">Year</text>
      </g>
    </g>
  </g>
  <g class="guide xlabels" font-size="2.82" font-family="'PT Sans Caption','Helvetica Neue','Helvetica',sans-serif" fill="#6C606B" id="img-f2bd5089-3">
    <g transform="translate(27.99,81.72)">
      <g class="primitive">
        <text text-anchor="middle" dy="0.6em">Jan 1, 2000</text>
      </g>
    </g>
    <g transform="translate(41.84,81.72)">
      <g class="primitive">
        <text text-anchor="middle" dy="0.6em">2004</text>
      </g>
    </g>
    <g transform="translate(55.69,81.72)">
      <g class="primitive">
        <text text-anchor="middle" dy="0.6em">2008</text>
      </g>
    </g>
    <g transform="translate(69.54,81.72)">
      <g class="primitive">
        <text text-anchor="middle" dy="0.6em">2012</text>
      </g>
    </g>
    <g transform="translate(83.39,81.72)">
      <g class="primitive">
        <text text-anchor="middle" dy="0.6em">2016</text>
      </g>
    </g>
    <g transform="translate(97.24,81.72)">
      <g class="primitive">
        <text text-anchor="middle" dy="0.6em">2020</text>
      </g>
    </g>
  </g>
  <g class="guide colorkey" id="img-f2bd5089-4">
    <g fill="#4C404B" font-size="2.82" font-family="'PT Sans','Helvetica Neue','Helvetica',sans-serif" id="img-f2bd5089-5">
      <g transform="translate(106.52,42.86)" id="img-f2bd5089-6" class="color_Nl">
        <g class="primitive">
          <text dy="0.35em">d/dt Nl</text>
        </g>
      </g>
      <g transform="translate(106.52,46.48)" id="img-f2bd5089-7" class="color_i">
        <g class="primitive">
          <text dy="0.35em">i(t)</text>
        </g>
      </g>
    </g>
    <g fill-opacity="1" id="img-f2bd5089-8">
      <g transform="translate(104.61,42.86)" id="img-f2bd5089-9" class="color_Nl" stroke="#FFFFFF" fill="#00BFFF">
        <path d="M-0.91,-0.91 L0.91,-0.91 0.91,0.91 -0.91,0.91  z" class="primitive"/>
      </g>
      <g transform="translate(104.61,46.48)" id="img-f2bd5089-10" class="color_i" stroke="#FFFFFF" fill="#D4CA3A">
        <path d="M-0.91,-0.91 L0.91,-0.91 0.91,0.91 -0.91,0.91  z" class="primitive"/>
      </g>
    </g>
    <g fill="#362A35" font-size="3.88" font-family="'PT Sans','Helvetica Neue','Helvetica',sans-serif" stroke="#000000" stroke-opacity="0.000" id="img-f2bd5089-11">
      <g transform="translate(103.71,39.04)" id="img-f2bd5089-12">
        <g class="primitive">
          <text dy="-0em">Metric</text>
        </g>
      </g>
    </g>
  </g>
  <g clip-path="url(#img-f2bd5089-13)">
    <g id="img-f2bd5089-14">
      <g pointer-events="visible" stroke-width="0.3" fill="#000000" fill-opacity="0.000" stroke="#000000" stroke-opacity="0.000" class="guide background" id="img-f2bd5089-15">
        <g transform="translate(60.89,42.86)" id="img-f2bd5089-16">
          <path d="M-41.82,-37.86 L41.82,-37.86 41.82,37.86 -41.82,37.86  z" class="primitive"/>
        </g>
      </g>
      <g class="guide xgridlines yfixed" stroke-dasharray="0.5,0.5" stroke-width="0.2" stroke="#D0D0E0" id="img-f2bd5089-17">
        <g transform="translate(27.99,42.86)" id="img-f2bd5089-18">
          <path fill="none" d="M0,-37.86 L0,37.86 " class="primitive"/>
        </g>
        <g transform="translate(41.84,42.86)" id="img-f2bd5089-19">
          <path fill="none" d="M0,-37.86 L0,37.86 " class="primitive"/>
        </g>
        <g transform="translate(55.69,42.86)" id="img-f2bd5089-20">
          <path fill="none" d="M0,-37.86 L0,37.86 " class="primitive"/>
        </g>
        <g transform="translate(69.54,42.86)" id="img-f2bd5089-21">
          <path fill="none" d="M0,-37.86 L0,37.86 " class="primitive"/>
        </g>
        <g transform="translate(83.39,42.86)" id="img-f2bd5089-22">
          <path fill="none" d="M0,-37.86 L0,37.86 " class="primitive"/>
        </g>
        <g transform="translate(97.24,42.86)" id="img-f2bd5089-23">
          <path fill="none" d="M0,-37.86 L0,37.86 " class="primitive"/>
        </g>
      </g>
      <g class="guide ygridlines xfixed" stroke-dasharray="0.5,0.5" stroke-width="0.2" stroke="#D0D0E0" id="img-f2bd5089-24">
        <g transform="translate(60.89,78.71)" id="img-f2bd5089-25">
          <path fill="none" d="M-41.82,0 L41.82,0 " class="primitive"/>
        </g>
        <g transform="translate(60.89,66.76)" id="img-f2bd5089-26">
          <path fill="none" d="M-41.82,0 L41.82,0 " class="primitive"/>
        </g>
        <g transform="translate(60.89,54.81)" id="img-f2bd5089-27">
          <path fill="none" d="M-41.82,0 L41.82,0 " class="primitive"/>
        </g>
        <g transform="translate(60.89,42.86)" id="img-f2bd5089-28">
          <path fill="none" d="M-41.82,0 L41.82,0 " class="primitive"/>
        </g>
        <g transform="translate(60.89,30.9)" id="img-f2bd5089-29">
          <path fill="none" d="M-41.82,0 L41.82,0 " class="primitive"/>
        </g>
        <g transform="translate(60.89,18.95)" id="img-f2bd5089-30">
          <path fill="none" d="M-41.82,0 L41.82,0 " class="primitive"/>
        </g>
        <g transform="translate(60.89,7)" id="img-f2bd5089-31">
          <path fill="none" d="M-41.82,0 L41.82,0 " class="primitive"/>
        </g>
      </g>
      <g class="plotpanel" id="img-f2bd5089-32">
        <metadata>
          <boundingbox value="19.07166666666666mm 5.0mm 83.635mm 75.715mm"/>
          <unitbox value="1997-06-04 15.836645053336122 8823 days -31.673290106672248"/>
        </metadata>
        <g stroke-width="0.3" fill="#000000" fill-opacity="0.000" class="geometry" id="img-f2bd5089-33">
          <g transform="translate(36.36,40.13)" id="img-f2bd5089-34" class="color_Nl" stroke="#00BFFF" stroke-dasharray="none">
            <path fill="none" d="M-70.68,3.35 L-70.68,3.35 -70.39,3.75 -70.39,3.75 -70.12,4.86 -70.12,4.86 -69.83,6.23 -69.83,6.23 -69.54,4.93 -69.54,4.93 -69.25,4.52 -69.25,4.52 -68.96,5.57 -68.96,5.57 -68.67,5.23 -68.67,5.23 -68.38,4.06 -68.38,4.06 -68.09,5.49 -68.09,5.49 -67.8,5.34 -67.8,5.34 -67.51,4.2 -67.51,4.2 -67.22,4 -67.22,4 -66.93,4.34 -66.93,4.34 -66.66,3.91 -66.66,3.91 -66.37,2.76 -66.37,2.76 -66.08,3.86 -66.08,3.86 -65.79,0.11 -65.79,0.11 -65.5,-1.4 -65.5,-1.4 -65.21,-2.01 -65.21,-2.01 -64.92,-3.31 -64.92,-3.31 -64.63,-4.08 -64.63,-4.08 -64.34,-6 -64.34,-6 -64.05,-6.84 -64.05,-6.84 -63.76,-7.01 -63.76,-7.01 -63.47,-8.7 -63.47,-8.7 -63.19,-8.82 -63.19,-8.82 -62.9,-8.74 -62.9,-8.74 -62.61,-10.59 -62.61,-10.59 -62.32,-9.05 -62.32,-9.05 -62.04,-7.26 -62.04,-7.26 -61.74,-5.64 -61.74,-5.64 -61.45,-5.42 -61.45,-5.42 -61.16,-5.71 -61.16,-5.71 -60.87,-4.82 -60.87,-4.82 -60.59,-4.76 -60.59,-4.76 -60.29,-4.46 -60.29,-4.46 -60,-3.56 -60,-3.56 -59.73,-4.22 -59.73,-4.22 -59.44,-3.23 -59.44,-3.23 -59.15,-1.23 -59.15,-1.23 -58.86,0.66 -58.86,0.66 -58.58,-0.39 -58.58,-0.39 -58.28,-1.67 -58.28,-1.67 -57.99,-2.19 -57.99,-2.19 -57.7,-2.27 -57.7,-2.27 -57.41,-1.87 -57.41,-1.87 -57.13,-1.76 -57.13,-1.76 -56.83,-3.09 -56.83,-3.09 -56.54,-1.59 -56.54,-1.59 -56.27,-1.4 -56.27,-1.4 -55.98,-1.78 -55.98,-1.78 -55.69,-2.1 -55.69,-2.1 -55.4,-4.17 -55.4,-4.17 -55.12,-4 -55.12,-4 -54.82,-3.79 -54.82,-3.79 -54.53,-2.67 -54.53,-2.67 -54.24,-2.65 -54.24,-2.65 -53.95,-2.74 -53.95,-2.74 -53.67,-2.82 -53.67,-2.82 -53.37,-1.81 -53.37,-1.81 -53.08,-3.39 -53.08,-3.39 -52.81,-2.92 -52.81,-2.92 -52.52,-3.51 -52.52,-3.51 -52.23,-4.6 -52.23,-4.6 -51.94,-3.1 -51.94,-3.1 -51.66,-3.42 -51.66,-3.42 -51.36,-3.88 -51.36,-3.88 -51.07,-3.41 -51.07,-3.41 -50.78,-3.8 -50.78,-3.8 -50.49,-3.83 -50.49,-3.83 -50.21,-3.89 -50.21,-3.89 -49.91,-3.87 -49.91,-3.87 -49.62,-3.66 -49.62,-3.66 -49.34,-2.92 -49.34,-2.92 -49.05,-3.38 -49.05,-3.38 -48.76,-1.23 -48.76,-1.23 -48.47,-2.98 -48.47,-2.98 -48.19,-2.42 -48.19,-2.42 -47.89,-1.98 -47.89,-1.98 -47.6,-2.46 -47.6,-2.46 -47.31,-2.25 -47.31,-2.25 -47.02,-2.74 -47.02,-2.74 -46.74,-2.13 -46.74,-2.13 -46.44,-2.92 -46.44,-2.92 -46.15,-2.61 -46.15,-2.61 -45.88,-3.53 -45.88,-3.53 -45.59,-2.38 -45.59,-2.38 -45.3,-3.15 -45.3,-3.15 -45.01,-2.46 -45.01,-2.46 -44.73,-2.29 -44.73,-2.29 -44.43,-2.2 -44.43,-2.2 -44.14,-1.42 -44.14,-1.42 -43.85,-1.29 -43.85,-1.29 -43.56,-1.01 -43.56,-1.01 -43.28,-0.83 -43.28,-0.83 -42.98,-2.14 -42.98,-2.14 -42.69,-1.95 -42.69,-1.95 -42.42,-1.73 -42.42,-1.73 -42.13,-0.86 -42.13,-0.86 -41.84,-1.46 -41.84,-1.46 -41.55,-0.46 -41.55,-0.46 -41.27,0 -41.27,0 -40.97,0.39 -40.97,0.39 -40.68,0.34 -40.68,0.34 -40.39,0.78 -40.39,0.78 -40.1,1.93 -40.1,1.93 -39.82,1.89 -39.82,1.89 -39.52,5.02 -39.52,5.02 -39.23,5.34 -39.23,5.34 -38.96,5.84 -38.96,5.84 -38.67,4.22 -38.67,4.22 -38.38,6.16 -38.38,6.16 -38.09,5.43 -38.09,5.43 -37.81,5.22 -37.81,5.22 -37.51,5.38 -37.51,5.38 -37.22,3.93 -37.22,3.93 -36.93,4.21 -36.93,4.21 -36.64,3.81 -36.64,3.81 -36.36,4.29 -36.36,4.29 -36.06,2.65 -36.06,2.65 -35.77,2.73 -35.77,2.73 -35.49,1.73 -35.49,1.73 -35.2,2.08 -35.2,2.08 -34.92,0.82 -34.92,0.82 -34.62,1.14 -34.62,1.14 -34.34,0.4 -34.34,0.4 -34.04,-0.01 -34.04,-0.01 -33.75,1.12 -33.75,1.12 -33.47,1.04 -33.47,1.04 -33.17,0.48 -33.17,0.48 -32.89,-0.39 -32.89,-0.39 -32.59,0.5 -32.59,0.5 -32.3,-0.36 -32.3,-0.36 -32.03,-0.1 -32.03,-0.1 -31.74,0.61 -31.74,0.61 -31.46,-0.79 -31.46,-0.79 -31.16,-1.05 -31.16,-1.05 -30.88,-0.81 -30.88,-0.81 -30.58,-1.36 -30.58,-1.36 -30.29,-0.97 -30.29,-0.97 -30.01,-1.7 -30.01,-1.7 -29.71,-1.89 -29.71,-1.89 -29.43,-2.23 -29.43,-2.23 -29.13,-3.08 -29.13,-3.08 -28.84,-2.91 -28.84,-2.91 -28.57,-2.05 -28.57,-2.05 -28.28,-2.91 -28.28,-2.91 -28,-2.75 -28,-2.75 -27.7,-1.93 -27.7,-1.93 -27.42,-1.72 -27.42,-1.72 -27.12,-2.19 -27.12,-2.19 -26.83,-3.49 -26.83,-3.49 -26.55,-3.78 -26.55,-3.78 -26.25,-3.88 -26.25,-3.88 -25.97,-3.68 -25.97,-3.68 -25.67,-2.56 -25.67,-2.56 -25.38,-2.84 -25.38,-2.84 -25.11,-3.21 -25.11,-3.21 -24.82,-2.46 -24.82,-2.46 -24.54,-0.3 -24.54,-0.3 -24.24,-0.96 -24.24,-0.96 -23.96,-1.39 -23.96,-1.39 -23.66,-0.2 -23.66,-0.2 -23.37,-0.07 -23.37,-0.07 -23.09,0.27 -23.09,0.27 -22.79,1.44 -22.79,1.44 -22.51,2.02 -22.51,2.02 -22.21,1.84 -22.21,1.84 -21.92,1.36 -21.92,1.36 -21.64,0.99 -21.64,0.99 -21.35,0.72 -21.35,0.72 -21.07,-0.78 -21.07,-0.78 -20.77,-1.27 -20.77,-1.27 -20.49,-1.36 -20.49,-1.36 -20.19,-1.72 -20.19,-1.72 -19.9,-1.87 -19.9,-1.87 -19.62,-2.04 -19.62,-2.04 -19.32,-2.21 -19.32,-2.21 -19.04,-2.57 -19.04,-2.57 -18.74,-3.34 -18.74,-3.34 -18.45,-2.33 -18.45,-2.33 -18.18,-3.03 -18.18,-3.03 -17.89,-3.25 -17.89,-3.25 -17.61,-3.37 -17.61,-3.37 -17.31,-2.58 -17.31,-2.58 -17.03,-2.69 -17.03,-2.69 -16.73,-2.61 -16.73,-2.61 -16.44,-1.93 -16.44,-1.93 -16.16,-1.55 -16.16,-1.55 -15.86,-2.67 -15.86,-2.67 -15.58,-2.55 -15.58,-2.55 -15.28,-1.8 -15.28,-1.8 -14.99,-1.95 -14.99,-1.95 -14.72,-0.84 -14.72,-0.84 -14.43,-1.1 -14.43,-1.1 -14.15,-0.71 -14.15,-0.71 -13.85,-0.66 -13.85,-0.66 -13.57,-0.05 -13.57,-0.05 -13.27,0.19 -13.27,0.19 -12.98,-0.89 -12.98,-0.89 -12.7,-0.62 -12.7,-0.62 -12.4,-0.25 -12.4,-0.25 -12.12,-0.79 -12.12,-0.79 -11.82,-1.48 -11.82,-1.48 -11.53,-1.02 -11.53,-1.02 -11.26,-1.17 -11.26,-1.17 -10.97,-0.46 -10.97,-0.46 -10.69,-0.89 -10.69,-0.89 -10.39,-1.16 -10.39,-1.16 -10.11,-1.07 -10.11,-1.07 -9.81,-1.28 -9.81,-1.28 -9.52,-0.39 -9.52,-0.39 -9.24,-0.89 -9.24,-0.89 -8.94,-0.94 -8.94,-0.94 -8.66,-0.74 -8.66,-0.74 -8.36,-3.62 -8.36,-3.62 -8.07,-4.01 -8.07,-4.01 -7.8,-4.02 -7.8,-4.02 -7.5,-5.03 -7.5,-5.03 -7.22,-3.23 -7.22,-3.23 -6.92,-3.66 -6.92,-3.66 -6.64,-2.86 -6.64,-2.86 -6.35,-2.77 -6.35,-2.77 -6.05,-2.97 -6.05,-2.97 -5.77,-2.8 -5.77,-2.8 -5.47,-2.64 -5.47,-2.64 -5.19,-2.77 -5.19,-2.77 -4.89,0.59 -4.89,0.59 -4.6,0.95 -4.6,0.95 -4.34,0.83 -4.34,0.83 -4.04,2.67 -4.04,2.67 -3.76,1.92 -3.76,1.92 -3.46,2.84 -3.46,2.84 -3.18,1.78 -3.18,1.78 -2.89,3.46 -2.89,3.46 -2.59,2.81 -2.59,2.81 -2.31,3.94 -2.31,3.94 -2.01,4.61 -2.01,4.61 -1.73,5.45 -1.73,5.45 -1.43,6.33 -1.43,6.33 -1.14,4.76 -1.14,4.76 -0.88,5.51 -0.88,5.51 -0.58,4.77 -0.58,4.77 -0.3,3.69 -0.3,3.69 -0,3.53 -0,3.53 0.28,3.87 0.28,3.87 0.57,1.91 0.57,1.91 0.87,1.93 0.87,1.93 1.15,1.65 1.15,1.65 1.45,2.23 1.45,2.23 1.73,2.06 1.73,2.06 2.03,-0.3 2.03,-0.3 2.32,0.9 2.32,0.9 2.58,0.52 2.58,0.52 2.88,0.08 2.88,0.08 3.16,0.97 3.16,0.97 3.46,0.32 3.46,0.32 3.74,0.87 3.74,0.87 4.03,1.25 4.03,1.25 4.33,2.19 4.33,2.19 4.61,1.02 4.61,1.02 4.91,-0.61 4.91,-0.61 5.19,-0.75 5.19,-0.75 5.49,0.89 5.49,0.89 5.78,0.88 5.78,0.88 6.05,0.95 6.05,0.95 6.35,0.91 6.35,0.91 6.63,0.45 6.63,0.45 6.93,0.32 6.93,0.32 7.21,-0.9 7.21,-0.9 7.5,-0.79 7.5,-0.79 7.8,-0.54 7.8,-0.54 8.08,-0.3 8.08,-0.3 8.38,-0.4 8.38,-0.4 8.66,-0.24 8.66,-0.24 8.95,-0.34 8.95,-0.34 9.25,-0.45 9.25,-0.45 9.51,-1.07 9.51,-1.07 9.81,-1.71 9.81,-1.71 10.09,-2.02 10.09,-2.02 10.39,-1.64 10.39,-1.64 10.67,-1.51 10.67,-1.51 10.96,-2.17 10.96,-2.17 11.26,-2.27 11.26,-2.27 11.54,-2.09 11.54,-2.09 11.84,-1.14 11.84,-1.14 12.12,-1.76 12.12,-1.76 12.41,-2.23 12.41,-2.23 12.71,-2.51 12.71,-2.51 12.97,-2.52 12.97,-2.52 13.27,-1.52 13.27,-1.52 13.55,-1.46 13.55,-1.46 13.85,-1.73 13.85,-1.73 14.13,-0.94 14.13,-0.94 14.42,-0.95 14.42,-0.95 14.72,-1.33 14.72,-1.33 15,-1.91 15,-1.91 15.3,-2.37 15.3,-2.37 15.58,-2.66 15.58,-2.66 15.87,-2.08 15.87,-2.08 16.17,-1.61 16.17,-1.61 16.43,-1.56 16.43,-1.56 16.73,-0.31 16.73,-0.31 17.01,-0.28 17.01,-0.28 17.31,-0.11 17.31,-0.11 17.59,-0.1 17.59,-0.1 17.88,0.98 17.88,0.98 18.18,0.37 18.18,0.37 18.46,1.69 18.46,1.69 18.76,0.98 18.76,0.98 19.04,2.23 19.04,2.23 19.33,2.15 19.33,2.15 19.63,2.56 19.63,2.56 19.9,3.11 19.9,3.11 20.2,1.83 20.2,1.83 20.48,2.72 20.48,2.72 20.77,3.26 20.77,3.26 21.06,3.34 21.06,3.34 21.35,3.51 21.35,3.51 21.65,4.63 21.65,4.63 21.93,4.6 21.93,4.6 22.23,6.79 22.23,6.79 22.51,7.47 22.51,7.47 22.8,9.63 22.8,9.63 23.1,10.11 23.1,10.11 23.36,11.53 23.36,11.53 23.66,11.68 23.66,11.68 23.94,12 23.94,12 24.23,12.12 24.23,12.12 24.52,11.97 24.52,11.97 24.81,12.13 24.81,12.13 25.11,13.04 25.11,13.04 25.39,13.24 25.39,13.24 25.69,11.75 25.69,11.75 25.97,11.66 25.97,11.66 26.26,8.97 26.26,8.97 26.56,7.89 26.56,7.89 26.82,6.05 26.82,6.05 27.12,5.03 27.12,5.03 27.4,4.44 27.4,4.44 27.69,4.21 27.69,4.21 27.98,3.96 27.98,3.96 28.27,2.82 28.27,2.82 28.57,1.73 28.57,1.73 28.85,1.54 28.85,1.54 29.15,2.06 29.15,2.06 29.43,0.49 29.43,0.49 29.72,1.32 29.72,1.32 30.02,1.32 30.02,1.32 30.28,1.2 30.28,1.2 30.58,2.23 30.58,2.23 30.86,2.07 30.86,2.07 31.15,2.31 31.15,2.31 31.44,2.13 31.44,2.13 31.73,1.86 31.73,1.86 32.03,1.38 32.03,1.38 32.31,0.58 32.31,0.58 32.61,-0.34 32.61,-0.34 32.89,-0.02 32.89,-0.02 33.18,-1.28 33.18,-1.28 33.48,-1.5 33.48,-1.5 33.75,-1.38 33.75,-1.38 34.05,-1.24 34.05,-1.24 34.33,-1.7 34.33,-1.7 34.62,-2.43 34.62,-2.43 34.91,-2.02 34.91,-2.02 35.2,-1.29 35.2,-1.29 35.5,-2.15 35.5,-2.15 35.78,-2.49 35.78,-2.49 36.07,-1.53 36.07,-1.53 36.36,-1.39 36.36,-1.39 36.65,-0.16 36.65,-0.16 36.95,0.19 36.95,0.19 37.21,0.57 37.21,0.57 37.51,-0.2 37.51,-0.2 37.79,-0.09 37.79,-0.09 38.08,0.03 38.08,0.03 38.37,-0.59 38.37,-0.59 38.66,-0.69 38.66,-0.69 38.96,0.43 38.96,0.43 39.24,2.55 39.24,2.55 39.53,0.81 39.53,0.81 39.82,0.31 39.82,0.31 40.11,-0.37 40.11,-0.37 40.41,-0.23 40.41,-0.23 40.67,-1.16 40.67,-1.16 40.97,-0.66 40.97,-0.66 41.25,-0.5 41.25,-0.5 41.54,-1.01 41.54,-1.01 41.83,-0.81 41.83,-0.81 42.12,-0.93 42.12,-0.93 42.42,-1.18 42.42,-1.18 42.7,-3.75 42.7,-3.75 42.99,-2.11 42.99,-2.11 43.28,-1.96 43.28,-1.96 43.57,-2.21 43.57,-2.21 43.87,-2.07 43.87,-2.07 44.13,-1.35 44.13,-1.35 44.43,-1.94 44.43,-1.94 44.71,-2.18 44.71,-2.18 45,-1.47 45,-1.47 45.29,-1.24 45.29,-1.24 45.58,-1.6 45.58,-1.6 45.88,-0.61 45.88,-0.61 46.16,-0.22 46.16,-0.22 46.45,-0.61 46.45,-0.61 46.74,-1.34 46.74,-1.34 47.03,-1.32 47.03,-1.32 47.33,-1.95 47.33,-1.95 47.6,-2.26 47.6,-2.26 47.89,-1.4 47.89,-1.4 48.18,-0.99 48.18,-0.99 48.47,-1.14 48.47,-1.14 48.76,-1.65 48.76,-1.65 49.05,-1.44 49.05,-1.44 49.35,-1.99 49.35,-1.99 49.63,-1.35 49.63,-1.35 49.92,-1.26 49.92,-1.26 50.21,-0.51 50.21,-0.51 50.5,0.35 50.5,0.35 50.8,0.28 50.8,0.28 51.06,-0.19 51.06,-0.19 51.35,-0.73 51.35,-0.73 51.64,-0.34 51.64,-0.34 51.93,-0.59 51.93,-0.59 52.22,-0.45 52.22,-0.45 52.51,0.01 52.51,0.01 52.81,-1.25 52.81,-1.25 53.09,-0.13 53.09,-0.13 53.38,-0.19 53.38,-0.19 53.67,-0.02 53.67,-0.02 53.96,-0.95 53.96,-0.95 54.26,-1.63 54.26,-1.63 54.52,-0.77 54.52,-0.77 54.81,-0.56 54.81,-0.56 55.1,-1.37 55.1,-1.37 55.39,-1.04 55.39,-1.04 55.68,-1.24 55.68,-1.24 55.97,-0.4 55.97,-0.4 56.27,0.12 56.27,0.12 56.55,-1.45 56.55,-1.45 56.84,-1.63 56.84,-1.63 57.13,-1.72 57.13,-1.72 57.42,-0.56 57.42,-0.56 57.72,0.06 57.72,0.06 57.98,0.31 57.98,0.31 58.27,0.6 58.27,0.6 58.56,0.92 58.56,0.92 58.85,0.59 58.85,0.59 59.14,0.62 59.14,0.62 59.43,-0.76 59.43,-0.76 59.73,-0.77 59.73,-0.77 60.01,-0.43 60.01,-0.43 60.3,-0.17 60.3,-0.17 60.59,-0.33 60.59,-0.33 60.88,-0.39 60.88,-0.39 61.18,-0.13 61.18,-0.13 61.45,4.66 61.45,4.66 61.74,38.45 61.74,38.45 62.03,32.72 62.03,32.72 62.32,25.4 62.32,25.4 62.61,23.61 62.61,23.61 62.9,18.79 62.9,18.79 63.19,18.86 63.19,18.86 63.48,15.76 63.48,15.76 63.77,15.91 63.77,15.91 64.06,16.11 64.06,16.11 64.35,15.76 64.35,15.76 64.64,15.51 64.64,15.51 64.91,9.88 64.91,9.88 65.2,-29.44 65.2,-29.44 65.49,-22.31 65.49,-22.31 65.78,-13.06 65.78,-13.06 66.07,-12.21 66.07,-12.21 66.36,-7.01 66.36,-7.01 66.65,-7.38 66.65,-7.38 66.94,-4.48 66.94,-4.48 67.23,-6.15 67.23,-6.15 67.52,-6.99 67.52,-6.99 67.81,-8.7 67.81,-8.7 68.1,-8.97 68.1,-8.97 68.37,-9.18 68.37,-9.18 68.66,-8.09 68.66,-8.09 68.95,-8.12 68.95,-8.12 69.24,-7.52 69.24,-7.52 69.53,-6.02 69.53,-6.02 69.82,-5.96 69.82,-5.96 70.11,-5.25 70.11,-5.25 70.4,-4.05 70.4,-4.05 70.69,-2.12 70.69,-2.12 " class="primitive"/>
          </g>
          <g transform="translate(36.36,39.58)" id="img-f2bd5089-35" class="color_i" stroke="#D4CA3A" stroke-dasharray="none">
            <path fill="none" d="M-70.68,-7.1 L-70.68,-7.1 -70.39,-12.75 -70.39,-12.75 -70.12,-15.06 -70.12,-15.06 -69.83,-16.24 -69.83,-16.24 -69.54,-16.48 -69.54,-16.48 -69.25,-18.92 -69.25,-18.92 -68.96,-14.53 -68.96,-14.53 -68.67,-10.28 -68.67,-10.28 -68.38,-4.61 -68.38,-4.61 -68.09,-7.79 -68.09,-7.79 -67.8,-10.48 -67.8,-10.48 -67.51,-9.51 -67.51,-9.51 -67.22,-7.95 -67.22,-7.95 -66.93,-8.36 -66.93,-8.36 -66.66,-9.4 -66.66,-9.4 -66.37,-8.88 -66.37,-8.88 -66.08,-9.38 -66.08,-9.38 -65.79,-10.97 -65.79,-10.97 -65.5,-8.01 -65.5,-8.01 -65.21,-10.44 -65.21,-10.44 -64.92,-9.8 -64.92,-9.8 -64.63,-8.49 -64.63,-8.49 -64.34,-7.76 -64.34,-7.76 -64.05,-7.36 -64.05,-7.36 -63.76,-9.52 -63.76,-9.52 -63.47,-9.16 -63.47,-9.16 -63.19,-10.11 -63.19,-10.11 -62.9,-9.54 -62.9,-9.54 -62.61,-9.56 -62.61,-9.56 -62.32,-9.57 -62.32,-9.57 -62.04,-11.77 -62.04,-11.77 -61.74,-11.22 -61.74,-11.22 -61.45,-12.1 -61.45,-12.1 -61.16,-13.13 -61.16,-13.13 -60.87,-11.97 -60.87,-11.97 -60.59,-10.47 -60.59,-10.47 -60.29,-9 -60.29,-9 -60,-8.18 -60,-8.18 -59.73,-7.57 -59.73,-7.57 -59.44,-10.38 -59.44,-10.38 -59.15,-8.65 -59.15,-8.65 -58.86,-5.13 -58.86,-5.13 -58.58,-7.38 -58.58,-7.38 -58.28,-6.9 -58.28,-6.9 -57.99,-6.56 -57.99,-6.56 -57.7,-6.48 -57.7,-6.48 -57.41,-6.78 -57.41,-6.78 -57.13,-7.38 -57.13,-7.38 -56.83,-6.98 -56.83,-6.98 -56.54,-7.43 -56.54,-7.43 -56.27,-9.43 -56.27,-9.43 -55.98,-8.95 -55.98,-8.95 -55.69,-8.59 -55.69,-8.59 -55.4,-7.45 -55.4,-7.45 -55.12,-5.1 -55.12,-5.1 -54.82,-4.74 -54.82,-4.74 -54.53,-3.88 -54.53,-3.88 -54.24,-3.33 -54.24,-3.33 -53.95,-3.15 -53.95,-3.15 -53.67,-2.5 -53.67,-2.5 -53.37,-2.66 -53.37,-2.66 -53.08,-2.18 -53.08,-2.18 -52.81,-4.59 -52.81,-4.59 -52.52,-2.7 -52.52,-2.7 -52.23,-1.76 -52.23,-1.76 -51.94,-3.54 -51.94,-3.54 -51.66,-2.14 -51.66,-2.14 -51.36,-2.87 -51.36,-2.87 -51.07,-2.4 -51.07,-2.4 -50.78,-5.45 -50.78,-5.45 -50.49,-4.93 -50.49,-4.93 -50.21,-2.49 -50.21,-2.49 -49.91,-2.63 -49.91,-2.63 -49.62,-3.55 -49.62,-3.55 -49.34,-3.17 -49.34,-3.17 -49.05,-3.42 -49.05,-3.42 -48.76,-3.67 -48.76,-3.67 -48.47,-4.19 -48.47,-4.19 -48.19,-2.74 -48.19,-2.74 -47.89,-4.46 -47.89,-4.46 -47.6,-4.75 -47.6,-4.75 -47.31,-4.18 -47.31,-4.18 -47.02,-3.99 -47.02,-3.99 -46.74,-4.54 -46.74,-4.54 -46.44,-4.49 -46.44,-4.49 -46.15,-4.87 -46.15,-4.87 -45.88,-5 -45.88,-5 -45.59,-6.42 -45.59,-6.42 -45.3,-7.49 -45.3,-7.49 -45.01,-7.36 -45.01,-7.36 -44.73,-6.05 -44.73,-6.05 -44.43,-5.64 -44.43,-5.64 -44.14,-6.21 -44.14,-6.21 -43.85,-6.12 -43.85,-6.12 -43.56,-5.95 -43.56,-5.95 -43.28,-6.09 -43.28,-6.09 -42.98,-5.85 -42.98,-5.85 -42.69,-4.77 -42.69,-4.77 -42.42,-7.31 -42.42,-7.31 -42.13,-7.54 -42.13,-7.54 -41.84,-7.01 -41.84,-7.01 -41.55,-5.62 -41.55,-5.62 -41.27,-6.97 -41.27,-6.97 -40.97,-6.05 -40.97,-6.05 -40.68,-3.54 -40.68,-3.54 -40.39,-2.87 -40.39,-2.87 -40.1,-1.65 -40.1,-1.65 -39.82,-1.71 -39.82,-1.71 -39.52,-3.14 -39.52,-3.14 -39.23,-3.9 -39.23,-3.9 -38.96,-3.49 -38.96,-3.49 -38.67,-4.88 -38.67,-4.88 -38.38,-4.25 -38.38,-4.25 -38.09,-3.8 -38.09,-3.8 -37.81,-3.56 -37.81,-3.56 -37.51,-3.18 -37.51,-3.18 -37.22,-3.01 -37.22,-3.01 -36.93,-1.88 -36.93,-1.88 -36.64,-1.66 -36.64,-1.66 -36.36,-0.64 -36.36,-0.64 -36.06,-0.31 -36.06,-0.31 -35.77,-0.2 -35.77,-0.2 -35.49,0.01 -35.49,0.01 -35.2,-0.9 -35.2,-0.9 -34.92,-0.28 -34.92,-0.28 -34.62,0.29 -34.62,0.29 -34.34,0.28 -34.34,0.28 -34.04,0.73 -34.04,0.73 -33.75,0.93 -33.75,0.93 -33.47,1.52 -33.47,1.52 -33.17,1.11 -33.17,1.11 -32.89,0.65 -32.89,0.65 -32.59,1.12 -32.59,1.12 -32.3,1.38 -32.3,1.38 -32.03,1.96 -32.03,1.96 -31.74,1.58 -31.74,1.58 -31.46,1.84 -31.46,1.84 -31.16,0.28 -31.16,0.28 -30.88,1.28 -30.88,1.28 -30.58,1.1 -30.58,1.1 -30.29,1.44 -30.29,1.44 -30.01,2 -30.01,2 -29.71,1.54 -29.71,1.54 -29.43,1.02 -29.43,1.02 -29.13,1.16 -29.13,1.16 -28.84,1.43 -28.84,1.43 -28.57,2.48 -28.57,2.48 -28.28,0.16 -28.28,0.16 -28,-0.42 -28,-0.42 -27.7,0.28 -27.7,0.28 -27.42,-0.26 -27.42,-0.26 -27.12,-1.49 -27.12,-1.49 -26.83,-1.57 -26.83,-1.57 -26.55,-1.57 -26.55,-1.57 -26.25,-1.6 -26.25,-1.6 -25.97,-1.53 -25.97,-1.53 -25.67,-2.29 -25.67,-2.29 -25.38,-2.11 -25.38,-2.11 -25.11,-1.88 -25.11,-1.88 -24.82,-2.36 -24.82,-2.36 -24.54,-5.59 -24.54,-5.59 -24.24,-4.15 -24.24,-4.15 -23.96,-2.54 -23.96,-2.54 -23.66,-2.74 -23.66,-2.74 -23.37,-1.98 -23.37,-1.98 -23.09,-2.76 -23.09,-2.76 -22.79,-2.28 -22.79,-2.28 -22.51,-4.02 -22.51,-4.02 -22.21,-2.49 -22.21,-2.49 -21.92,-1.84 -21.92,-1.84 -21.64,-2.92 -21.64,-2.92 -21.35,-2.9 -21.35,-2.9 -21.07,-2.23 -21.07,-2.23 -20.77,-2.4 -20.77,-2.4 -20.49,-3.12 -20.49,-3.12 -20.19,-2.58 -20.19,-2.58 -19.9,-3.11 -19.9,-3.11 -19.62,-2.36 -19.62,-2.36 -19.32,-1.87 -19.32,-1.87 -19.04,-2.58 -19.04,-2.58 -18.74,-1.86 -18.74,-1.86 -18.45,-1.39 -18.45,-1.39 -18.18,-2.52 -18.18,-2.52 -17.89,-2.89 -17.89,-2.89 -17.61,-2.93 -17.61,-2.93 -17.31,-3.35 -17.31,-3.35 -17.03,-3.73 -17.03,-3.73 -16.73,-3.04 -16.73,-3.04 -16.44,-3.53 -16.44,-3.53 -16.16,-2.29 -16.16,-2.29 -15.86,-1.9 -15.86,-1.9 -15.58,-3.5 -15.58,-3.5 -15.28,-3.07 -15.28,-3.07 -14.99,-2.77 -14.99,-2.77 -14.72,-3.17 -14.72,-3.17 -14.43,-3.19 -14.43,-3.19 -14.15,-2.93 -14.15,-2.93 -13.85,-3.58 -13.85,-3.58 -13.57,-2.14 -13.57,-2.14 -13.27,-2.33 -13.27,-2.33 -12.98,-2.07 -12.98,-2.07 -12.7,-1.78 -12.7,-1.78 -12.4,-1.55 -12.4,-1.55 -12.12,-2.37 -12.12,-2.37 -11.82,-1.45 -11.82,-1.45 -11.53,-1.28 -11.53,-1.28 -11.26,-2.53 -11.26,-2.53 -10.97,-2.7 -10.97,-2.7 -10.69,-1.89 -10.69,-1.89 -10.39,-4.96 -10.39,-4.96 -10.11,-2.8 -10.11,-2.8 -9.81,-3.01 -9.81,-3.01 -9.52,-3.21 -9.52,-3.21 -9.24,-2.11 -9.24,-2.11 -8.94,-1.9 -8.94,-1.9 -8.66,-1.13 -8.66,-1.13 -8.36,-3.06 -8.36,-3.06 -8.07,-3.03 -8.07,-3.03 -7.8,-3.07 -7.8,-3.07 -7.5,-3.64 -7.5,-3.64 -7.22,-3.39 -7.22,-3.39 -6.92,-1.45 -6.92,-1.45 -6.64,-4.73 -6.64,-4.73 -6.35,-4.46 -6.35,-4.46 -6.05,-3.9 -6.05,-3.9 -5.77,-4 -5.77,-4 -5.47,-3.31 -5.47,-3.31 -5.19,-2.26 -5.19,-2.26 -4.89,-4.19 -4.89,-4.19 -4.6,-3.49 -4.6,-3.49 -4.34,-5.37 -4.34,-5.37 -4.04,-2.45 -4.04,-2.45 -3.76,-1.17 -3.76,-1.17 -3.46,-0.17 -3.46,-0.17 -3.18,-0.76 -3.18,-0.76 -2.89,-0.53 -2.89,-0.53 -2.59,2.68 -2.59,2.68 -2.31,0.83 -2.31,0.83 -2.01,0.76 -2.01,0.76 -1.73,3.76 -1.73,3.76 -1.43,1.4 -1.43,1.4 -1.14,1.24 -1.14,1.24 -0.88,0.7 -0.88,0.7 -0.58,2.01 -0.58,2.01 -0.3,3.02 -0.3,3.02 -0,2.22 -0,2.22 0.28,2.67 0.28,2.67 0.57,2.85 0.57,2.85 0.87,3.32 0.87,3.32 1.15,3.76 1.15,3.76 1.45,3.95 1.45,3.95 1.73,3.43 1.73,3.43 2.03,3.74 2.03,3.74 2.32,3.73 2.32,3.73 2.58,3.7 2.58,3.7 2.88,3.54 2.88,3.54 3.16,3.09 3.16,3.09 3.46,6.2 3.46,6.2 3.74,3.5 3.74,3.5 4.03,3.05 4.03,3.05 4.33,3.15 4.33,3.15 4.61,3.75 4.61,3.75 4.91,3.67 4.91,3.67 5.19,4.72 5.19,4.72 5.49,3.61 5.49,3.61 5.78,4.24 5.78,4.24 6.05,3.44 6.05,3.44 6.35,4.27 6.35,4.27 6.63,4.49 6.63,4.49 6.93,5.65 6.93,5.65 7.21,4.35 7.21,4.35 7.5,4.46 7.5,4.46 7.8,6.47 7.8,6.47 8.08,3.79 8.08,3.79 8.38,3.39 8.38,3.39 8.66,0.47 8.66,0.47 8.95,2.47 8.95,2.47 9.25,2.01 9.25,2.01 9.51,1.89 9.51,1.89 9.81,2.13 9.81,2.13 10.09,1.69 10.09,1.69 10.39,1.31 10.39,1.31 10.67,0.67 10.67,0.67 10.96,0.24 10.96,0.24 11.26,-1.44 11.26,-1.44 11.54,0.46 11.54,0.46 11.84,0.24 11.84,0.24 12.12,1.21 12.12,1.21 12.41,-1.55 12.41,-1.55 12.71,-1.79 12.71,-1.79 12.97,-4.48 12.97,-4.48 13.27,-1.72 13.27,-1.72 13.55,-2.2 13.55,-2.2 13.85,-2.42 13.85,-2.42 14.13,-1.89 14.13,-1.89 14.42,-1.87 14.42,-1.87 14.72,-3.34 14.72,-3.34 15,-3.48 15,-3.48 15.3,-4.73 15.3,-4.73 15.58,-4.95 15.58,-4.95 15.87,-2.2 15.87,-2.2 16.17,-2.65 16.17,-2.65 16.43,-1.69 16.43,-1.69 16.73,-1.65 16.73,-1.65 17.01,-0.19 17.01,-0.19 17.31,0.68 17.31,0.68 17.59,-1.28 17.59,-1.28 17.88,-1.81 17.88,-1.81 18.18,-1.04 18.18,-1.04 18.46,-0.8 18.46,-0.8 18.76,-1.96 18.76,-1.96 19.04,-0.29 19.04,-0.29 19.33,0.6 19.33,0.6 19.63,2.57 19.63,2.57 19.9,1.77 19.9,1.77 20.2,3.12 20.2,3.12 20.48,4.19 20.48,4.19 20.77,4.14 20.77,4.14 21.06,5.24 21.06,5.24 21.35,6.81 21.35,6.81 21.65,5.71 21.65,5.71 21.93,0.43 21.93,0.43 22.23,-3.37 22.23,-3.37 22.51,-2.81 22.51,-2.81 22.8,-1.56 22.8,-1.56 23.1,-1.69 23.1,-1.69 23.36,-4.48 23.36,-4.48 23.66,3.12 23.66,3.12 23.94,3.12 23.94,3.12 24.23,2.11 24.23,2.11 24.52,3.53 24.52,3.53 24.81,5.59 24.81,5.59 25.11,7.79 25.11,7.79 25.39,5.22 25.39,5.22 25.69,5.69 25.69,5.69 25.97,6.2 25.97,6.2 26.26,5.22 26.26,5.22 26.56,5.83 26.56,5.83 26.82,7.15 26.82,7.15 27.12,4.34 27.12,4.34 27.4,4.49 27.4,4.49 27.69,4.2 27.69,4.2 27.98,3.45 27.98,3.45 28.27,4.92 28.27,4.92 28.57,3.61 28.57,3.61 28.85,5.68 28.85,5.68 29.15,6.07 29.15,6.07 29.43,5.52 29.43,5.52 29.72,5.93 29.72,5.93 30.02,6.56 30.02,6.56 30.28,6.95 30.28,6.95 30.58,6.79 30.58,6.79 30.86,8.36 30.86,8.36 31.15,8.17 31.15,8.17 31.44,9.42 31.44,9.42 31.73,6.38 31.73,6.38 32.03,5.07 32.03,5.07 32.31,7.1 32.31,7.1 32.61,7.21 32.61,7.21 32.89,7.95 32.89,7.95 33.18,7.09 33.18,7.09 33.48,7.26 33.48,7.26 33.75,6.46 33.75,6.46 34.05,7.76 34.05,7.76 34.33,6.27 34.33,6.27 34.62,4.14 34.62,4.14 34.91,6.18 34.91,6.18 35.2,6.07 35.2,6.07 35.5,8.36 35.5,8.36 35.78,7.3 35.78,7.3 36.07,6.91 36.07,6.91 36.36,9.23 36.36,9.23 36.65,5.95 36.65,5.95 36.95,5.54 36.95,5.54 37.21,2.11 37.21,2.11 37.51,5.12 37.51,5.12 37.79,4.51 37.79,4.51 38.08,4.92 38.08,4.92 38.37,3.69 38.37,3.69 38.66,7.04 38.66,7.04 38.96,6.52 38.96,6.52 39.24,5.85 39.24,5.85 39.53,5.71 39.53,5.71 39.82,7.86 39.82,7.86 40.11,6.5 40.11,6.5 40.41,6.63 40.41,6.63 40.67,5.37 40.67,5.37 40.97,6.44 40.97,6.44 41.25,6.92 41.25,6.92 41.54,6.13 41.54,6.13 41.83,7.55 41.83,7.55 42.12,6.44 42.12,6.44 42.42,8 42.42,8 42.7,5.94 42.7,5.94 42.99,4.12 42.99,4.12 43.28,9.27 43.28,9.27 43.57,0.6 43.57,0.6 43.87,-0.4 43.87,-0.4 44.13,1.09 44.13,1.09 44.43,5.28 44.43,5.28 44.71,5.64 44.71,5.64 45,6.11 45,6.11 45.29,6.31 45.29,6.31 45.58,6.4 45.58,6.4 45.88,7.46 45.88,7.46 46.16,5.3 46.16,5.3 46.45,5.05 46.45,5.05 46.74,5.03 46.74,5.03 47.03,5.37 47.03,5.37 47.33,3.79 47.33,3.79 47.6,2.8 47.6,2.8 47.89,6.12 47.89,6.12 48.18,6.09 48.18,6.09 48.47,4.6 48.47,4.6 48.76,6.87 48.76,6.87 49.05,6.67 49.05,6.67 49.35,8.55 49.35,8.55 49.63,7.24 49.63,7.24 49.92,7.78 49.92,7.78 50.21,8.67 50.21,8.67 50.5,6.56 50.5,6.56 50.8,6.11 50.8,6.11 51.06,3.66 51.06,3.66 51.35,4.63 51.35,4.63 51.64,4.25 51.64,4.25 51.93,1.65 51.93,1.65 52.22,4.35 52.22,4.35 52.51,4.17 52.51,4.17 52.81,5.71 52.81,5.71 53.09,5.28 53.09,5.28 53.38,5.63 53.38,5.63 53.67,10.02 53.67,10.02 53.96,5.14 53.96,5.14 54.26,5.27 54.26,5.27 54.52,0.07 54.52,0.07 54.81,1.43 54.81,1.43 55.1,2.23 55.1,2.23 55.39,1.47 55.39,1.47 55.68,3.59 55.68,3.59 55.97,3.56 55.97,3.56 56.27,4.92 56.27,4.92 56.55,3.72 56.55,3.72 56.84,3.01 56.84,3.01 57.13,2.13 57.13,2.13 57.42,1.86 57.42,1.86 57.72,1.92 57.72,1.92 57.98,-10.34 57.98,-10.34 58.27,-4.17 58.27,-4.17 58.56,-1.19 58.56,-1.19 58.85,-1.13 58.85,-1.13 59.14,0.77 59.14,0.77 59.43,1.74 59.43,1.74 59.73,2.6 59.73,2.6 60.01,3.38 60.01,3.38 60.3,3.82 60.3,3.82 60.59,3.97 60.59,3.97 60.88,4.71 60.88,4.71 61.18,4.58 61.18,4.58 61.45,-4.74 61.45,-4.74 61.74,-4.46 61.74,-4.46 62.03,-3.6 62.03,-3.6 62.32,-0.11 62.32,-0.11 62.61,5.06 62.61,5.06 62.9,6.26 62.9,6.26 63.19,6.43 63.19,6.43 63.48,6.16 63.48,6.16 63.77,6.5 63.77,6.5 64.06,7.68 64.06,7.68 64.35,7.13 64.35,7.13 64.64,8.14 64.64,8.14 64.91,6.87 64.91,6.87 65.2,6.94 65.2,6.94 65.49,7.36 65.49,7.36 65.78,7.88 65.78,7.88 66.07,8.11 66.07,8.11 66.36,10.95 66.36,10.95 66.65,11.58 66.65,11.58 66.94,7.68 66.94,7.68 67.23,9.5 67.23,9.5 67.52,10.28 67.52,10.28 67.81,8.62 67.81,8.62 68.1,9.61 68.1,9.61 68.37,10.45 68.37,10.45 68.66,11.14 68.66,11.14 68.95,11.07 68.95,11.07 69.24,12.76 69.24,12.76 69.53,6.64 69.53,6.64 69.82,6.8 69.82,6.8 70.11,9.47 70.11,9.47 70.4,3.22 70.4,3.22 70.69,2.52 70.69,2.52 " class="primitive"/>
          </g>
        </g>
      </g>
    </g>
  </g>
  <g class="guide ylabels" font-size="2.82" font-family="'PT Sans Caption','Helvetica Neue','Helvetica',sans-serif" fill="#6C606B" id="img-f2bd5089-36">
    <g transform="translate(18.07,78.71)" id="img-f2bd5089-37">
      <g class="primitive">
        <text text-anchor="end" dy="0.35em">-15</text>
      </g>
    </g>
    <g transform="translate(18.07,66.76)" id="img-f2bd5089-38">
      <g class="primitive">
        <text text-anchor="end" dy="0.35em">-10</text>
      </g>
    </g>
    <g transform="translate(18.07,54.81)" id="img-f2bd5089-39">
      <g class="primitive">
        <text text-anchor="end" dy="0.35em">-5</text>
      </g>
    </g>
    <g transform="translate(18.07,42.86)" id="img-f2bd5089-40">
      <g class="primitive">
        <text text-anchor="end" dy="0.35em">0</text>
      </g>
    </g>
    <g transform="translate(18.07,30.9)" id="img-f2bd5089-41">
      <g class="primitive">
        <text text-anchor="end" dy="0.35em">5</text>
      </g>
    </g>
    <g transform="translate(18.07,18.95)" id="img-f2bd5089-42">
      <g class="primitive">
        <text text-anchor="end" dy="0.35em">10</text>
      </g>
    </g>
    <g transform="translate(18.07,7)" id="img-f2bd5089-43">
      <g class="primitive">
        <text text-anchor="end" dy="0.35em">15</text>
      </g>
    </g>
  </g>
  <g font-size="3.88" font-family="'PT Sans','Helvetica Neue','Helvetica',sans-serif" fill="#564A55" stroke="#000000" stroke-opacity="0.000" id="img-f2bd5089-44">
    <g transform="translate(8.81,40.86)" id="img-f2bd5089-45">
      <g class="primitive">
        <text text-anchor="middle" dy="0.35em" transform="rotate(-90,0, 2)">Percent, Percent Change</text>
      </g>
    </g>
  </g>
</g>
<defs>
  <clipPath id="img-f2bd5089-13">
    <path d="M19.07,5 L102.71,5 102.71,80.72 19.07,80.72 " />
  </clipPath>
</defs>
</svg>
