<?xml version="1.0" encoding="UTF-8"?>
<svg xmlns="http://www.w3.org/2000/svg"
     xmlns:xlink="http://www.w3.org/1999/xlink"
     xmlns:gadfly="http://www.gadflyjl.org/ns"
     version="1.2"
     width="120mm" height="100mm" viewBox="0 0 120 100"
     stroke="none"
     fill="#000000"
     stroke-width="0.3"
     font-size="3.88"
>
<defs>
  <marker id="arrow" markerWidth="15" markerHeight="7" refX="5" refY="3.5" orient="auto" markerUnits="strokeWidth">
    <path d="M0,0 L15,3.5 L0,7 z" stroke="context-stroke" fill="context-stroke"/>
  </marker>
</defs>
<g class="plotroot xscalable yscalable" id="img-48032cd7-1">
  <g font-size="3.88" font-family="'PT Sans','Helvetica Neue','Helvetica',sans-serif" fill="#564A55" stroke="#000000" stroke-opacity="0.000" id="img-48032cd7-2">
    <g transform="translate(56.16,88.39)">
      <g class="primitive">
        <text text-anchor="middle" dy="0.6em">Year</text>
      </g>
    </g>
  </g>
  <g class="guide xlabels" font-size="2.82" font-family="'PT Sans Caption','Helvetica Neue','Helvetica',sans-serif" fill="#6C606B" id="img-48032cd7-3">
    <g transform="translate(21.07,81.72)">
      <g class="primitive">
        <text text-anchor="middle" dy="0.6em">Jan 1, 1980</text>
      </g>
    </g>
    <g transform="translate(38.19,81.72)">
      <g class="primitive">
        <text text-anchor="middle" dy="0.6em">1990</text>
      </g>
    </g>
    <g transform="translate(55.3,81.72)">
      <g class="primitive">
        <text text-anchor="middle" dy="0.6em">2000</text>
      </g>
    </g>
    <g transform="translate(72.42,81.72)">
      <g class="primitive">
        <text text-anchor="middle" dy="0.6em">2010</text>
      </g>
    </g>
    <g transform="translate(89.53,81.72)">
      <g class="primitive">
        <text text-anchor="middle" dy="0.6em">2020</text>
      </g>
    </g>
  </g>
  <g class="guide colorkey" id="img-48032cd7-4">
    <g fill="#4C404B" font-size="2.82" font-family="'PT Sans','Helvetica Neue','Helvetica',sans-serif" id="img-48032cd7-5">
      <g transform="translate(97.06,41.04)" id="img-48032cd7-6" class="color_Nl">
        <g class="primitive">
          <text dy="0.35em">d/dt Nl</text>
        </g>
      </g>
      <g transform="translate(97.06,44.67)" id="img-48032cd7-7" class="color_MWW">
        <g class="primitive">
          <text dy="0.35em">d/dt Adj. MWW</text>
        </g>
      </g>
      <g transform="translate(97.06,48.3)" id="img-48032cd7-8" class="color_i">
        <g class="primitive">
          <text dy="0.35em">i(t)</text>
        </g>
      </g>
    </g>
    <g fill-opacity="1" id="img-48032cd7-9">
      <g transform="translate(95.15,41.04)" id="img-48032cd7-10" class="color_Nl" stroke="#FFFFFF" fill="#00BFFF">
        <path d="M-0.91,-0.91 L0.91,-0.91 0.91,0.91 -0.91,0.91  z" class="primitive"/>
      </g>
      <g transform="translate(95.15,44.67)" id="img-48032cd7-11" class="color_MWW" stroke="#FFFFFF" fill="#D4CA3A">
        <path d="M-0.91,-0.91 L0.91,-0.91 0.91,0.91 -0.91,0.91  z" class="primitive"/>
      </g>
      <g transform="translate(95.15,48.3)" id="img-48032cd7-12" class="color_i" stroke="#FFFFFF" fill="#FF6DAE">
        <path d="M-0.91,-0.91 L0.91,-0.91 0.91,0.91 -0.91,0.91  z" class="primitive"/>
      </g>
    </g>
    <g fill="#362A35" font-size="3.88" font-family="'PT Sans','Helvetica Neue','Helvetica',sans-serif" stroke="#000000" stroke-opacity="0.000" id="img-48032cd7-13">
      <g transform="translate(94.25,37.22)" id="img-48032cd7-14">
        <g class="primitive">
          <text dy="-0em">Metric</text>
        </g>
      </g>
    </g>
  </g>
  <g clip-path="url(#img-48032cd7-15)">
    <g id="img-48032cd7-16">
      <g pointer-events="visible" stroke-width="0.3" fill="#000000" fill-opacity="0.000" stroke="#000000" stroke-opacity="0.000" class="guide background" id="img-48032cd7-17">
        <g transform="translate(56.16,42.86)" id="img-48032cd7-18">
          <path d="M-37.09,-37.86 L37.09,-37.86 37.09,37.86 -37.09,37.86  z" class="primitive"/>
        </g>
      </g>
      <g class="guide xgridlines yfixed" stroke-dasharray="0.5,0.5" stroke-width="0.2" stroke="#D0D0E0" id="img-48032cd7-19">
        <g transform="translate(21.07,42.86)" id="img-48032cd7-20">
          <path fill="none" d="M0,-37.86 L0,37.86 " class="primitive"/>
        </g>
        <g transform="translate(38.19,42.86)" id="img-48032cd7-21">
          <path fill="none" d="M0,-37.86 L0,37.86 " class="primitive"/>
        </g>
        <g transform="translate(55.3,42.86)" id="img-48032cd7-22">
          <path fill="none" d="M0,-37.86 L0,37.86 " class="primitive"/>
        </g>
        <g transform="translate(72.42,42.86)" id="img-48032cd7-23">
          <path fill="none" d="M0,-37.86 L0,37.86 " class="primitive"/>
        </g>
        <g transform="translate(89.53,42.86)" id="img-48032cd7-24">
          <path fill="none" d="M0,-37.86 L0,37.86 " class="primitive"/>
        </g>
      </g>
      <g class="guide ygridlines xfixed" stroke-dasharray="0.5,0.5" stroke-width="0.2" stroke="#D0D0E0" id="img-48032cd7-25">
        <g transform="translate(56.16,78.71)" id="img-48032cd7-26">
          <path fill="none" d="M-37.09,0 L37.09,0 " class="primitive"/>
        </g>
        <g transform="translate(56.16,66.76)" id="img-48032cd7-27">
          <path fill="none" d="M-37.09,0 L37.09,0 " class="primitive"/>
        </g>
        <g transform="translate(56.16,54.81)" id="img-48032cd7-28">
          <path fill="none" d="M-37.09,0 L37.09,0 " class="primitive"/>
        </g>
        <g transform="translate(56.16,42.86)" id="img-48032cd7-29">
          <path fill="none" d="M-37.09,0 L37.09,0 " class="primitive"/>
        </g>
        <g transform="translate(56.16,30.9)" id="img-48032cd7-30">
          <path fill="none" d="M-37.09,0 L37.09,0 " class="primitive"/>
        </g>
        <g transform="translate(56.16,18.95)" id="img-48032cd7-31">
          <path fill="none" d="M-37.09,0 L37.09,0 " class="primitive"/>
        </g>
        <g transform="translate(56.16,7)" id="img-48032cd7-32">
          <path fill="none" d="M-37.09,0 L37.09,0 " class="primitive"/>
        </g>
      </g>
      <g class="plotpanel" id="img-48032cd7-33">
        <metadata>
          <boundingbox value="19.07166666666666mm 5.0mm 74.17500000000001mm 75.715mm"/>
          <unitbox value="1978-10-31 15.836645053336122 15830 days -31.673290106672248"/>
        </metadata>
        <g stroke-width="0.3" fill="#000000" fill-opacity="0.000" class="geometry" id="img-48032cd7-34">
          <g transform="translate(59.15,40.15)" id="img-48032cd7-35" class="color_Nl" stroke="#00BFFF" stroke-dasharray="none">
            <path fill="none" d="M-34.65,3.98 L-34.65,3.98 -34.65,3.98 -34.23,5.21 -34.23,5.21 -34.23,5.21 -33.8,4.94 -33.8,4.94 -33.8,4.94 -33.37,5 -33.37,5 -33.37,5 -32.94,4.07 -32.94,4.07 -32.94,4.07 -32.52,2.23 -32.52,2.23 -32.52,2.23 -32.09,-2.25 -32.09,-2.25 -32.09,-2.25 -31.66,-5.65 -31.66,-5.65 -31.66,-5.65 -31.23,-8.19 -31.23,-8.19 -31.23,-8.19 -30.81,-9.48 -30.81,-9.48 -30.81,-9.48 -30.38,-6.12 -30.38,-6.12 -30.38,-6.12 -29.95,-5.11 -29.95,-5.11 -29.95,-5.11 -29.52,-4.1 -29.52,-4.1 -29.52,-4.1 -29.1,-1.27 -29.1,-1.27 -29.1,-1.27 -28.67,-1.43 -28.67,-1.43 -28.67,-1.43 -28.24,-1.98 -28.24,-1.98 -28.24,-1.98 -27.81,-2.04 -27.81,-2.04 -27.81,-2.04 -27.39,-2.69 -27.39,-2.69 -27.39,-2.69 -26.96,-3.5 -26.96,-3.5 -26.96,-3.5 -26.53,-2.75 -26.53,-2.75 -26.53,-2.75 -26.1,-2.72 -26.1,-2.72 -26.1,-2.72 -25.67,-3.75 -25.67,-3.75 -25.67,-3.75 -25.25,-3.59 -25.25,-3.59 -25.25,-3.59 -24.82,-3.85 -24.82,-3.85 -24.82,-3.85 -24.39,-3.5 -24.39,-3.5 -24.39,-3.5 -23.96,-2.54 -23.96,-2.54 -23.96,-2.54 -23.53,-2.3 -23.53,-2.3 -23.53,-2.3 -23.1,-2.39 -23.1,-2.39 -23.1,-2.39 -22.67,-3.03 -22.67,-3.03 -22.67,-3.03 -22.25,-2.67 -22.25,-2.67 -22.25,-2.67 -21.82,-1.98 -21.82,-1.98 -21.82,-1.98 -21.39,-1.06 -21.39,-1.06 -21.39,-1.06 -20.96,-1.95 -20.96,-1.95 -20.96,-1.95 -20.54,-0.94 -20.54,-0.94 -20.54,-0.94 -20.11,0.23 -20.11,0.23 -20.11,0.23 -19.68,1.52 -19.68,1.52 -19.68,1.52 -19.25,5.38 -19.25,5.38 -19.25,5.38 -18.83,5.25 -18.83,5.25 -18.83,5.25 -18.4,4.83 -18.4,4.83 -18.4,4.83 -17.97,4.09 -17.97,4.09 -17.97,4.09 -17.54,2.35 -17.54,2.35 -17.54,2.35 -17.11,1.34 -17.11,1.34 -17.11,1.34 -16.69,0.49 -16.69,0.49 -16.69,0.49 -16.26,0.36 -16.26,0.36 -16.26,0.36 -15.83,-0 -15.83,-0 -15.83,-0 -15.4,-0.42 -15.4,-0.42 -15.4,-0.42 -14.98,-1.06 -14.98,-1.06 -14.98,-1.06 -14.55,-1.95 -14.55,-1.95 -14.55,-1.95 -14.12,-2.69 -14.12,-2.69 -14.12,-2.69 -13.69,-2.54 -13.69,-2.54 -13.69,-2.54 -13.27,-2.48 -13.27,-2.48 -13.27,-2.48 -12.84,-3.8 -12.84,-3.8 -12.84,-3.8 -12.41,-2.88 -12.41,-2.88 -12.41,-2.88 -11.98,-1.25 -11.98,-1.25 -11.98,-1.25 -11.56,-0.56 -11.56,-0.56 -11.56,-0.56 -11.13,1.23 -11.13,1.23 -11.13,1.23 -10.69,1.38 -10.69,1.38 -10.69,1.38 -10.27,-0.46 -10.27,-0.46 -10.27,-0.46 -9.84,-1.66 -9.84,-1.66 -9.84,-1.66 -9.41,-2.29 -9.41,-2.29 -9.41,-2.29 -8.98,-2.91 -8.98,-2.91 -8.98,-2.91 -8.56,-3.08 -8.56,-3.08 -8.56,-3.08 -8.13,-2.42 -8.13,-2.42 -8.13,-2.42 -7.7,-2.27 -7.7,-2.27 -7.7,-2.27 -7.27,-1.54 -7.27,-1.54 -7.27,-1.54 -6.85,-0.84 -6.85,-0.84 -6.85,-0.84 -6.42,-0.27 -6.42,-0.27 -6.42,-0.27 -5.99,-0.57 -5.99,-0.57 -5.99,-0.57 -5.56,-1.24 -5.56,-1.24 -5.56,-1.24 -5.14,-0.85 -5.14,-0.85 -5.14,-0.85 -4.71,-0.93 -4.71,-0.93 -4.71,-0.93 -4.28,-0.87 -4.28,-0.87 -4.28,-0.87 -3.85,-3.9 -3.85,-3.9 -3.85,-3.9 -3.42,-3.99 -3.42,-3.99 -3.42,-3.99 -3,-2.88 -3,-2.88 -3,-2.88 -2.56,-2.75 -2.56,-2.75 -2.56,-2.75 -2.13,0.78 -2.13,0.78 -2.13,0.78 -1.71,2.46 -1.71,2.46 -1.71,2.46 -1.29,2.67 -1.29,2.67 -1.29,2.67 -0.85,4.65 -0.85,4.65 -0.85,4.65 -0.42,5.52 -0.42,5.52 -0.42,5.52 -0,3.98 -0,3.98 -0,3.98 0.42,2.56 0.42,2.56 0.42,2.56 0.86,1.96 0.86,1.96 0.86,1.96 1.29,0.36 1.29,0.36 1.29,0.36 1.71,0.44 1.71,0.44 1.71,0.44 2.13,1.42 2.13,1.42 2.13,1.42 2.57,-0.13 2.57,-0.13 2.57,-0.13 3,0.89 3,0.89 3,0.89 3.42,0.55 3.42,0.55 3.42,0.55 3.85,-0.76 3.85,-0.76 3.85,-0.76 4.28,-0.33 4.28,-0.33 4.28,-0.33 4.71,-0.64 4.71,-0.64 4.71,-0.64 5.13,-1.8 5.13,-1.8 5.13,-1.8 5.56,-2 5.56,-2 5.56,-2 5.99,-1.68 5.99,-1.68 5.99,-1.68 6.42,-2.43 6.42,-2.43 6.42,-2.43 6.84,-1.58 6.84,-1.58 6.84,-1.58 7.27,-1.09 7.27,-1.09 7.27,-1.09 7.7,-2.33 7.7,-2.33 7.7,-2.33 8.13,-1.76 8.13,-1.76 8.13,-1.76 8.55,-0.25 8.55,-0.25 8.55,-0.25 8.98,0.4 8.98,0.4 8.98,0.4 9.41,1.62 9.41,1.62 9.41,1.62 9.84,2.59 9.84,2.59 9.84,2.59 10.27,2.59 10.27,2.59 10.27,2.59 10.7,3.81 10.7,3.81 10.7,3.81 11.13,6.28 11.13,6.28 11.13,6.28 11.56,10.41 11.56,10.41 11.56,10.41 11.98,11.92 11.98,11.92 11.98,11.92 12.41,12.36 12.41,12.36 12.41,12.36 12.84,12.2 12.84,12.2 12.84,12.2 13.27,7.63 13.27,7.63 13.27,7.63 13.69,4.55 13.69,4.55 13.69,4.55 14.12,2.82 14.12,2.82 14.12,2.82 14.55,1.35 14.55,1.35 14.55,1.35 14.98,1.27 14.98,1.27 14.98,1.27 15.4,2.19 15.4,2.19 15.4,2.19 15.83,1.78 15.83,1.78 15.83,1.78 16.26,0.06 16.26,0.06 16.26,0.06 16.69,-1.4 16.69,-1.4 16.69,-1.4 17.12,-1.8 17.12,-1.8 17.12,-1.8 17.54,-1.83 17.54,-1.83 17.54,-1.83 17.97,-1.82 17.97,-1.82 17.97,-1.82 18.4,0.19 18.4,0.19 18.4,0.19 18.83,-0.1 18.83,-0.1 18.83,-0.1 19.25,-0.3 19.25,-0.3 19.25,-0.3 19.68,1.21 19.68,1.21 19.68,1.21 20.11,-0.6 20.11,-0.6 20.11,-0.6 20.54,-0.74 20.54,-0.74 20.54,-0.74 20.96,-0.99 20.96,-0.99 20.96,-0.99 21.39,-2.62 21.39,-2.62 21.39,-2.62 21.82,-1.89 21.82,-1.89 21.82,-1.89 22.25,-1.88 22.25,-1.88 22.25,-1.88 22.67,-1.17 22.67,-1.17 22.67,-1.17 23.1,-0.74 23.1,-0.74 23.1,-0.74 23.53,-1.86 23.53,-1.86 23.53,-1.86 23.96,-1.19 23.96,-1.19 23.96,-1.19 24.39,-1.71 24.39,-1.71 24.39,-1.71 24.82,-1.05 24.82,-1.05 24.82,-1.05 25.25,0.13 25.25,0.13 25.25,0.13 25.67,-0.56 25.67,-0.56 25.67,-0.56 26.1,-0.58 26.1,-0.58 26.1,-0.58 26.53,-0.13 26.53,-0.13 26.53,-0.13 26.96,-1.13 26.96,-1.13 26.96,-1.13 27.38,-1.01 27.38,-1.01 27.38,-1.01 27.81,-0.52 27.81,-0.52 27.81,-0.52 28.24,-1.62 28.24,-1.62 28.24,-1.62 28.67,-0.08 28.67,-0.08 28.67,-0.08 29.09,0.69 29.09,0.69 29.09,0.69 29.52,-0.32 29.52,-0.32 29.52,-0.32 29.95,-0.33 29.95,-0.33 29.95,-0.33 30.38,1.37 30.38,1.37 30.38,1.37 30.81,32.17 30.81,32.17 30.81,32.17 31.23,20.4 31.23,20.4 31.23,20.4 31.66,15.91 31.66,15.91 31.66,15.91 32.1,13.73 32.1,13.73 32.1,13.73 32.52,-21.44 32.52,-21.44 32.52,-21.44 32.94,-8.85 32.94,-8.85 32.94,-8.85 33.37,-5.89 33.37,-5.89 33.37,-5.89 33.81,-8.97 33.81,-8.97 33.81,-8.97 34.23,-7.93 34.23,-7.93 34.23,-7.93 34.65,-5.76 34.65,-5.76 34.65,-5.76 " class="primitive"/>
          </g>
          <g transform="translate(59.15,41.95)" id="img-48032cd7-36" class="color_MWW" stroke="#D4CA3A" stroke-dasharray="none">
            <path fill="none" d="M-34.65,2.43 L-34.65,2.43 -34.65,2.43 -34.23,-1.4 -34.23,-1.4 -34.23,-1.4 -33.8,-0.64 -33.8,-0.64 -33.8,-0.64 -33.37,0.14 -33.37,0.14 -33.37,0.14 -32.94,-1.39 -32.94,-1.39 -32.94,-1.39 -32.52,0.91 -32.52,0.91 -32.52,0.91 -32.09,-2.17 -32.09,-2.17 -32.09,-2.17 -31.66,1.67 -31.66,1.67 -31.66,1.67 -31.23,2.42 -31.23,2.42 -31.23,2.42 -30.81,2.43 -30.81,2.43 -30.81,2.43 -30.38,2.42 -30.38,2.42 -30.38,2.42 -29.95,-2.16 -29.95,-2.16 -29.95,-2.16 -29.52,0.14 -29.52,0.14 -29.52,0.14 -29.1,-7.52 -29.1,-7.52 -29.1,-7.52 -28.67,-4.44 -28.67,-4.44 -28.67,-4.44 -28.24,-2.12 -28.24,-2.12 -28.24,-2.12 -27.81,-4.42 -27.81,-4.42 -27.81,-4.42 -27.39,-2.79 -27.39,-2.79 -27.39,-2.79 -26.96,-5.07 -26.96,-5.07 -26.96,-5.07 -26.53,-7.31 -26.53,-7.31 -26.53,-7.31 -26.1,-4.31 -26.1,-4.31 -26.1,-4.31 -25.67,0.91 -25.67,0.91 -25.67,0.91 -25.25,-0.55 -25.25,-0.55 -25.25,-0.55 -24.82,3.07 -24.82,3.07 -24.82,3.07 -24.39,0.18 -24.39,0.18 -24.39,0.18 -23.96,3.09 -23.96,3.09 -23.96,3.09 -23.53,4.53 -23.53,4.53 -23.53,4.53 -23.1,3.82 -23.1,3.82 -23.1,3.82 -22.67,5.27 -22.67,5.27 -22.67,5.27 -22.25,3.11 -22.25,3.11 -22.25,3.11 -21.82,3.11 -21.82,3.11 -21.82,3.11 -21.39,2.38 -21.39,2.38 -21.39,2.38 -20.96,3.87 -20.96,3.87 -20.96,3.87 -20.54,3.13 -20.54,3.13 -20.54,3.13 -20.11,7.59 -20.11,7.59 -20.11,7.59 -19.68,8.33 -19.68,8.33 -19.68,8.33 -19.25,3.15 -19.25,3.15 -19.25,3.15 -18.83,6.15 -18.83,6.15 -18.83,6.15 -18.4,1.67 -18.4,1.67 -18.4,1.67 -17.97,0.14 -17.97,0.14 -17.97,0.14 -17.54,1.66 -17.54,1.66 -17.54,1.66 -17.11,0.14 -17.11,0.14 -17.11,0.14 -16.69,-0.63 -16.69,-0.63 -16.69,-0.63 -16.26,1.67 -16.26,1.67 -16.26,1.67 -15.83,0.91 -15.83,0.91 -15.83,0.91 -15.4,-2.15 -15.4,-2.15 -15.4,-2.15 -14.98,-2.9 -14.98,-2.9 -14.98,-2.9 -14.55,-4.46 -14.55,-4.46 -14.55,-4.46 -14.12,0.15 -14.12,0.15 -14.12,0.15 -13.69,0.91 -13.69,0.91 -13.69,0.91 -13.27,4.65 -13.27,4.65 -13.27,4.65 -12.84,4.65 -12.84,4.65 -12.84,4.65 -12.41,3.17 -12.41,3.17 -12.41,3.17 -11.98,3.17 -11.98,3.17 -11.98,3.17 -11.56,-1.38 -11.56,-1.38 -11.56,-1.38 -11.13,1.67 -11.13,1.67 -11.13,1.67 -10.69,1.67 -10.69,1.67 -10.69,1.67 -10.27,2.43 -10.27,2.43 -10.27,2.43 -9.84,3.17 -9.84,3.17 -9.84,3.17 -9.41,0.91 -9.41,0.91 -9.41,0.91 -8.98,0.14 -8.98,0.14 -8.98,0.14 -8.56,-0.63 -8.56,-0.63 -8.56,-0.63 -8.13,0.91 -8.13,0.91 -8.13,0.91 -7.7,0.14 -7.7,0.14 -7.7,0.14 -7.27,-3.68 -7.27,-3.68 -7.27,-3.68 -6.85,-2.9 -6.85,-2.9 -6.85,-2.9 -6.42,-4.42 -6.42,-4.42 -6.42,-4.42 -5.99,-9.75 -5.99,-9.75 -5.99,-9.75 -5.56,-2.84 -5.56,-2.84 -5.56,-2.84 -5.14,-6.59 -5.14,-6.59 -5.14,-6.59 -4.71,-5.8 -4.71,-5.8 -4.71,-5.8 -4.28,-4.2 -4.28,-4.2 -4.28,-4.2 -3.85,-6.47 -3.85,-6.47 -3.85,-6.47 -3.42,-2.73 -3.42,-2.73 -3.42,-2.73 -3,-2.72 -3,-2.72 -3,-2.72 -2.56,1.62 -2.56,1.62 -2.56,1.62 -2.13,1.62 -2.13,1.62 -2.13,1.62 -1.71,-0.53 -1.71,-0.53 -1.71,-0.53 -1.29,-1.24 -1.29,-1.24 -1.29,-1.24 -0.85,-3.39 -0.85,-3.39 -0.85,-3.39 -0.42,-4.84 -0.42,-4.84 -0.42,-4.84 -0,-1.23 -0,-1.23 -0,-1.23 0.42,1.61 0.42,1.61 0.42,1.61 0.86,3.72 0.86,3.72 0.86,3.72 1.29,5.11 1.29,5.11 1.29,5.11 1.71,1.61 1.71,1.61 1.71,1.61 2.13,0.91 2.13,0.91 2.13,0.91 2.57,0.19 2.57,0.19 2.57,0.19 3,-0.52 3,-0.52 3,-0.52 3.42,-1.22 3.42,-1.22 3.42,-1.22 3.85,2.32 3.85,2.32 3.85,2.32 4.28,0.91 4.28,0.91 4.28,0.91 4.71,1.61 4.71,1.61 4.71,1.61 5.13,5.81 5.13,5.81 5.13,5.81 5.56,3.76 5.56,3.76 5.56,3.76 5.99,4.45 5.99,4.45 5.99,4.45 6.42,3.75 6.42,3.75 6.42,3.75 6.84,4.48 6.84,4.48 6.84,4.48 7.27,-1.26 7.27,-1.26 7.27,-1.26 7.7,-2.69 7.7,-2.69 7.7,-2.69 8.13,-1.97 8.13,-1.97 8.13,-1.97 8.55,-3.45 8.55,-3.45 8.55,-3.45 8.98,-0.53 8.98,-0.53 8.98,-0.53 9.41,4.45 9.41,4.45 9.41,4.45 9.84,1.62 9.84,1.62 9.84,1.62 10.27,0.91 10.27,0.91 10.27,0.91 10.7,4.46 10.7,4.46 10.7,4.46 11.13,-4.85 11.13,-4.85 11.13,-4.85 11.56,-6.23 11.56,-6.23 11.56,-6.23 11.98,-6.23 11.98,-6.23 11.98,-6.23 12.41,-9.21 12.41,-9.21 12.41,-9.21 12.84,-1.91 12.84,-1.91 12.84,-1.91 13.27,1.6 13.27,1.6 13.27,1.6 13.69,2.98 13.69,2.98 13.69,2.98 14.12,2.98 14.12,2.98 14.12,2.98 14.55,2.99 14.55,2.99 14.55,2.99 14.98,5.08 14.98,5.08 14.98,5.08 15.4,5.1 15.4,5.1 15.4,5.1 15.83,5.1 15.83,5.1 15.83,5.1 16.26,5.11 16.26,5.11 16.26,5.11 16.69,3.03 16.69,3.03 16.69,3.03 17.12,0.19 17.12,0.19 17.12,0.19 17.54,3.04 17.54,3.04 17.54,3.04 17.97,2.33 17.97,2.33 17.97,2.33 18.4,3.76 18.4,3.76 18.4,3.76 18.83,2.32 18.83,2.32 18.83,2.32 19.25,0.19 19.25,0.19 19.25,0.19 19.68,0.19 19.68,0.19 19.68,0.19 20.11,-1.98 20.11,-1.98 20.11,-1.98 20.54,4.47 20.54,4.47 20.54,4.47 20.96,-0.53 20.96,-0.53 20.96,-0.53 21.39,-0.53 21.39,-0.53 21.39,-0.53 21.82,-3.38 21.82,-3.38 21.82,-3.38 22.25,-5.61 22.25,-5.61 22.25,-5.61 22.67,-1.94 22.67,-1.94 22.67,-1.94 23.1,-5.5 23.1,-5.5 23.1,-5.5 23.53,-2.6 23.53,-2.6 23.53,-2.6 23.96,-3.33 23.96,-3.33 23.96,-3.33 24.39,-4.02 24.39,-4.02 24.39,-4.02 24.82,-1.87 24.82,-1.87 24.82,-1.87 25.25,-3.24 25.25,-3.24 25.25,-3.24 25.67,-5.33 25.67,-5.33 25.67,-5.33 26.1,-2.54 26.1,-2.54 26.1,-2.54 26.53,3.65 26.53,3.65 26.53,3.65 26.96,1.58 26.96,1.58 26.96,1.58 27.38,2.93 27.38,2.93 27.38,2.93 27.81,-0.45 27.81,-0.45 27.81,-0.45 28.24,-6.02 28.24,-6.02 28.24,-6.02 28.67,-1.82 28.67,-1.82 28.67,-1.82 29.09,-3.86 29.09,-3.86 29.09,-3.86 29.52,-3.15 29.52,-3.15 29.52,-3.15 29.95,-3.81 29.95,-3.81 29.95,-3.81 30.38,-7.85 30.38,-7.85 30.38,-7.85 30.81,-22.47 30.81,-22.47 30.81,-22.47 31.23,-15.03 31.23,-15.03 31.23,-15.03 31.66,-8.34 31.66,-8.34 31.66,-8.34 32.1,-2.34 32.1,-2.34 32.1,-2.34 32.52,14.29 32.52,14.29 32.52,14.29 32.94,11.49 32.94,11.49 32.94,11.49 33.37,9.81 33.37,9.81 33.37,9.81 33.81,7.96 33.81,7.96 33.81,7.96 34.23,9.28 34.23,9.28 34.23,9.28 34.65,4.81 34.65,4.81 34.65,4.81 " class="primitive"/>
          </g>
          <g transform="translate(59.15,39.56)" id="img-48032cd7-37" class="color_i" stroke="#FF6DAE" stroke-dasharray="none">
            <path fill="none" d="M-34.65,-11.63 L-34.65,-11.63 -34.65,-11.63 -34.23,-17.2 -34.23,-17.2 -34.23,-17.2 -33.8,-9.79 -33.8,-9.79 -33.8,-9.79 -33.37,-9.25 -33.37,-9.25 -33.37,-9.25 -32.94,-8.56 -32.94,-8.56 -32.94,-8.56 -32.52,-9.73 -32.52,-9.73 -32.52,-9.73 -32.09,-9.41 -32.09,-9.41 -32.09,-9.41 -31.66,-7.86 -31.66,-7.86 -31.66,-7.86 -31.23,-9.58 -31.23,-9.58 -31.23,-9.58 -30.81,-9.54 -30.81,-9.54 -30.81,-9.54 -30.38,-11.68 -30.38,-11.68 -30.38,-11.68 -29.95,-11.85 -29.95,-11.85 -29.95,-11.85 -29.52,-8.24 -29.52,-8.24 -29.52,-8.24 -29.1,-8.04 -29.1,-8.04 -29.1,-8.04 -28.67,-6.93 -28.67,-6.93 -28.67,-6.93 -28.24,-6.87 -28.24,-6.87 -28.24,-6.87 -27.81,-7.94 -27.81,-7.94 -27.81,-7.94 -27.39,-8.32 -27.39,-8.32 -27.39,-8.32 -26.96,-4.56 -26.96,-4.56 -26.96,-4.56 -26.53,-2.98 -26.53,-2.98 -26.53,-2.98 -26.1,-3.13 -26.1,-3.13 -26.1,-3.13 -25.67,-2.66 -25.67,-2.66 -25.67,-2.66 -25.25,-2.46 -25.25,-2.46 -25.25,-2.46 -24.82,-4.28 -24.82,-4.28 -24.82,-4.28 -24.39,-3.1 -24.39,-3.1 -24.39,-3.1 -23.96,-3.75 -23.96,-3.75 -23.96,-3.75 -23.53,-3.97 -23.53,-3.97 -23.53,-3.97 -23.1,-4.22 -23.1,-4.22 -23.1,-4.22 -22.67,-4.78 -22.67,-4.78 -22.67,-4.78 -22.25,-7.08 -22.25,-7.08 -22.25,-7.08 -21.82,-5.95 -21.82,-5.95 -21.82,-5.95 -21.39,-6.04 -21.39,-6.04 -21.39,-6.04 -20.96,-5.97 -20.96,-5.97 -20.96,-5.97 -20.54,-6.71 -20.54,-6.71 -20.54,-6.71 -20.11,-5.51 -20.11,-5.51 -20.11,-5.51 -19.68,-2.07 -19.68,-2.07 -19.68,-2.07 -19.25,-3.5 -19.25,-3.5 -19.25,-3.5 -18.83,-4.3 -18.83,-4.3 -18.83,-4.3 -18.4,-3.24 -18.4,-3.24 -18.4,-3.24 -17.97,-1.38 -17.97,-1.38 -17.97,-1.38 -17.54,-0.16 -17.54,-0.16 -17.54,-0.16 -17.11,-0.29 -17.11,-0.29 -17.11,-0.29 -16.69,0.66 -16.69,0.66 -16.69,0.66 -16.26,1.11 -16.26,1.11 -16.26,1.11 -15.83,1.5 -15.83,1.5 -15.83,1.5 -15.4,1.24 -15.4,1.24 -15.4,1.24 -14.98,1.28 -14.98,1.28 -14.98,1.28 -14.55,1.53 -14.55,1.53 -14.55,1.53 -14.12,1.7 -14.12,1.7 -14.12,1.7 -13.69,0.02 -13.69,0.02 -13.69,0.02 -13.27,-1.09 -13.27,-1.09 -13.27,-1.09 -12.84,-1.56 -12.84,-1.56 -12.84,-1.56 -12.41,-2.08 -12.41,-2.08 -12.41,-2.08 -11.98,-4.02 -11.98,-4.02 -11.98,-4.02 -11.56,-2.41 -11.56,-2.41 -11.56,-2.41 -11.13,-3.01 -11.13,-3.01 -11.13,-3.01 -10.69,-2.41 -10.69,-2.41 -10.69,-2.41 -10.27,-2.5 -10.27,-2.5 -10.27,-2.5 -9.84,-2.93 -9.84,-2.93 -9.84,-2.93 -9.41,-2.26 -9.41,-2.26 -9.41,-2.26 -8.98,-1.91 -8.98,-1.91 -8.98,-1.91 -8.56,-3.05 -8.56,-3.05 -8.56,-3.05 -8.13,-3.42 -8.13,-3.42 -8.13,-3.42 -7.7,-2.55 -7.7,-2.55 -7.7,-2.55 -7.27,-2.99 -7.27,-2.99 -7.27,-2.99 -6.85,-3.22 -6.85,-3.22 -6.85,-3.22 -6.42,-2.17 -6.42,-2.17 -6.42,-2.17 -5.99,-1.89 -5.99,-1.89 -5.99,-1.89 -5.56,-1.74 -5.56,-1.74 -5.56,-1.74 -5.14,-3.17 -5.14,-3.17 -5.14,-3.17 -4.71,-3 -4.71,-3 -4.71,-3 -4.28,-1.7 -4.28,-1.7 -4.28,-1.7 -3.85,-3.04 -3.85,-3.04 -3.85,-3.04 -3.42,-2.81 -3.42,-2.81 -3.42,-2.81 -3,-4.35 -3,-4.35 -3,-4.35 -2.56,-3.18 -2.56,-3.18 -2.56,-3.18 -2.13,-4.34 -2.13,-4.34 -2.13,-4.34 -1.71,-1.25 -1.71,-1.25 -1.71,-1.25 -1.29,0.47 -1.29,0.47 -1.29,0.47 -0.85,1.79 -0.85,1.79 -0.85,1.79 -0.42,1.12 -0.42,1.12 -0.42,1.12 -0,2.43 -0,2.43 -0,2.43 0.42,2.96 0.42,2.96 0.42,2.96 0.86,3.72 0.86,3.72 0.86,3.72 1.29,3.73 1.29,3.73 1.29,3.73 1.71,4.29 1.71,4.29 1.71,4.29 2.13,3.25 2.13,3.25 2.13,3.25 2.57,4.06 2.57,4.06 2.57,4.06 3,3.77 3,3.77 3,3.77 3.42,4.82 3.42,4.82 3.42,4.82 3.85,5.1 3.85,5.1 3.85,5.1 4.28,2.56 4.28,2.56 4.28,2.56 4.71,2.13 4.71,2.13 4.71,2.13 5.13,1.72 5.13,1.72 5.13,1.72 5.56,-0.16 5.56,-0.16 5.56,-0.16 5.99,0.65 5.99,0.65 5.99,0.65 6.42,-2.59 6.42,-2.59 6.42,-2.59 6.84,-2.1 6.84,-2.1 6.84,-2.1 7.27,-2.35 7.27,-2.35 7.27,-2.35 7.7,-4.38 7.7,-4.38 7.7,-4.38 8.13,-2.17 8.13,-2.17 8.13,-2.17 8.55,-0.37 8.55,-0.37 8.55,-0.37 8.98,-1.36 8.98,-1.36 8.98,-1.36 9.41,-1.01 9.41,-1.01 9.41,-1.01 9.84,1.66 9.84,1.66 9.84,1.66 10.27,3.83 10.27,3.83 10.27,3.83 10.7,5.93 10.7,5.93 10.7,5.93 11.13,-1.91 11.13,-1.91 11.13,-1.91 11.56,-2.56 11.56,-2.56 11.56,-2.56 11.98,2.8 11.98,2.8 11.98,2.8 12.41,5.65 12.41,5.65 12.41,5.65 12.84,5.71 12.84,5.71 12.84,5.71 13.27,6.08 13.27,6.08 13.27,6.08 13.69,4.36 13.69,4.36 13.69,4.36 14.12,4.01 14.12,4.01 14.12,4.01 14.55,5.77 14.55,5.77 14.55,5.77 14.98,6.49 14.98,6.49 14.98,6.49 15.4,7.78 15.4,7.78 15.4,7.78 15.83,6.97 15.83,6.97 15.83,6.97 16.26,7.43 16.26,7.43 16.26,7.43 16.69,6.95 16.69,6.95 16.69,6.95 17.12,6.07 17.12,6.07 17.12,6.07 17.54,6.88 17.54,6.88 17.54,6.88 17.97,7.83 17.97,7.83 17.97,7.83 18.4,4.55 18.4,4.55 18.4,4.55 18.83,4.86 18.83,4.86 18.83,4.86 19.25,5.76 19.25,5.76 19.25,5.76 19.68,6.49 19.68,6.49 19.68,6.49 20.11,6.18 20.11,6.18 20.11,6.18 20.54,6.51 20.54,6.51 20.54,6.51 20.96,7.34 20.96,7.34 20.96,7.34 21.39,6.45 21.39,6.45 21.39,6.45 21.82,0.44 21.82,0.44 21.82,0.44 22.25,5.69 22.25,5.69 22.25,5.69 22.67,6.73 22.67,6.73 22.67,6.73 23.1,5.14 23.1,5.14 23.1,5.14 23.53,4 23.53,4 23.53,4 23.96,5.61 23.96,5.61 23.96,5.61 24.39,7.37 24.39,7.37 24.39,7.37 24.82,7.91 24.82,7.91 24.82,7.91 25.25,5.45 25.25,5.45 25.25,5.45 25.67,3.52 25.67,3.52 25.67,3.52 26.1,4.75 26.1,4.75 26.1,4.75 26.53,6.99 26.53,6.99 26.53,6.99 26.96,3.5 26.96,3.5 26.96,3.5 27.38,1.72 27.38,1.72 27.38,1.72 27.81,4.03 27.81,4.03 27.81,4.03 28.24,2.96 28.24,2.96 28.24,2.96 28.67,-2.18 28.67,-2.18 28.67,-2.18 29.09,-2.15 29.09,-2.15 29.09,-2.15 29.52,1.71 29.52,1.71 29.52,1.71 29.95,3.73 29.95,3.73 29.95,3.73 30.38,1.53 30.38,1.53 30.38,1.53 30.81,-2.71 30.81,-2.71 30.81,-2.71 31.23,5.93 31.23,5.93 31.23,5.93 31.66,6.79 31.66,6.79 31.66,6.79 32.1,7.39 32.1,7.39 32.1,7.39 32.52,7.4 32.52,7.4 32.52,7.4 32.94,10.22 32.94,10.22 32.94,10.22 33.37,9.17 33.37,9.17 33.37,9.17 33.81,9.57 33.81,9.57 33.81,9.57 34.23,11.67 34.23,11.67 34.23,11.67 34.65,7.65 34.65,7.65 34.65,7.65 " class="primitive"/>
          </g>
        </g>
      </g>
    </g>
  </g>
  <g class="guide ylabels" font-size="2.82" font-family="'PT Sans Caption','Helvetica Neue','Helvetica',sans-serif" fill="#6C606B" id="img-48032cd7-38">
    <g transform="translate(18.07,78.71)" id="img-48032cd7-39">
      <g class="primitive">
        <text text-anchor="end" dy="0.35em">-15</text>
      </g>
    </g>
    <g transform="translate(18.07,66.76)" id="img-48032cd7-40">
      <g class="primitive">
        <text text-anchor="end" dy="0.35em">-10</text>
      </g>
    </g>
    <g transform="translate(18.07,54.81)" id="img-48032cd7-41">
      <g class="primitive">
        <text text-anchor="end" dy="0.35em">-5</text>
      </g>
    </g>
    <g transform="translate(18.07,42.86)" id="img-48032cd7-42">
      <g class="primitive">
        <text text-anchor="end" dy="0.35em">0</text>
      </g>
    </g>
    <g transform="translate(18.07,30.9)" id="img-48032cd7-43">
      <g class="primitive">
        <text text-anchor="end" dy="0.35em">5</text>
      </g>
    </g>
    <g transform="translate(18.07,18.95)" id="img-48032cd7-44">
      <g class="primitive">
        <text text-anchor="end" dy="0.35em">10</text>
      </g>
    </g>
    <g transform="translate(18.07,7)" id="img-48032cd7-45">
      <g class="primitive">
        <text text-anchor="end" dy="0.35em">15</text>
      </g>
    </g>
  </g>
  <g font-size="3.88" font-family="'PT Sans','Helvetica Neue','Helvetica',sans-serif" fill="#564A55" stroke="#000000" stroke-opacity="0.000" id="img-48032cd7-46">
    <g transform="translate(8.81,40.86)" id="img-48032cd7-47">
      <g class="primitive">
        <text text-anchor="middle" dy="0.35em" transform="rotate(-90,0, 2)">Percent, Percent Change</text>
      </g>
    </g>
  </g>
</g>
<defs>
  <clipPath id="img-48032cd7-15">
    <path d="M19.07,5 L93.25,5 93.25,80.72 19.07,80.72 " />
  </clipPath>
</defs>
</svg>
